<svg xmlns="http://www.w3.org/2000/svg" viewBox="0 0 30 30">
	<title>Icon meaning track</title><path fill="#1d69b4" d="M26.19,13.77h1.93v2.46H26.19A10.87,10.87,0,0,1,23,23a10.87,10.87,0,0,1-6.74,3.22v1.93H13.77V26.19A10.87,10.87,0,0,1,7,23a10.87,10.87,0,0,1-3.22-6.74H1.88V13.77H3.81A10.87,10.87,0,0,1,7,7a10.87,10.87,0,0,1,6.74-3.22V1.88h2.46V3.81A10.87,10.87,0,0,1,23,7,10.87,10.87,0,0,1,26.19,13.77ZM8.82,21.18A8.42,8.42,0,0,0,15,23.73a8.42,8.42,0,0,0,6.18-2.55A8.42,8.42,0,0,0,23.73,15a8.42,8.42,0,0,0-2.55-6.18A8.42,8.42,0,0,0,15,6.27,8.42,8.42,0,0,0,8.82,8.82,8.42,8.42,0,0,0,6.27,15,8.42,8.42,0,0,0,8.82,21.18Zm2.87-9.49a4.67,4.67,0,0,1,6.62,0,4.67,4.67,0,0,1,0,6.62,4.67,4.67,0,0,1-6.62,0A4.67,4.67,0,0,1,11.69,11.69Z"/></svg>
