<svg xmlns="http://www.w3.org/2000/svg" width="50" height="45" viewBox="0 0 50 45">
  <g fill="#1D69B4">
    <path d="M23.9668087,25.604828 C24.3978664,26.0358857 24.9151356,26.2083088 25.4324049,26.2083088 C25.9496741,26.2083088 26.4669434,26.0358857 26.8980011,25.604828 L45.2610595,7.24176953 L45.2610595,14.6559621 C45.2610595,15.7767122 46.2093865,16.7250391 47.3301365,16.7250391 C48.4508866,16.7250391 49.3992136,15.7767122 49.3992136,14.6559621 L49.3992136,2.24150009 C49.3992136,1.98286547 49.313002,1.72423084 49.2267905,1.46559621 L49.2267905,1.46559621 C49.1405789,1.20696159 48.9681558,0.948326962 48.7957328,0.775903878 C48.6233097,0.603480794 48.3646751,0.43105771 48.1060404,0.344846168 L48.1060404,0.344846168 C47.8474058,0.258634626 47.5887712,0.172423084 47.3301365,0.172423084 L35.001886,0.172423084 C33.881136,0.172423084 32.932809,1.12075005 32.932809,2.24150009 C32.932809,3.36225014 33.881136,4.3105771 35.001886,4.3105771 L42.4160787,4.3105771 L23.9668087,22.6736355 C23.1909048,23.535751 23.1909048,24.8289241 23.9668087,25.604828"/>
    <path d="M47.3301365,22.0701547 C46.2093865,22.0701547 45.2610595,23.0184817 45.2610595,24.1392318 L45.2610595,34.829463 C45.2610595,40.1745786 40.5194247,40.5194247 39.5710978,40.5194247 L10.4315966,40.5194247 C5.08648098,40.5194247 4.74163481,35.7777899 4.74163481,34.829463 L4.74163481,10.0005389 C4.74163481,4.65542327 9.48326962,4.3105771 10.4315966,4.3105771 L25.4324049,4.3105771 C26.5531549,4.3105771 27.5014819,3.36225014 27.5014819,2.24150009 C27.5014819,1.12075005 26.5531549,0.172423084 25.4324049,0.172423084 L10.4315966,0.172423084 C7.06934644,0.172423084 0.603480794,2.24150009 0.603480794,10.0005389 L0.603480794,34.7432514 C0.603480794,38.1055016 2.6725578,44.5713672 10.4315966,44.5713672 L39.5710978,44.5713672 C42.9333479,44.5713672 49.3992136,42.5022902 49.3992136,34.7432514 L49.3992136,24.1392318 C49.3992136,23.0184817 48.4508866,22.0701547 47.3301365,22.0701547"/>
  </g>
</svg>
