<?xml version="1.0" standalone="no"?>
<!DOCTYPE svg PUBLIC "-//W3C//DTD SVG 1.1//EN" "http://www.w3.org/Graphics/SVG/1.1/DTD/svg11.dtd" >
<svg xmlns="http://www.w3.org/2000/svg">
<metadata></metadata>
<defs>
<font id="transtext_rmitalic" horiz-adv-x="1024" >
<font-face units-per-em="2048" ascent="1556" descent="-492" />
<missing-glyph horiz-adv-x="587" />
<glyph horiz-adv-x="0" />
<glyph horiz-adv-x="0" />
<glyph unicode="&#xd;" horiz-adv-x="2048" />
<glyph unicode=" "  horiz-adv-x="587" />
<glyph unicode="&#x09;" horiz-adv-x="587" />
<glyph unicode="&#xa0;" horiz-adv-x="587" />
<glyph unicode="!" horiz-adv-x="821" d="M154 0l47 213h215l-47 -213h-215zM262 381l193 1040h219l-248 -1040h-164z" />
<glyph unicode="&#x22;" horiz-adv-x="614" d="M90 881v555h139v-555h-139zM385 881v555h139v-555h-139z" />
<glyph unicode="#" horiz-adv-x="1574" d="M88 449l53 147h310l92 262h-330l51 146h332l162 454h166l-162 -454h256l164 454h164l-160 -454h301l-51 -146h-303l-93 -262h322l-51 -147h-322l-162 -453h-165l161 453h-258l-162 -453h-165l159 453h-309zM616 594h261l92 264h-260z" />
<glyph unicode="$" horiz-adv-x="1175" d="M43 68l51 170q149 -74 316 -86l112 530q-148 72 -217 158.5t-69 201.5q0 167 129 275q132 108 335 108l37 179h97l-39 -181q156 -10 303 -59l-56 -160q-134 64 -280 76l-96 -455q315 -142 315 -383q0 -191 -141 -317q-139 -127 -357 -127h-10l-39 -191h-96l41 189 q-192 3 -336 72zM420 1055q0 -62 37 -108.5t123 -90.5l92 426q-117 -14 -184.5 -74.5t-67.5 -152.5zM504 152q125 5 201.5 78t76.5 188q0 72 -39.5 126.5t-130.5 108.5z" />
<glyph unicode="%" horiz-adv-x="1777" d="M76 1063q0 177 90 281t242 104t241.5 -104t89.5 -281q0 -173 -91 -279t-240 -106q-152 0 -242 104t-90 281zM240 1065q0 -122 46 -192t124 -70t123 69.5t45 192.5q0 124 -44 193t-124 69q-78 0 -124 -70.5t-46 -191.5zM449 -27l755 1475h137l-753 -1475h-139zM1051 358 q0 177 89.5 281t241.5 104t241 -103.5t89 -281.5q0 -177 -89 -281t-241 -104t-241.5 104t-89.5 281zM1214 360q0 -122 45 -192t123 -70t124 70t46 192t-46 192.5t-124 70.5t-123 -70.5t-45 -192.5z" />
<glyph unicode="&#x26;" horiz-adv-x="1409" d="M47 352q0 162 112 281t314 170q-131 168 -131 309q0 149 115 244q113 94 301 94q157 0 253.5 -84.5t96.5 -220.5q0 -257 -397 -393l260 -377q136 151 194 409h168q-65 -334 -270 -534l176 -250h-209l-94 147q-188 -174 -471 -174q-189 0 -303 105q-115 109 -115 274z M238 375q0 -115 71.5 -185.5t188.5 -70.5q189 0 356 145l-301 434q-315 -110 -315 -323zM514 1110q0 -96 125 -258q163 63 231 128.5t68 156.5q0 75 -53.5 123.5t-139.5 48.5q-102 0 -166.5 -56t-64.5 -143z" />
<glyph unicode="'" horiz-adv-x="317" d="M90 881v555h139v-555h-139z" />
<glyph unicode="(" horiz-adv-x="628" d="M117 467q0 536 532 1081h160q-267 -313 -393.5 -588.5t-126.5 -545.5q0 -358 137 -684h-139q-170 420 -170 737z" />
<glyph unicode=")" horiz-adv-x="628" d="M-211 -270q268 311 394 586.5t126 547.5q0 357 -137 684h139q88 -221 129 -397.5t41 -339.5q0 -536 -532 -1081h-160z" />
<glyph unicode="*" d="M190 1161l54 168l307 -155l-43 344h164l-43 -342l307 153l53 -168l-336 -61l240 -244l-143 -106l-160 307l-160 -307l-143 106l239 246z" />
<glyph unicode="+" horiz-adv-x="1705" d="M254 541v139h528v541h142v-541h528v-139h-528v-541h-142v541h-528z" />
<glyph unicode="," horiz-adv-x="587" d="M-96 -258l211 469h217l-260 -469h-168z" />
<glyph unicode="-" horiz-adv-x="677" d="M33 494l30 149h517l-31 -149h-516z" />
<glyph unicode="." horiz-adv-x="587" d="M53 0l45 213h209l-45 -213h-209z" />
<glyph unicode="/" horiz-adv-x="569" d="M-43 -16l541 1501h116l-540 -1501h-117z" />
<glyph unicode="0" horiz-adv-x="1175" d="M72 455q0 203 49 395q49 193 135 319q94 143 202.5 211t243.5 68q197 0 299.5 -121t102.5 -354q0 -196 -49 -385q-49 -187 -133 -328q-177 -287 -453 -287q-189 0 -293 126.5t-104 355.5zM264 432q0 -149 56 -231t159 -82q162 0 283 239q64 124 106 308q41 178 41 331 q0 146 -55.5 227t-155.5 81q-158 0 -280 -224q-54 -94 -111 -315q-43 -180 -43 -334z" />
<glyph unicode="1" horiz-adv-x="1175" d="M287 1161l454 260h140l-299 -1421h-187l264 1210l-280 -188z" />
<glyph unicode="2" horiz-adv-x="1175" d="M-6 0l33 154l518 444q170 146 246.5 256t76.5 207q0 104 -66.5 162.5t-185.5 58.5q-136 0 -327 -111l18 193q186 82 359 82q190 0 298.5 -97.5t108.5 -269.5q0 -131 -79 -257t-255 -273l-460 -387h651l-35 -162h-901z" />
<glyph unicode="3" horiz-adv-x="1175" d="M-27 55l45 166q167 -78 324 -78q175 0 291 84q112 84 112 219q0 113 -93.5 173.5t-270.5 60.5q-52 0 -68 -2l31 153h6q94 -4 107 -4q198 0 307.5 64t109.5 180q0 100 -77.5 157.5t-212.5 57.5q-153 0 -318 -74l19 172q174 62 336 62q207 0 328.5 -90.5t121.5 -243.5 q0 -143 -94 -239.5t-266 -127.5q110 -32 173.5 -114.5t63.5 -194.5q0 -195 -164 -327q-166 -134 -415 -134q-197 0 -396 80z" />
<glyph unicode="4" horiz-adv-x="1175" d="M4 326l31 159l823 936h232l-201 -944h205l-33 -151h-203l-70 -326h-188l70 326h-666zM205 477h504l172 785z" />
<glyph unicode="5" horiz-adv-x="1175" d="M41 37l37 174q150 -66 299 -66q191 0 311 97q117 94 117 252q0 123 -87 193.5t-241 70.5q-98 0 -272 -43l157 706h801l-30 -151h-627l-86 -389q103 20 166 20q187 0 303 -113q117 -114 117 -294q0 -227 -172 -371q-171 -143 -443 -143q-182 0 -350 57z" />
<glyph unicode="6" horiz-adv-x="1175" d="M98 498q0 191 53.5 371t147.5 311q91 125 223 192.5t285 67.5q166 0 344 -72l-51 -151q-129 75 -273 75q-193 0 -328 -139.5t-184 -394.5q146 143 330 143q174 0 287 -113q112 -109 112 -284q0 -223 -145 -377q-146 -152 -358 -152q-211 0 -327 136.5t-116 386.5z M287 410q0 -127 70.5 -207t183.5 -80q132 0 223 104q92 109 92 260q0 125 -71.5 201t-188.5 76q-130 0 -219 -102q-90 -104 -90 -252z" />
<glyph unicode="7" horiz-adv-x="1175" d="M125 0l838 1266h-701l33 155h901l-33 -170l-811 -1251h-227z" />
<glyph unicode="8" horiz-adv-x="1175" d="M55 365q0 150 104 255t290 142q-203 125 -203 311q0 159 131 266q133 109 334 109q186 0 301 -92q114 -88 114 -238q0 -135 -94.5 -230t-277.5 -145q274 -123 274 -352q0 -184 -141 -301q-142 -115 -373 -115q-211 0 -335 105.5t-124 284.5zM248 377q0 -109 77.5 -178.5 t200.5 -69.5q135 0 219 73.5t84 190.5q0 93 -53.5 158t-189.5 137q-162 -35 -250 -115.5t-88 -195.5zM438 1077q0 -152 172 -268q168 62 250 134t82 159q0 86 -69.5 144.5t-172.5 58.5q-109 0 -186 -68q-76 -67 -76 -160z" />
<glyph unicode="9" horiz-adv-x="1175" d="M27 57l53 154q131 -80 266 -80q201 0 332.5 140t181.5 403q-155 -146 -332 -146q-168 0 -282 117q-115 121 -115 293q0 213 148 358q151 148 366 148q202 0 317 -135t115 -373q0 -192 -51.5 -374.5t-142.5 -311.5q-92 -133 -226.5 -203t-294.5 -70q-181 0 -335 80z M324 946q0 -125 71 -199.5t189 -74.5q135 0 220 96.5t85 251.5q0 123 -72.5 200.5t-187.5 77.5q-128 0 -217 -102q-88 -101 -88 -250z" />
<glyph unicode=":" horiz-adv-x="821" d="M168 0l45 215h209l-45 -215h-209zM336 813l45 215h209l-45 -215h-209z" />
<glyph unicode=";" horiz-adv-x="821" d="M4 -258l211 469h217l-260 -469h-168zM336 815l45 213h207l-45 -213h-207z" />
<glyph unicode="&#x3c;" horiz-adv-x="1705" d="M264 547v129l1178 483v-153l-969 -396l969 -393v-154z" />
<glyph unicode="=" horiz-adv-x="1705" d="M254 342v139h1198v-139h-1198zM254 739v140h1198v-140h-1198z" />
<glyph unicode="&#x3e;" horiz-adv-x="1705" d="M264 63v154l971 393l-971 396v153l1178 -483v-129z" />
<glyph unicode="?" horiz-adv-x="1052" d="M193 0l47 211h211l-43 -211h-215zM264 1237l33 162q151 47 274 47q178 0 285 -89t107 -237q0 -95 -56 -184q-57 -91 -202 -215q-137 -121 -177 -182q-46 -70 -61 -152h-166q15 109 59 186q50 86 152 175l55 49q209 182 209 297q0 94 -70.5 147t-193.5 53q-125 0 -248 -57 z" />
<glyph unicode="@" horiz-adv-x="2048" d="M106 522q0 331 203 582q146 178 351 270t456 92q164 0 310.5 -45t252.5 -127q129 -100 197 -231t68 -283q0 -354 -248 -551q-136 -112 -316 -112q-200 0 -200 157v19q-110 -174 -301 -174q-153 0 -233.5 85t-80.5 247q0 238 137 393q139 160 340 160q168 0 242 -150 l57 115h132l-146 -576q-8 -31 -8 -59q0 -45 25.5 -69.5t74.5 -24.5q48 0 103.5 26.5t105.5 75.5q80 75 125 186t45 234q0 261 -190 420q-188 161 -500 161q-260 0 -457 -114q-191 -116 -296 -301.5t-105 -407.5q0 -178 61.5 -308t192.5 -230q101 -76 237 -118t287 -42 q167 0 327.5 49t293.5 141l55 -82q-299 -223 -664 -223q-379 0 -628 187q-306 236 -306 628zM725 446q0 -105 48 -162t138 -57q97 0 175 69t104 179l59 236q-17 88 -68.5 136t-129.5 48q-138 0 -232 -131q-94 -128 -94 -318z" />
<glyph unicode="A" horiz-adv-x="1396" d="M-109 0l873 1421h240l262 -1421h-201l-64 362h-673l-222 -362h-215zM418 524h555l-121 736z" />
<glyph unicode="B" horiz-adv-x="1189" d="M27 0l301 1421h344q221 0 335.5 -79.5t114.5 -233.5q0 -137 -92 -234t-256 -129q130 -29 191 -103t61 -202q0 -199 -158 -321q-155 -119 -424 -119h-417zM256 160h211q161 0 259.5 82.5t98.5 216.5q0 100 -73 155.5t-207 55.5h-183zM395 815h135q180 0 286 72t106 194 q0 91 -63.5 138t-186.5 47h-183z" />
<glyph unicode="C" horiz-adv-x="1273" d="M84 621q0 185 77 351.5t218 289.5q100 87 245 135.5t304 48.5q190 0 409 -74l-51 -170q-172 84 -360 84q-140 0 -263.5 -55t-211.5 -156q-73 -86 -115.5 -205t-42.5 -241q0 -219 131 -350q134 -134 346 -134q125 0 305 64l-18 -186q-169 -48 -320 -48q-299 0 -477 175 q-176 176 -176 471z" />
<glyph unicode="D" horiz-adv-x="1417" d="M25 0l303 1421h336q324 0 493.5 -154.5t169.5 -447.5q0 -215 -94 -399q-90 -181 -252 -285q-110 -72 -241 -103.5t-312 -31.5h-403zM268 166h168q295 0 443 121q109 88 175 236.5t66 307.5q0 209 -115.5 320t-332.5 111h-174z" />
<glyph unicode="E" horiz-adv-x="1071" d="M23 0l301 1421h780l-35 -157h-577l-95 -441h547l-33 -157h-546l-109 -508h606l-33 -158h-806z" />
<glyph unicode="F" horiz-adv-x="962" d="M23 0l301 1421h747l-35 -157h-544l-95 -447h523l-35 -162h-523l-139 -655h-200z" />
<glyph unicode="G" horiz-adv-x="1472" d="M94 625q0 178 73 340t204 280q109 98 267.5 150.5t348.5 52.5q201 0 420 -76l-55 -172q-177 86 -359 86q-313 0 -499 -180q-187 -178 -187 -473q0 -221 129 -359q129 -135 340 -135q125 0 234 33l94 455h-318l37 157h514l-159 -743q-183 -64 -400 -64q-148 0 -255 30 t-189 93q-117 91 -178.5 226t-61.5 299z" />
<glyph unicode="H" horiz-adv-x="1415" d="M25 0l301 1421h204l-127 -596h656l127 596h205l-304 -1421h-204l141 664h-655l-142 -664h-202z" />
<glyph unicode="I" horiz-adv-x="550" d="M23 0l301 1421h198l-303 -1421h-196z" />
<glyph unicode="J" horiz-adv-x="737" d="M-133 12l47 168q86 -28 139 -28q97 0 160 60.5t88 178.5l219 1030h203l-221 -1044q-43 -207 -151.5 -303.5t-297.5 -96.5q-86 0 -186 35z" />
<glyph unicode="K" horiz-adv-x="1286" d="M25 0l301 1421h200l-127 -608l693 608h266l-787 -669l553 -752h-235l-514 711l-150 -711h-200z" />
<glyph unicode="L" horiz-adv-x="964" d="M33 0l301 1421h205l-267 -1257h586l-33 -164h-792z" />
<glyph unicode="M" horiz-adv-x="1837" d="M12 0l303 1421h303l197 -1179l692 1179h318l-303 -1421h-191l268 1266l-745 -1266h-174l-217 1262l-260 -1262h-191z" />
<glyph unicode="N" horiz-adv-x="1462" d="M25 0l301 1421h249l422 -1192l248 1192h191l-303 -1421h-250l-418 1198l-252 -1198h-188z" />
<glyph unicode="O" horiz-adv-x="1509" d="M90 582q0 185 67.5 357t190.5 296q100 103 230.5 158t273.5 55q264 0 415.5 -155t151.5 -425q0 -203 -69.5 -382t-198.5 -308q-206 -203 -504 -203q-257 0 -407 164q-150 163 -150 443zM297 565q0 -201 98.5 -316.5t268.5 -115.5q114 0 208.5 54t180.5 165 q73 98 115 235.5t42 280.5q0 198 -98.5 313t-269.5 115q-100 0 -196 -49.5t-169 -140.5q-86 -105 -133 -248t-47 -293z" />
<glyph unicode="P" horiz-adv-x="1099" d="M12 0l301 1421h340q216 0 333.5 -95.5t117.5 -272.5q0 -213 -160 -340q-155 -125 -432 -125q-62 0 -172 4l-127 -592h-201zM375 756h6q78 -4 88 -4q223 0 327.5 72.5t104.5 226.5q0 215 -287 215h-133z" />
<glyph unicode="Q" horiz-adv-x="1509" d="M90 578q0 194 72 368.5t203 302.5q98 97 225 149t266 52q262 0 412 -156q151 -157 151 -422q0 -297 -133 -519t-383 -337l246 -286h-225l-201 245q-14 -2 -57 -2q-271 0 -423.5 160.5t-152.5 444.5zM297 565q0 -201 98.5 -316.5t268.5 -115.5q114 0 208.5 54t180.5 165 q73 98 115 235.5t42 280.5q0 198 -98.5 313t-269.5 115q-100 0 -196 -49.5t-169 -140.5q-86 -105 -133 -248t-47 -293z" />
<glyph unicode="R" horiz-adv-x="1189" d="M25 0l301 1421h381q202 0 309.5 -84.5t107.5 -242.5q0 -160 -104.5 -260t-296.5 -125q67 -25 102 -70.5t58 -140.5l112 -498h-198l-111 487q-19 86 -70 115q-54 31 -192 31h-66l-133 -633h-200zM393 793h6q18 -1 40 -2t36 -2t23 -1q201 0 308 73t107 208q0 94 -65 145.5 t-186 51.5h-170z" />
<glyph unicode="S" horiz-adv-x="1073" d="M-20 59l53 174q156 -92 323 -92q147 0 237.5 65.5t90.5 170.5q0 65 -37 129q-40 64 -155 145q-8 5 -64 45q-121 90 -173 172t-52 179q0 179 139 288t377 109q180 0 338 -68l-56 -170q-135 78 -280 78q-141 0 -223 -54.5t-82 -146.5q0 -63 33 -110q35 -50 141 -125 q200 -139 260 -227q57 -80 57 -193q0 -194 -155 -322q-153 -129 -390 -129q-224 0 -382 82z" />
<glyph unicode="T" horiz-adv-x="1054" d="M145 1262l33 159h1012l-33 -159h-407l-267 -1262h-202l268 1262h-404z" />
<glyph unicode="U" horiz-adv-x="1421" d="M123 408q0 110 33 262l159 751h203l-178 -833q-16 -78 -16 -148q0 -141 79.5 -226t210.5 -85q160 0 259 114t153 363l176 815h199l-174 -827q-68 -319 -222 -471t-411 -152q-207 0 -340 121q-131 119 -131 316z" />
<glyph unicode="V" horiz-adv-x="1296" d="M168 1421h197l167 -1251l695 1251h209l-824 -1421h-229z" />
<glyph unicode="W" horiz-adv-x="1941" d="M158 1421h192l62 -1257l575 1257h246l55 -1261l572 1261h206l-692 -1421h-239l-60 1264l-573 -1264h-246z" />
<glyph unicode="X" horiz-adv-x="1282" d="M-131 0l670 756l-334 665h215l256 -538l477 538h238l-600 -667l342 -754h-215l-269 618l-530 -618h-250z" />
<glyph unicode="Y" horiz-adv-x="1284" d="M150 1421h219l264 -669l547 669h235l-706 -835l-121 -586h-203l125 592z" />
<glyph unicode="Z" horiz-adv-x="1085" d="M-88 0l37 176l950 1088h-696l35 157h942l-35 -164l-971 -1097h754l-37 -160h-979z" />
<glyph unicode="[" horiz-adv-x="659" d="M-16 -266l387 1822h374l-26 -122h-203l-336 -1579h203l-25 -121h-374z" />
<glyph unicode="\" horiz-adv-x="569" d="M-37 1485h115l524 -1501h-115z" />
<glyph unicode="]" horiz-adv-x="659" d="M-111 -266l27 121h203l336 1581h-205l26 120h375l-389 -1822h-373z" />
<glyph unicode="^" horiz-adv-x="2048" d="M420 901l510 557h186l510 -557h-180l-422 420l-424 -420h-180z" />
<glyph unicode="_" d="M0 -340h1024v-143h-1024v143z" />
<glyph unicode="`" d="M373 1520h180l209 -355h-105z" />
<glyph unicode="a" horiz-adv-x="1079" d="M2 272q0 177 149 275t420 98q67 0 179 -10q6 69 6 70q0 103 -58 156.5t-168 53.5q-121 0 -307 -73l23 162q193 55 321 55q172 0 271.5 -85t99.5 -233q0 -63 -16 -157l-64 -312q-38 -195 -47 -272h-164l23 162q-140 -180 -344 -180q-146 0 -235 80.5t-89 209.5zM195 285 q0 -74 50 -119t132 -45q139 0 231 104.5t117 290.5q-9 0 -42 1t-65 1q-220 0 -321.5 -56t-101.5 -177z" />
<glyph unicode="b" horiz-adv-x="1230" d="M23 0l323 1530h191l-140 -639q134 164 330 164q177 0 275 -115t98 -322q0 -141 -49 -271.5t-136 -221.5q-139 -148 -333 -148q-127 0 -213 61t-115 171l-45 -209h-186zM305 424q0 -131 67 -211t177 -80q106 0 192 80q72 69 114 179t42 231q0 129 -61 202.5t-170 73.5 q-144 0 -252 -141q-109 -139 -109 -334z" />
<glyph unicode="c" horiz-adv-x="940" d="M37 459q0 124 46 237.5t132 194.5q85 82 194.5 121t260.5 39q146 0 278 -52l-47 -155q-140 51 -248 51q-175 0 -295 -123q-116 -119 -116 -301q0 -150 83 -240t222 -90q94 0 233 47l-22 -172q-130 -34 -273 -34q-200 0 -325 131q-123 132 -123 346z" />
<glyph unicode="d" horiz-adv-x="1202" d="M43 397q0 283 147 467q147 187 371 187q248 0 338 -222l145 701h189l-318 -1530h-174l35 172q-147 -197 -360 -197q-173 0 -273 113t-100 309zM244 397q0 -123 63 -195.5t168 -72.5q146 0 254 141q109 142 109 340q0 128 -68 206.5t-178 78.5q-145 0 -246 -143 q-102 -144 -102 -355z" />
<glyph unicode="e" horiz-adv-x="1085" d="M37 436q0 244 151 430q75 93 181 142t231 49q179 0 282 -107.5t103 -296.5q0 -95 -22 -186h-736q-2 -18 -2 -51q0 -141 80.5 -217t229.5 -76t286 70l-16 -162q-160 -60 -313 -60q-211 0 -333 124.5t-122 340.5zM252 602h555q6 25 6 70q0 118 -60.5 186t-164.5 68 q-116 0 -208.5 -89t-127.5 -235z" />
<glyph unicode="f" horiz-adv-x="735" d="M76 887l30 141h218l41 195q32 159 132.5 242t256.5 83q58 0 141 -24l-43 -150q-82 19 -104 19q-74 0 -124 -54.5t-73 -160.5l-33 -150h260l-30 -141h-261l-188 -887h-195l191 887h-219z" />
<glyph unicode="g" horiz-adv-x="1202" d="M-4 -369l51 162q158 -88 318 -88q180 0 279 114.5t134 360.5q-149 -196 -362 -196q-173 0 -272 111.5t-99 307.5q0 147 45 276.5t129 219.5q140 152 332 152q261 0 348 -222l41 199h190l-217 -1046q-89 -428 -544 -428q-178 0 -373 77zM244 397q0 -123 63 -195.5 t168 -72.5q146 0 254 141q109 142 109 340q0 128 -68 206.5t-178 78.5q-145 0 -246 -143q-102 -144 -102 -355z" />
<glyph unicode="h" horiz-adv-x="1202" d="M20 0l324 1530h193l-144 -662q141 179 342 179q149 0 235.5 -89.5t86.5 -244.5q0 -76 -23 -185l-110 -528h-197l121 563q14 82 14 125q0 97 -50 149t-142 52q-125 0 -217.5 -101.5t-130.5 -281.5l-107 -506h-195z" />
<glyph unicode="i" horiz-adv-x="512" d="M29 0l219 1032h188l-219 -1032h-188zM291 1282l45 213h205l-45 -213h-205z" />
<glyph unicode="j" horiz-adv-x="512" d="M-287 -410l43 146q52 -12 84 -12q68 0 104 42.5t62 159.5l236 1106h192l-239 -1132q-37 -173 -115 -250.5t-215 -77.5q-92 0 -152 18zM283 1282l47 213h205l-48 -213h-204z" />
<glyph unicode="k" horiz-adv-x="1075" d="M25 0l325 1530h189l-193 -909l494 411h237l-563 -459l408 -573h-215l-377 543l-115 -543h-190z" />
<glyph unicode="l" horiz-adv-x="512" d="M25 0l323 1530h193l-324 -1530h-192z" />
<glyph unicode="m" horiz-adv-x="1761" d="M10 0l217 1034h170l-37 -168q145 187 349 187q214 0 264 -219q141 221 356 221q141 0 219 -79.5t78 -225.5q0 -76 -10 -115l-137 -635h-191l131 610q11 57 11 101q0 86 -43 134t-121 48q-116 0 -195 -94.5t-117 -280.5l-110 -518h-191l127 602q15 76 15 119 q0 79 -43 125.5t-117 46.5q-117 0 -199 -92.5t-119 -265.5l-114 -535h-193z" />
<glyph unicode="n" horiz-adv-x="1202" d="M18 0l222 1038h176l-39 -184q149 199 360 199q146 0 233 -90t87 -242q0 -68 -25 -193l-110 -528h-197l121 563q14 60 14 129q0 92 -50 144.5t-138 52.5q-128 0 -221.5 -100.5t-131.5 -282.5l-106 -506h-195z" />
<glyph unicode="o" horiz-adv-x="1200" d="M43 430q0 257 172 453q69 78 181 125t233 47q213 0 332.5 -121.5t119.5 -337.5q0 -263 -174 -449q-160 -174 -413 -174q-205 0 -328 123q-123 126 -123 334zM244 438q0 -143 72.5 -228t195.5 -85q153 0 260 137q109 139 109 342q0 140 -72 222.5t-193 82.5 q-118 0 -213 -86q-75 -69 -117 -170.5t-42 -214.5z" />
<glyph unicode="p" horiz-adv-x="1230" d="M-68 -428l312 1466h174l-35 -180q147 197 360 197q173 0 273 -113t100 -311q0 -281 -147 -469q-147 -185 -371 -185q-249 0 -338 222l-133 -627h-195zM322 424q0 -130 67 -210.5t176 -80.5q107 0 193 80q72 69 114.5 180t42.5 230q0 129 -62 202.5t-171 73.5 q-144 0 -252 -141q-108 -138 -108 -334z" />
<glyph unicode="q" horiz-adv-x="1202" d="M51 412q0 141 48.5 272.5t133.5 222.5q137 146 334 146q127 0 213 -61t115 -171l47 209h184l-309 -1456h-186l123 565q-134 -164 -334 -164q-174 0 -271.5 115t-97.5 322zM252 397q0 -123 62 -194.5t167 -71.5q145 0 254 139q109 142 109 340q0 129 -67 208t-177 79 q-143 0 -246 -145q-102 -144 -102 -355z" />
<glyph unicode="r" horiz-adv-x="745" d="M18 0l218 1032h176l-35 -164q75 98 152 143.5t169 45.5q37 0 107 -17l-43 -178q-56 17 -103 17q-133 0 -210.5 -86t-120.5 -281l-111 -512h-199z" />
<glyph unicode="s" horiz-adv-x="854" d="M-49 33l51 162q122 -70 270 -70q116 0 180 45t64 127q0 43 -31 82q-25 35 -137 102l-6 4q-225 138 -225 269q0 136 108 219q113 84 287 84q129 0 299 -56l-51 -153q-111 63 -232 63q-102 0 -162.5 -36.5t-60.5 -98.5q0 -76 156 -164l86 -51q166 -104 166 -258 q0 -152 -117.5 -241t-319.5 -89q-179 0 -325 60z" />
<glyph unicode="t" horiz-adv-x="739" d="M55 883l31 149h209l53 252l207 66l-68 -318h263l-33 -149h-260l-111 -514q-14 -72 -14 -107q0 -57 32 -90t89 -33q24 0 110 21l-33 -154q-88 -18 -127 -18q-130 0 -198 62t-68 181q0 47 13 117l114 535h-209z" />
<glyph unicode="u" horiz-adv-x="1202" d="M76 307q0 99 22 193l113 528h195l-121 -563q-15 -77 -15 -129q0 -92 50.5 -144.5t138.5 -52.5q128 0 221 101.5t131 283.5l107 504h196l-221 -1028h-178l39 174q-152 -199 -361 -199q-146 0 -231.5 90t-85.5 242z" />
<glyph unicode="v" horiz-adv-x="997" d="M80 1032h192l107 -866l457 866h202l-589 -1042h-220z" />
<glyph unicode="w" horiz-adv-x="1671" d="M74 1032h188l62 -874l454 874h228l75 -876l430 876h203l-555 -1042h-223l-76 889l-454 -889h-232z" />
<glyph unicode="x" horiz-adv-x="999" d="M-113 0l469 547l-233 485h209l160 -366l309 366h229l-434 -485l242 -547h-209l-170 410l-348 -410h-224z" />
<glyph unicode="y" horiz-adv-x="993" d="M-176 -418l47 150q63 -19 96 -19q62 0 116 34.5t91 96.5l74 131l-166 1057h188l109 -854l446 854h207l-676 -1208q-84 -149 -167.5 -209.5t-200.5 -60.5q-66 0 -164 28z" />
<glyph unicode="z" horiz-adv-x="946" d="M-66 0l33 160l731 725h-548l30 147h785l-35 -162l-729 -723h587l-30 -147h-824z" />
<glyph unicode="{" d="M168 457v149q5 0 23 -1t22 -1q130 0 184 60.5t54 207.5v246q0 145 22 209q20 62 78 98q88 52 278 52h37v-150h-41q-122 0 -161 -45q-41 -47 -41 -184v-242q0 -161 -45 -229q-46 -71 -156 -97q111 -26 156 -96q45 -65 45 -229v-242q0 -140 41 -184q42 -45 163 -45h39v-148 h-43q-107 0 -168 11t-104 38q-58 36 -78 97q-22 68 -22 211v245q0 149 -54.5 210t-185.5 61q-4 0 -21.5 -1t-21.5 -1z" />
<glyph unicode="|" d="M438 -483v2048h150v-2048h-150z" />
<glyph unicode="}" d="M160 -266h39q122 0 161 45q43 46 43 186v240q0 160 43 227q47 72 158 98q-109 26 -158 97q-43 70 -43 229v242q0 138 -43 184q-39 45 -161 45h-39v150h37q193 0 278 -52q58 -36 78 -98q22 -64 22 -209v-246q0 -148 53.5 -208t184.5 -60q4 0 22 1t23 1v-149q-4 0 -21.5 1 t-21.5 1q-133 0 -186.5 -60.5t-53.5 -210.5v-245q0 -143 -22 -211q-20 -61 -78 -97q-43 -27 -104 -38t-168 -11h-43v148z" />
<glyph unicode="~" horiz-adv-x="1705" d="M178 451v155q212 144 387 144q118 0 291 -62l47 -16q158 -58 240 -58q87 0 178 37t209 119v-156q-204 -141 -389 -141q-97 0 -256 57l-33 13l-16 6q-177 59 -273 59q-86 0 -177 -36.5t-208 -120.5z" />
<glyph unicode="&#xa1;" horiz-adv-x="821" d="M147 0l248 1040h164l-192 -1040h-220zM406 1210l49 211h211l-45 -211h-215z" />
<glyph unicode="&#xa2;" horiz-adv-x="1175" d="M121 467q0 259 170 426q172 166 442 166h39l76 239l98 -2l-76 -245q89 -14 162 -41l-47 -158q-94 34 -164 43l-227 -743q8 -2 37 -2q100 0 231 47l-22 -172q-132 -33 -256 -33h-37l-86 -275h-99l87 283q-149 38 -238.5 166t-89.5 301zM324 473q0 -228 178 -301l225 731 q-179 -9 -293 -129q-110 -119 -110 -301z" />
<glyph unicode="&#xa3;" horiz-adv-x="1175" d="M4 0l33 160h205l114 542h-178l27 123h178q44 313 181.5 467t371.5 154q132 0 291 -55l-51 -156q-125 49 -215 49q-160 0 -249 -107t-130 -352h331l-26 -123h-332l-115 -542h500l-35 -160h-901z" />
<glyph unicode="&#xa4;" horiz-adv-x="1175" d="M49 532l43 109h150q3 98 18 186h-162l43 109h144q71 238 231 373q162 137 373 137q150 0 321 -74l-41 -170q-130 84 -282 84q-137 0 -239.5 -91.5t-153.5 -258.5h591l-43 -109h-575q-13 -85 -16 -186h563l-43 -109h-516q13 -190 92 -288.5t219 -98.5q104 0 238 64 l-15 -186q-130 -48 -250 -48q-221 0 -347.5 144t-145.5 413h-197z" />
<glyph unicode="&#xa5;" horiz-adv-x="1169" d="M0 555l25 111h383l-72 186h-273l23 109h213l-172 460h197l239 -678l492 678h217l-350 -460h229l-23 -109h-288l-138 -186h388l-25 -111h-434l-115 -555h-203l117 555h-430z" />
<glyph unicode="&#xa6;" d="M438 -350v758h150v-758h-150zM438 674v758h150v-758h-150z" />
<glyph unicode="&#xa7;" d="M-72 -164l62 154q164 -99 329 -99q129 0 203 49t74 134q0 59 -37 102q-40 47 -162 109q-186 101 -245 166q-56 65 -56 157q0 106 67 187.5t197 130.5q-124 89 -124 223t110 219q112 86 289 86t354 -74l-49 -139q-158 74 -281 74q-110 0 -176.5 -44.5t-66.5 -119.5 q0 -57 33 -96q33 -38 141 -97l37 -20q282 -150 282 -303q0 -93 -67.5 -175.5t-192.5 -144.5q131 -88 131 -235q0 -148 -127 -240q-125 -94 -329 -94q-186 0 -396 90zM272 631q0 -69 61.5 -122t221.5 -120q178 124 178 238q0 87 -211 198q-50 28 -57 31q-193 -102 -193 -225z " />
<glyph unicode="&#xa8;" d="M385 1235l41 192h172l-41 -192h-172zM719 1235l41 192h170l-41 -192h-170z" />
<glyph unicode="&#xa9;" horiz-adv-x="1705" d="M117 727q0 299 219 524q213 213 516 213q312 0 524 -215q104 -102 159.5 -238t55.5 -284q0 -306 -213 -516q-111 -107 -246 -164t-280 -57q-146 0 -279 56.5t-239 162.5q-105 104 -161 237.5t-56 280.5zM213 727q0 -261 190 -451q188 -188 451 -188q124 0 241 49t214 142 q184 178 184 448q0 269 -184 453q-188 188 -455 188q-264 0 -448 -184q-92 -92 -142.5 -211t-50.5 -246zM463 733q0 202 108 322q111 123 287 123q141 0 236.5 -75t105.5 -196h-147q-12 75 -65.5 117.5t-139.5 42.5q-105 0 -165 -90.5t-60 -249.5q0 -158 62 -245t173 -87 q82 0 136.5 47t68.5 129h145q-11 -131 -109 -211.5t-247 -80.5q-183 0 -286 119.5t-103 334.5z" />
<glyph unicode="&#xaa;" horiz-adv-x="808" d="M2 891q0 125 112 193.5t314 68.5q28 0 104 -6q25 0 31 -2q4 46 4 49q0 72 -44 109.5t-126 37.5q-98 0 -229 -51l16 113q137 39 242 39q129 0 204 -60t75 -163q0 -32 -13 -109l-49 -219q-25 -113 -35 -191h-123l17 113q-110 -125 -258 -125q-109 0 -175.5 56t-66.5 147z M145 899q0 -51 38.5 -83t99.5 -32q104 0 173.5 74t88.5 203q-23 2 -80 2q-166 0 -243 -39.5t-77 -124.5z" />
<glyph unicode="&#xab;" horiz-adv-x="1114" d="M84 528l371 408h196l-387 -418l305 -422h-178zM483 518l379 418h195l-395 -424l303 -416h-179z" />
<glyph unicode="&#xac;" horiz-adv-x="1705" d="M254 721v139h1198v-502h-137v363h-1061z" />
<glyph unicode="&#xad;" horiz-adv-x="677" d="M33 494l30 149h517l-31 -149h-516z" />
<glyph unicode="&#xae;" horiz-adv-x="1705" d="M117 727q0 147 57.5 283.5t165.5 244.5q99 102 230.5 155.5t281.5 53.5q152 0 286.5 -56.5t239.5 -162.5q103 -104 158 -238t55 -280q0 -306 -215 -518q-108 -105 -244.5 -162t-279.5 -57q-148 0 -281.5 56.5t-238.5 164.5q-105 106 -160 238t-55 278zM213 727 q0 -125 48 -240.5t140 -207.5q90 -92 206.5 -141.5t240.5 -49.5q262 0 459 188q90 87 138 202t48 243q0 281 -182 457q-187 190 -457 190q-129 0 -244.5 -47t-201.5 -135q-94 -94 -144.5 -213t-50.5 -246zM557 324v835h315q349 0 349 -229q0 -88 -50 -147t-141 -78l187 -381 h-177l-170 356h-155v-356h-158zM715 780h133q112 0 161.5 32t49.5 101q0 75 -51.5 109.5t-163.5 34.5h-129v-277z" />
<glyph unicode="&#xaf;" d="M375 1266l28 129h539l-29 -129h-538z" />
<glyph unicode="&#xb0;" horiz-adv-x="673" d="M49 1167q0 119 84 203q83 86 205 86q120 0 203 -86q84 -84 84 -203q0 -118 -84 -202t-205 -84q-123 0 -205 82t-82 204zM143 1169q0 -82 56.5 -139t138.5 -57q81 0 136.5 57t55.5 139q0 80 -55.5 136.5t-136.5 56.5t-138 -56.5t-57 -136.5z" />
<glyph unicode="&#xb1;" horiz-adv-x="1705" d="M254 29v141h1198v-141h-1198zM254 713v139h528v340h142v-340h528v-139h-528v-340h-142v340h-528z" />
<glyph unicode="&#xb2;" horiz-adv-x="776" d="M-4 569l22 93l342 266q111 88 162 154.5t51 123.5q0 62 -43.5 97.5t-121.5 35.5q-93 0 -218 -67l13 117q125 49 237 49q125 0 197 -58.5t72 -162.5q0 -78 -53 -154.5t-169 -163.5l-303 -233h430l-24 -97h-594z" />
<glyph unicode="&#xb3;" horiz-adv-x="776" d="M-18 602l30 100q112 -47 213 -47q117 0 192 51.5t75 131.5q0 68 -61.5 103.5t-178.5 35.5h-45l20 92q15 -1 31.5 -2t26 -1.5t16.5 -0.5q130 0 203.5 39t73.5 108q0 60 -51 94.5t-142 34.5q-104 0 -209 -45l12 105q110 37 222 37q136 0 216.5 -55t80.5 -146 q0 -86 -61.5 -143.5t-176.5 -77.5q74 -19 116 -68.5t42 -116.5q0 -116 -109 -196t-274 -80q-131 0 -262 47z" />
<glyph unicode="&#xb4;" d="M485 1165l242 355h191l-324 -355h-109z" />
<glyph unicode="&#xb5;" horiz-adv-x="1150" d="M-113 -428l318 1499h180l-129 -600q-14 -75 -14 -133q0 -99 52 -153t148 -54q131 0 208 92.5t124 311.5l115 536h178l-156 -731q-1 -2 -1.5 -5t-1 -7.5t-1.5 -8.5q-18 -88 -18 -112q0 -37 17 -52.5t55 -15.5q22 0 32 2l-30 -143q-55 -10 -109 -10q-63 0 -96.5 28.5 t-52.5 100.5q-88 -131 -271 -131q-160 0 -256 116l-110 -530h-181z" />
<glyph unicode="&#xb6;" d="M66 1130q0 156 107.5 252.5t285.5 96.5h499v-86h-120v-1393h-111v1393h-176v-1393h-113v782q-170 8 -271 102t-101 246z" />
<glyph unicode="&#xb7;" horiz-adv-x="587" d="M182 711q0 49 32.5 81.5t80.5 32.5q50 0 82.5 -32.5t32.5 -81.5q0 -47 -34 -80t-81 -33t-80 34t-33 79z" />
<glyph unicode="&#xb8;" d="M119 -422l33 92q128 -41 219 -41q60 0 94.5 26t34.5 69q0 49 -36.5 68.5t-129.5 19.5h-35l63 188h78l-34 -104h14q103 0 158 -42t55 -120q0 -94 -65 -149.5t-177 -55.5q-110 0 -272 49z" />
<glyph unicode="&#xb9;" horiz-adv-x="776" d="M188 1266l301 155h93l-199 -852h-123l174 727l-184 -114z" />
<glyph unicode="&#xba;" horiz-adv-x="901" d="M33 1001q0 177 129 318q51 56 134.5 88.5t174.5 32.5q160 0 250 -85t90 -237q0 -187 -131 -315q-124 -121 -309 -121q-156 0 -247 86t-91 233zM182 1008q0 -100 55.5 -160t147.5 -60q113 0 195 97q82 98 82 239q0 97 -54 155t-145 58q-90 0 -160 -61q-57 -47 -89 -118 t-32 -150z" />
<glyph unicode="&#xbb;" horiz-adv-x="1114" d="M-14 94l395 424l-303 418h180l301 -424l-379 -418h-194zM391 94l387 418l-305 424h178l307 -434l-370 -408h-197z" />
<glyph unicode="&#xbc;" horiz-adv-x="1822" d="M180 1276l287 145h88l-188 -796h-119l168 678l-178 -107zM465 -27l756 1475h137l-754 -1475h-139zM1085 182l21 90l518 525h145l-127 -531h130l-21 -84h-127l-43 -182h-119l43 182h-420zM1212 266h318l108 441z" />
<glyph unicode="&#xbd;" horiz-adv-x="1822" d="M180 1276l287 145h88l-188 -796h-119l168 678l-178 -107zM465 -27l756 1475h137l-754 -1475h-139zM1079 0l21 86l327 250q106 80 154.5 141.5t48.5 116.5q0 60 -41.5 92.5t-115.5 32.5q-85 0 -207 -64l12 109q116 45 225 45q121 0 188.5 -54t67.5 -151q0 -145 -211 -297 l-288 -217h409l-22 -90h-568z" />
<glyph unicode="&#xbe;" horiz-adv-x="1822" d="M-16 655l28 93q94 -43 203 -43q112 0 183 47.5t71 121.5q0 63 -58.5 97.5t-170.5 34.5q-33 0 -43 -2l20 86q8 0 35.5 -1.5t34.5 -1.5q125 0 194.5 36t69.5 102q0 56 -49 88.5t-133 32.5q-92 0 -201 -41l12 96q98 33 211 33q129 0 206 -51t77 -136q0 -80 -58.5 -133 t-166.5 -72q69 -19 109 -65t40 -109q0 -108 -104 -184q-106 -74 -263 -74q-119 0 -247 45zM465 -27l756 1475h137l-754 -1475h-139zM1085 182l21 90l518 525h145l-127 -531h130l-21 -84h-127l-43 -182h-119l43 182h-420zM1212 266h318l108 441z" />
<glyph unicode="&#xbf;" horiz-adv-x="1052" d="M80 301q0 96 55 184q63 95 201 213q123 105 176 181q50 70 66 157h163q-15 -105 -59 -186q-45 -82 -150 -174l-59 -51q-205 -181 -205 -295q0 -93 70.5 -147t193.5 -54q119 0 248 55l-32 -161q-148 -46 -275 -46q-178 0 -285.5 89t-107.5 235zM594 1210l43 211h215 l-47 -211h-211z" />
<glyph unicode="&#xc0;" horiz-adv-x="1396" d="M-109 0l873 1421h240l262 -1421h-201l-64 362h-673l-222 -362h-215zM418 524h555l-121 736zM602 1896h180l209 -354h-104z" />
<glyph unicode="&#xc1;" horiz-adv-x="1396" d="M-109 0l873 1421h240l262 -1421h-201l-64 362h-673l-222 -362h-215zM418 524h555l-121 736zM715 1542l241 354h191l-324 -354h-108z" />
<glyph unicode="&#xc2;" horiz-adv-x="1396" d="M-109 0l873 1421h240l262 -1421h-201l-64 362h-673l-222 -362h-215zM418 524h555l-121 736zM565 1542l266 354h166l146 -354h-99l-139 236l-231 -236h-109z" />
<glyph unicode="&#xc3;" horiz-adv-x="1396" d="M-109 0l873 1421h240l262 -1421h-201l-64 362h-673l-222 -362h-215zM418 524h555l-121 736zM590 1589q35 109 82 157t119 48q31 0 65 -10l86 -27q39 -10 55 -10q70 0 97 76h90q-35 -108 -82 -154.5t-121 -46.5q-43 0 -74 10l-84 29q-21 8 -49 8q-72 0 -94 -80h-90z" />
<glyph unicode="&#xc4;" horiz-adv-x="1396" d="M-109 0l873 1421h240l262 -1421h-201l-64 362h-673l-222 -362h-215zM418 524h555l-121 736zM614 1612l41 192h172l-41 -192h-172zM948 1612l41 192h170l-41 -192h-170z" />
<glyph unicode="&#xc5;" horiz-adv-x="1396" d="M-109 0l873 1421h240l262 -1421h-201l-64 362h-673l-222 -362h-215zM418 524h555l-121 736zM645 1747q0 104 73 176t177 72q105 0 176 -74q74 -71 74 -174q0 -104 -74 -178q-72 -72 -176 -72q-103 0 -178 72q-72 75 -72 178zM750 1745q0 -62 42 -104t103 -42t103 42 t42 104q0 61 -42.5 104t-102.5 43q-62 0 -103.5 -42t-41.5 -105z" />
<glyph unicode="&#xc6;" horiz-adv-x="1878" d="M-106 0l999 1421h995l-35 -157h-610l-59 -441h545l-33 -157h-537l-74 -508h562l-33 -158h-754l51 360h-546l-252 -360h-219zM467 520h473l107 760h-50z" />
<glyph unicode="&#xc7;" horiz-adv-x="1273" d="M84 621q0 185 77 351.5t218 289.5q100 87 245 135.5t304 48.5q190 0 409 -74l-51 -170q-172 84 -360 84q-140 0 -263.5 -55t-211.5 -156q-73 -86 -115.5 -205t-42.5 -241q0 -219 131 -350q134 -134 346 -134q125 0 305 64l-18 -186q-169 -48 -320 -48q-299 0 -477 175 q-176 176 -176 471zM391 -422l33 92q128 -41 219 -41q60 0 94.5 26t34.5 69q0 49 -36.5 68.5t-129.5 19.5h-35l64 188h78l-35 -104h14q103 0 158 -42t55 -120q0 -94 -65.5 -149.5t-175.5 -55.5q-116 0 -273 49z" />
<glyph unicode="&#xc8;" horiz-adv-x="1071" d="M23 0l301 1421h780l-35 -157h-577l-95 -441h547l-33 -157h-546l-109 -508h606l-33 -158h-806zM440 1896h181l208 -354h-104z" />
<glyph unicode="&#xc9;" horiz-adv-x="1071" d="M23 0l301 1421h780l-35 -157h-577l-95 -441h547l-33 -157h-546l-109 -508h606l-33 -158h-806zM553 1542l242 354h190l-323 -354h-109z" />
<glyph unicode="&#xca;" horiz-adv-x="1071" d="M23 0l301 1421h780l-35 -157h-577l-95 -441h547l-33 -157h-546l-109 -508h606l-33 -158h-806zM403 1542l267 354h166l145 -354h-98l-140 236l-231 -236h-109z" />
<glyph unicode="&#xcb;" horiz-adv-x="1071" d="M23 0l301 1421h780l-35 -157h-577l-95 -441h547l-33 -157h-546l-109 -508h606l-33 -158h-806zM453 1612l41 192h172l-41 -192h-172zM786 1612l41 192h170l-41 -192h-170z" />
<glyph unicode="&#xcc;" horiz-adv-x="550" d="M23 0l301 1421h198l-303 -1421h-196zM180 1896h180l209 -354h-104z" />
<glyph unicode="&#xcd;" horiz-adv-x="550" d="M23 0l301 1421h198l-303 -1421h-196zM293 1542l242 354h190l-324 -354h-108z" />
<glyph unicode="&#xce;" horiz-adv-x="550" d="M23 0l301 1421h198l-303 -1421h-196zM143 1542l267 354h165l146 -354h-98l-140 236l-231 -236h-109z" />
<glyph unicode="&#xcf;" horiz-adv-x="550" d="M23 0l301 1421h198l-303 -1421h-196zM193 1612l40 192h173l-41 -192h-172zM526 1612l41 192h170l-41 -192h-170z" />
<glyph unicode="&#xd0;" horiz-adv-x="1421" d="M-8 672l26 131h185l131 618h336q324 0 494.5 -153.5t170.5 -446.5q0 -214 -94 -401q-93 -182 -254 -285q-110 -72 -240 -103.5t-313 -31.5h-401l143 672h-184zM274 166h170q293 0 441 121q109 88 175 236.5t66 307.5q0 209 -115.5 320t-332.5 111h-174l-94 -459h319 l-29 -131h-319z" />
<glyph unicode="&#xd1;" horiz-adv-x="1462" d="M25 0l301 1421h249l422 -1192l248 1192h191l-303 -1421h-250l-418 1198l-252 -1198h-188zM623 1589q35 109 81.5 157t118.5 48q32 0 66 -10l86 -27q39 -10 55 -10q69 0 96 76h91q-35 -108 -82 -154.5t-121 -46.5q-43 0 -74 10l-84 29q-19 8 -49 8q-69 0 -94 -80h-90z" />
<glyph unicode="&#xd2;" horiz-adv-x="1509" d="M90 582q0 185 67.5 357t190.5 296q100 103 230.5 158t273.5 55q264 0 415.5 -155t151.5 -425q0 -203 -69.5 -382t-198.5 -308q-206 -203 -504 -203q-257 0 -407 164q-150 163 -150 443zM297 565q0 -201 98.5 -316.5t268.5 -115.5q114 0 208.5 54t180.5 165 q73 98 115 235.5t42 280.5q0 198 -98.5 313t-269.5 115q-100 0 -196 -49.5t-169 -140.5q-86 -105 -133 -248t-47 -293zM659 1896h181l209 -354h-105z" />
<glyph unicode="&#xd3;" horiz-adv-x="1509" d="M90 582q0 185 67.5 357t190.5 296q100 103 230.5 158t273.5 55q264 0 415.5 -155t151.5 -425q0 -203 -69.5 -382t-198.5 -308q-206 -203 -504 -203q-257 0 -407 164q-150 163 -150 443zM297 565q0 -201 98.5 -316.5t268.5 -115.5q114 0 208.5 54t180.5 165 q73 98 115 235.5t42 280.5q0 198 -98.5 313t-269.5 115q-100 0 -196 -49.5t-169 -140.5q-86 -105 -133 -248t-47 -293zM772 1542l242 354h190l-323 -354h-109z" />
<glyph unicode="&#xd4;" horiz-adv-x="1509" d="M90 582q0 185 67.5 357t190.5 296q100 103 230.5 158t273.5 55q264 0 415.5 -155t151.5 -425q0 -203 -69.5 -382t-198.5 -308q-206 -203 -504 -203q-257 0 -407 164q-150 163 -150 443zM297 565q0 -201 98.5 -316.5t268.5 -115.5q114 0 208.5 54t180.5 165 q73 98 115 235.5t42 280.5q0 198 -98.5 313t-269.5 115q-100 0 -196 -49.5t-169 -140.5q-86 -105 -133 -248t-47 -293zM623 1542l266 354h166l145 -354h-98l-139 236l-232 -236h-108z" />
<glyph unicode="&#xd5;" horiz-adv-x="1509" d="M90 582q0 185 67.5 357t190.5 296q100 103 230.5 158t273.5 55q264 0 415.5 -155t151.5 -425q0 -203 -69.5 -382t-198.5 -308q-206 -203 -504 -203q-257 0 -407 164q-150 163 -150 443zM297 565q0 -201 98.5 -316.5t268.5 -115.5q114 0 208.5 54t180.5 165 q73 98 115 235.5t42 280.5q0 198 -98.5 313t-269.5 115q-100 0 -196 -49.5t-169 -140.5q-86 -105 -133 -248t-47 -293zM647 1589q35 109 82 157t119 48q34 0 65 -10l86 -27q39 -10 56 -10q72 0 96 76h90q-35 -108 -82 -154.5t-121 -46.5q-42 0 -71 10l-86 29q-19 8 -50 8 q-32 0 -57 -21t-37 -59h-90z" />
<glyph unicode="&#xd6;" horiz-adv-x="1509" d="M90 582q0 185 67.5 357t190.5 296q100 103 230.5 158t273.5 55q264 0 415.5 -155t151.5 -425q0 -203 -69.5 -382t-198.5 -308q-206 -203 -504 -203q-257 0 -407 164q-150 163 -150 443zM297 565q0 -201 98.5 -316.5t268.5 -115.5q114 0 208.5 54t180.5 165 q73 98 115 235.5t42 280.5q0 198 -98.5 313t-269.5 115q-100 0 -196 -49.5t-169 -140.5q-86 -105 -133 -248t-47 -293zM672 1612l41 192h172l-41 -192h-172zM1006 1612l41 192h170l-41 -192h-170z" />
<glyph unicode="&#xd7;" horiz-adv-x="1705" d="M293 141l469 469l-469 469l98 99l469 -469l469 469l98 -99l-469 -469l469 -469l-98 -96l-469 467l-469 -467z" />
<glyph unicode="&#xd8;" horiz-adv-x="1509" d="M57 -92l174 237q-141 176 -141 437q0 190 72 364.5t203 302.5q210 201 499 201q134 0 260 -55l152 204l98 -75l-139 -197q184 -163 184 -457q0 -209 -72.5 -390t-207.5 -312q-205 -193 -492 -193q-183 0 -317 88l-174 -235zM295 567q0 -151 55 -258l674 944 q-68 45 -160 45q-242 0 -389 -190q-86 -109 -133 -250t-47 -291zM432 207q98 -76 225 -76q230 0 398 219q73 97 115 233t42 277q0 217 -94 305z" />
<glyph unicode="&#xd9;" horiz-adv-x="1421" d="M123 408q0 110 33 262l159 751h203l-178 -833q-16 -78 -16 -148q0 -141 79.5 -226t210.5 -85q160 0 259 114t153 363l176 815h199l-174 -827q-68 -319 -222 -471t-411 -152q-207 0 -340 121q-131 119 -131 316zM614 1896h181l209 -354h-105z" />
<glyph unicode="&#xda;" horiz-adv-x="1421" d="M123 408q0 110 33 262l159 751h203l-178 -833q-16 -78 -16 -148q0 -141 79.5 -226t210.5 -85q160 0 259 114t153 363l176 815h199l-174 -827q-68 -319 -222 -471t-411 -152q-207 0 -340 121q-131 119 -131 316zM727 1542l242 354h190l-323 -354h-109z" />
<glyph unicode="&#xdb;" horiz-adv-x="1421" d="M123 408q0 110 33 262l159 751h203l-178 -833q-16 -78 -16 -148q0 -141 79.5 -226t210.5 -85q160 0 259 114t153 363l176 815h199l-174 -827q-68 -319 -222 -471t-411 -152q-207 0 -340 121q-131 119 -131 316zM578 1542l266 354h166l145 -354h-98l-139 236l-232 -236 h-108z" />
<glyph unicode="&#xdc;" horiz-adv-x="1421" d="M123 408q0 110 33 262l159 751h203l-178 -833q-16 -78 -16 -148q0 -141 79.5 -226t210.5 -85q160 0 259 114t153 363l176 815h199l-174 -827q-68 -319 -222 -471t-411 -152q-207 0 -340 121q-131 119 -131 316zM627 1612l41 192h172l-41 -192h-172zM961 1612l40 192h170 l-41 -192h-169z" />
<glyph unicode="&#xdd;" horiz-adv-x="1284" d="M150 1421h219l264 -669l547 669h235l-706 -835l-121 -586h-203l125 592zM659 1542l242 354h191l-324 -354h-109z" />
<glyph unicode="&#xde;" horiz-adv-x="1093" d="M6 0l301 1421h199l-60 -293h140q217 0 333.5 -95.5t116.5 -272.5q0 -222 -163 -344.5t-459 -122.5q-13 0 -59.5 2.5t-84.5 3.5l-61 -299h-203zM305 463q94 -4 96 -4q222 0 326 72.5t104 226.5q0 215 -284 215h-133z" />
<glyph unicode="&#xdf;" horiz-adv-x="1189" d="M8 0l230 1079q51 239 176.5 352t339.5 113q170 0 271 -95.5t101 -256.5q0 -146 -90.5 -247.5t-249.5 -133.5q269 -65 269 -319q0 -220 -140 -363q-138 -141 -354 -141q-129 0 -233 35l43 151q96 -35 170 -35q141 0 227 94t86 246q0 123 -68 187.5t-198 64.5q-14 0 -29 -1 t-18 -1l32 152q172 4 267.5 86t95.5 225q0 96 -55.5 151.5t-149.5 55.5q-121 0 -193.5 -86t-113.5 -277l-219 -1036h-197z" />
<glyph unicode="&#xe0;" horiz-adv-x="1079" d="M2 272q0 177 149 275t420 98q67 0 179 -10q6 69 6 70q0 103 -58 156.5t-168 53.5q-121 0 -307 -73l23 162q193 55 321 55q172 0 271.5 -85t99.5 -233q0 -63 -16 -157l-64 -312q-38 -195 -47 -272h-164l23 162q-140 -180 -344 -180q-146 0 -235 80.5t-89 209.5zM195 285 q0 -74 50 -119t132 -45q139 0 231 104.5t117 290.5q-9 0 -42 1t-65 1q-220 0 -321.5 -56t-101.5 -177zM360 1520h181l209 -355h-105z" />
<glyph unicode="&#xe1;" horiz-adv-x="1079" d="M2 272q0 177 149 275t420 98q67 0 179 -10q6 69 6 70q0 103 -58 156.5t-168 53.5q-121 0 -307 -73l23 162q193 55 321 55q172 0 271.5 -85t99.5 -233q0 -63 -16 -157l-64 -312q-38 -195 -47 -272h-164l23 162q-140 -180 -344 -180q-146 0 -235 80.5t-89 209.5zM195 285 q0 -74 50 -119t132 -45q139 0 231 104.5t117 290.5q-9 0 -42 1t-65 1q-220 0 -321.5 -56t-101.5 -177zM473 1165l242 355h190l-323 -355h-109z" />
<glyph unicode="&#xe2;" horiz-adv-x="1079" d="M2 272q0 177 149 275t420 98q67 0 179 -10q6 69 6 70q0 103 -58 156.5t-168 53.5q-121 0 -307 -73l23 162q193 55 321 55q172 0 271.5 -85t99.5 -233q0 -63 -16 -157l-64 -312q-38 -195 -47 -272h-164l23 162q-140 -180 -344 -180q-146 0 -235 80.5t-89 209.5zM195 285 q0 -74 50 -119t132 -45q139 0 231 104.5t117 290.5q-9 0 -42 1t-65 1q-220 0 -321.5 -56t-101.5 -177zM324 1165l266 355h166l145 -355h-98l-139 236l-232 -236h-108z" />
<glyph unicode="&#xe3;" horiz-adv-x="1079" d="M2 272q0 177 149 275t420 98q67 0 179 -10q6 69 6 70q0 103 -58 156.5t-168 53.5q-121 0 -307 -73l23 162q193 55 321 55q172 0 271.5 -85t99.5 -233q0 -63 -16 -157l-64 -312q-38 -195 -47 -272h-164l23 162q-140 -180 -344 -180q-146 0 -235 80.5t-89 209.5zM195 285 q0 -74 50 -119t132 -45q139 0 231 104.5t117 290.5q-9 0 -42 1t-65 1q-220 0 -321.5 -56t-101.5 -177zM348 1212q35 109 82 157t119 48q23 0 65 -10l86 -27q39 -10 56 -10q72 0 96 76h90q-35 -108 -82 -154.5t-121 -46.5q-42 0 -71 10l-86 29q-19 8 -50 8q-32 0 -57 -21 t-37 -59h-90z" />
<glyph unicode="&#xe4;" horiz-adv-x="1079" d="M2 272q0 177 149 275t420 98q67 0 179 -10q6 69 6 70q0 103 -58 156.5t-168 53.5q-121 0 -307 -73l23 162q193 55 321 55q172 0 271.5 -85t99.5 -233q0 -63 -16 -157l-64 -312q-38 -195 -47 -272h-164l23 162q-140 -180 -344 -180q-146 0 -235 80.5t-89 209.5zM195 285 q0 -74 50 -119t132 -45q139 0 231 104.5t117 290.5q-9 0 -42 1t-65 1q-220 0 -321.5 -56t-101.5 -177zM373 1235l41 192h172l-41 -192h-172zM707 1235l41 192h170l-41 -192h-170z" />
<glyph unicode="&#xe5;" horiz-adv-x="1079" d="M2 272q0 177 149 275t420 98q67 0 179 -10q6 69 6 70q0 103 -58 156.5t-168 53.5q-121 0 -307 -73l23 162q193 55 321 55q172 0 271.5 -85t99.5 -233q0 -63 -16 -157l-64 -312q-38 -195 -47 -272h-164l23 162q-140 -180 -344 -180q-146 0 -235 80.5t-89 209.5zM195 285 q0 -73 51 -118.5t133 -45.5q137 0 229 105.5t117 289.5q-9 0 -42 1t-65 1q-220 0 -321.5 -56t-101.5 -177zM377 1395q0 104 72 175.5t176 71.5t176.5 -71.5t72.5 -175.5q0 -105 -73 -178q-72 -72 -176 -72t-176 73t-72 177zM479 1395q0 -63 42 -105.5t104 -42.5t104.5 42.5 t42.5 103.5q0 62 -42 104.5t-103 42.5q-62 0 -105 -42t-43 -103z" />
<glyph unicode="&#xe6;" horiz-adv-x="1699" d="M29 268q0 174 152.5 270.5t428.5 96.5q91 0 140 -6q6 25 6 69q0 103 -57 159t-160 56q-91 0 -281 -71l23 162q195 53 288 53q122 0 199.5 -41t120.5 -127q129 168 354 168q158 0 256 -107q98 -104 98 -274q0 -59 -16 -187h-688q0 -5 -1 -21t-1 -34q0 -149 75.5 -229 t215.5 -80q143 0 262 68l-12 -162q-146 -60 -297 -60q-139 0 -236 64t-141 186q-136 -239 -404 -239q-146 0 -235.5 79t-89.5 207zM221 283q0 -72 49.5 -117t128.5 -45q124 0 209 100t117 285q-25 2 -92 2q-203 0 -307.5 -57t-104.5 -168zM922 621h512q4 36 4 67 q0 106 -59.5 172t-155.5 66q-106 0 -188 -83t-113 -222z" />
<glyph unicode="&#xe7;" horiz-adv-x="940" d="M37 459q0 124 46 237.5t132 194.5q85 82 194.5 121t260.5 39q146 0 278 -52l-47 -155q-140 51 -248 51q-175 0 -295 -123q-116 -119 -116 -301q0 -150 83 -240t222 -90q94 0 233 47l-22 -172q-130 -34 -273 -34q-200 0 -325 131q-123 132 -123 346zM109 -422l32 92 q128 -41 219 -41q60 0 94.5 26t34.5 69q0 49 -36.5 68.5t-128.5 19.5h-35l63 188h78l-35 -104h15q103 0 158 -42t55 -120q0 -94 -65 -149.5t-177 -55.5q-110 0 -272 49z" />
<glyph unicode="&#xe8;" horiz-adv-x="1085" d="M37 436q0 244 151 430q75 93 181 142t231 49q179 0 282 -107.5t103 -296.5q0 -95 -22 -186h-736q-2 -18 -2 -51q0 -141 80.5 -217t229.5 -76t286 70l-16 -162q-160 -60 -313 -60q-211 0 -333 124.5t-122 340.5zM252 602h555q6 25 6 70q0 118 -60.5 186t-164.5 68 q-116 0 -208.5 -89t-127.5 -235zM403 1520h181l209 -355h-105z" />
<glyph unicode="&#xe9;" horiz-adv-x="1085" d="M37 436q0 244 151 430q75 93 181 142t231 49q179 0 282 -107.5t103 -296.5q0 -95 -22 -186h-736q-2 -18 -2 -51q0 -141 80.5 -217t229.5 -76t286 70l-16 -162q-160 -60 -313 -60q-211 0 -333 124.5t-122 340.5zM252 602h555q6 25 6 70q0 118 -60.5 186t-164.5 68 q-116 0 -208.5 -89t-127.5 -235zM516 1165l242 355h190l-323 -355h-109z" />
<glyph unicode="&#xea;" horiz-adv-x="1085" d="M37 436q0 244 151 430q75 93 181 142t231 49q179 0 282 -107.5t103 -296.5q0 -95 -22 -186h-736q-2 -18 -2 -51q0 -141 80.5 -217t229.5 -76t286 70l-16 -162q-160 -60 -313 -60q-211 0 -333 124.5t-122 340.5zM252 602h555q6 25 6 70q0 118 -60.5 186t-164.5 68 q-116 0 -208.5 -89t-127.5 -235zM367 1165l266 355h166l145 -355h-98l-139 236l-232 -236h-108z" />
<glyph unicode="&#xeb;" horiz-adv-x="1085" d="M37 436q0 244 151 430q75 93 181 142t231 49q179 0 282 -107.5t103 -296.5q0 -95 -22 -186h-736q-2 -18 -2 -51q0 -141 80.5 -217t229.5 -76t286 70l-16 -162q-160 -60 -313 -60q-211 0 -333 124.5t-122 340.5zM252 602h555q6 25 6 70q0 118 -60.5 186t-164.5 68 q-116 0 -208.5 -89t-127.5 -235zM416 1235l41 192h172l-41 -192h-172zM750 1235l41 192h170l-41 -192h-170z" />
<glyph unicode="&#xec;" horiz-adv-x="512" d="M29 0l219 1032h188l-219 -1032h-188zM117 1520h180l209 -355h-105z" />
<glyph unicode="&#xed;" horiz-adv-x="512" d="M29 0l219 1032h188l-219 -1032h-188zM229 1165l242 355h191l-324 -355h-109z" />
<glyph unicode="&#xee;" horiz-adv-x="512" d="M29 0l219 1032h188l-219 -1032h-188zM80 1165l266 355h166l145 -355h-98l-139 236l-232 -236h-108z" />
<glyph unicode="&#xef;" horiz-adv-x="512" d="M29 0l219 1032h188l-219 -1032h-188zM129 1235l41 192h172l-41 -192h-172zM463 1235l41 192h170l-41 -192h-170z" />
<glyph unicode="&#xf0;" horiz-adv-x="1200" d="M53 416q0 140 52.5 264.5t150.5 218.5q147 141 371 141q97 0 176 -39q-85 161 -172 273l-295 -92l-35 106l252 80q-95 102 -162 164h223l4 -4l101 -111l248 76l39 -102l-209 -66q286 -364 286 -704q0 -285 -165 -465q-166 -181 -429 -181q-199 0 -317.5 119.5 t-118.5 321.5zM242 438q0 -141 73.5 -227t194.5 -86q153 0 262 139t109 340q0 140 -72 222.5t-193 82.5q-118 0 -213 -86q-75 -69 -118 -171t-43 -214z" />
<glyph unicode="&#xf1;" horiz-adv-x="1202" d="M18 0l222 1038h176l-39 -184q149 199 360 199q146 0 233 -90t87 -242q0 -68 -25 -193l-110 -528h-197l121 563q14 60 14 129q0 92 -50 144.5t-138 52.5q-128 0 -221.5 -100.5t-131.5 -282.5l-106 -506h-195zM451 1212q35 109 81.5 157t118.5 48q21 0 66 -10l86 -27 q39 -10 55 -10q69 0 96 76h90q-35 -109 -81.5 -155t-120.5 -46q-43 0 -74 10l-84 29q-19 8 -49 8q-69 0 -94 -80h-90z" />
<glyph unicode="&#xf2;" horiz-adv-x="1200" d="M43 430q0 257 172 453q69 78 181 125t233 47q213 0 332.5 -121.5t119.5 -337.5q0 -263 -174 -449q-160 -174 -413 -174q-205 0 -328 123q-123 126 -123 334zM244 438q0 -143 72.5 -228t195.5 -85q153 0 260 137q109 139 109 342q0 140 -72 222.5t-193 82.5 q-118 0 -213 -86q-75 -69 -117 -170.5t-42 -214.5zM461 1520h180l209 -355h-105z" />
<glyph unicode="&#xf3;" horiz-adv-x="1200" d="M43 430q0 257 172 453q69 78 181 125t233 47q213 0 332.5 -121.5t119.5 -337.5q0 -263 -174 -449q-160 -174 -413 -174q-205 0 -328 123q-123 126 -123 334zM244 438q0 -143 72.5 -228t195.5 -85q153 0 260 137q109 139 109 342q0 140 -72 222.5t-193 82.5 q-118 0 -213 -86q-75 -69 -117 -170.5t-42 -214.5zM573 1165l242 355h191l-324 -355h-109z" />
<glyph unicode="&#xf4;" horiz-adv-x="1200" d="M43 430q0 257 172 453q69 78 181 125t233 47q213 0 332.5 -121.5t119.5 -337.5q0 -263 -174 -449q-160 -174 -413 -174q-205 0 -328 123q-123 126 -123 334zM244 438q0 -143 72.5 -228t195.5 -85q153 0 260 137q109 139 109 342q0 140 -72 222.5t-193 82.5 q-118 0 -213 -86q-75 -69 -117 -170.5t-42 -214.5zM424 1165l266 355h166l145 -355h-98l-139 236l-232 -236h-108z" />
<glyph unicode="&#xf5;" horiz-adv-x="1200" d="M43 430q0 257 172 453q69 78 181 125t233 47q213 0 332.5 -121.5t119.5 -337.5q0 -263 -174 -449q-160 -174 -413 -174q-205 0 -328 123q-123 126 -123 334zM244 438q0 -143 72.5 -228t195.5 -85q153 0 260 137q109 139 109 342q0 140 -72 222.5t-193 82.5 q-118 0 -213 -86q-75 -69 -117 -170.5t-42 -214.5zM449 1212q35 109 81.5 157t118.5 48q21 0 66 -10l86 -27q39 -10 55 -10q69 0 96 76h90q-35 -109 -81.5 -155t-120.5 -46q-43 0 -72 10l-86 29q-19 8 -49 8q-69 0 -94 -80h-90z" />
<glyph unicode="&#xf6;" horiz-adv-x="1200" d="M43 430q0 257 172 453q69 78 181 125t233 47q213 0 332.5 -121.5t119.5 -337.5q0 -263 -174 -449q-160 -174 -413 -174q-205 0 -328 123q-123 126 -123 334zM244 438q0 -143 72.5 -228t195.5 -85q153 0 260 137q109 139 109 342q0 140 -72 222.5t-193 82.5 q-118 0 -213 -86q-75 -69 -117 -170.5t-42 -214.5zM473 1235l41 192h172l-41 -192h-172zM807 1235l41 192h170l-41 -192h-170z" />
<glyph unicode="&#xf7;" horiz-adv-x="1705" d="M254 541v139h1198v-139h-1198zM729 242q0 51 37 88t88 37t88 -37t37 -88t-37 -88t-88 -37q-54 0 -89.5 35.5t-35.5 89.5zM729 979q0 51 37 89t88 38t88 -38t37 -89t-37 -88t-88 -37t-88 37t-37 88z" />
<glyph unicode="&#xf8;" horiz-adv-x="1200" d="M41 424q0 261 178 463q69 78 179 124t231 46q120 0 225 -51l121 165l80 -63l-115 -162q73 -66 107 -152t34 -208q0 -123 -45.5 -237.5t-130.5 -205.5q-158 -168 -432 -168q-118 0 -201 50l-127 -170l-82 65l119 158q-141 141 -141 346zM229 444q0 -134 58 -219l481 654 q-62 41 -137 41q-170 0 -287 -138q-115 -139 -115 -338zM360 154q57 -43 144 -43q165 0 278 143q115 145 115 354q0 108 -55 197z" />
<glyph unicode="&#xf9;" horiz-adv-x="1202" d="M76 307q0 99 22 193l113 528h195l-121 -563q-15 -77 -15 -129q0 -92 50.5 -144.5t138.5 -52.5q128 0 221 101.5t131 283.5l107 504h196l-221 -1028h-178l39 174q-152 -199 -361 -199q-146 0 -231.5 90t-85.5 242zM410 1520h180l209 -355h-105z" />
<glyph unicode="&#xfa;" horiz-adv-x="1202" d="M76 307q0 99 22 193l113 528h195l-121 -563q-15 -77 -15 -129q0 -92 50.5 -144.5t138.5 -52.5q128 0 221 101.5t131 283.5l107 504h196l-221 -1028h-178l39 174q-152 -199 -361 -199q-146 0 -231.5 90t-85.5 242zM522 1165l242 355h190l-323 -355h-109z" />
<glyph unicode="&#xfb;" horiz-adv-x="1202" d="M76 307q0 99 22 193l113 528h195l-121 -563q-15 -77 -15 -129q0 -92 50.5 -144.5t138.5 -52.5q128 0 221 101.5t131 283.5l107 504h196l-221 -1028h-178l39 174q-152 -199 -361 -199q-146 0 -231.5 90t-85.5 242zM373 1165l266 355h166l145 -355h-98l-139 236l-232 -236 h-108z" />
<glyph unicode="&#xfc;" horiz-adv-x="1202" d="M76 307q0 99 22 193l113 528h195l-121 -563q-15 -77 -15 -129q0 -92 50.5 -144.5t138.5 -52.5q128 0 221 101.5t131 283.5l107 504h196l-221 -1028h-178l39 174q-152 -199 -361 -199q-146 0 -231.5 90t-85.5 242zM422 1235l41 192h172l-41 -192h-172zM756 1235l41 192 h170l-41 -192h-170z" />
<glyph unicode="&#xfd;" horiz-adv-x="993" d="M-176 -418l47 150q63 -19 96 -19q62 0 116 34.5t91 96.5l74 131l-166 1057h188l109 -854l446 854h207l-676 -1208q-84 -149 -167.5 -209.5t-200.5 -60.5q-66 0 -164 28zM471 1165l242 355h190l-323 -355h-109z" />
<glyph unicode="&#xfe;" horiz-adv-x="1230" d="M-68 -428l414 1958h195l-142 -653q142 178 346 178q177 0 274 -115t97 -322q0 -140 -47.5 -270t-132.5 -221q-141 -150 -326 -150q-133 0 -217.5 54.5t-132.5 167.5l-133 -627h-195zM322 424q0 -130 67 -210.5t176 -80.5q107 0 193 80q72 69 114.5 180t42.5 230 q0 129 -62 202.5t-171 73.5q-144 0 -252 -141q-108 -138 -108 -334z" />
<glyph unicode="&#xff;" horiz-adv-x="993" d="M-176 -418l47 150q63 -19 96 -19q62 0 116 34.5t91 96.5l74 131l-166 1057h188l109 -854l446 854h207l-676 -1208q-84 -149 -167.5 -209.5t-200.5 -60.5q-66 0 -164 28zM371 1235l41 192h172l-41 -192h-172zM705 1235l40 192h170l-41 -192h-169z" />
<glyph unicode="&#x152;" horiz-adv-x="1904" d="M96 612q0 214 90 397.5t248 293.5q189 131 473 131q25 0 125 -7q86 -6 133 -6h750l-33 -157h-579l-93 -441h547l-33 -157h-548l-107 -508h606l-35 -158h-727q-17 0 -100 -6t-145 -6q-260 0 -416 172t-156 452zM297 598q0 -211 114.5 -328.5t321.5 -117.5q63 0 137 12 l230 1093l-62 7q-84 8 -114 8q-249 0 -387 -111q-113 -91 -176.5 -240.5t-63.5 -322.5z" />
<glyph unicode="&#x153;" horiz-adv-x="1898" d="M41 424q0 261 174 459q72 82 183.5 127t240.5 45q233 0 367 -191q161 191 407 191q180 0 282.5 -108t102.5 -300q0 -89 -24 -174h-736q-2 -10 -2 -41q0 -148 79.5 -227.5t227.5 -79.5q156 0 289 68l-16 -162q-141 -56 -311 -56q-262 0 -385 193q-184 -193 -424 -193 q-209 0 -332 121t-123 328zM244 438q0 -143 72.5 -228t195.5 -85q153 0 260 137q109 139 109 342q0 140 -72 222.5t-193 82.5q-118 0 -213 -86q-75 -69 -117 -170.5t-42 -214.5zM1063 602h557q4 32 4 70q0 118 -60.5 186t-164.5 68q-116 0 -208.5 -89t-127.5 -235z" />
<glyph unicode="&#x178;" horiz-adv-x="1284" d="M150 1421h219l264 -669l547 669h235l-706 -835l-121 -586h-203l125 592zM559 1612l41 192h172l-41 -192h-172zM893 1612l41 192h170l-41 -192h-170z" />
<glyph unicode="&#x2c6;" d="M336 1165l266 355h166l145 -355h-98l-139 236l-232 -236h-108z" />
<glyph unicode="&#x2dc;" d="M360 1212q35 109 82 157t119 48q21 0 66 -10l86 -27q39 -10 55 -10q72 0 96 76h90q-35 -109 -81.5 -155t-120.5 -46q-43 0 -72 10l-86 29q-19 8 -49 8q-32 0 -57 -21t-37 -59h-91z" />
<glyph unicode="&#x2000;" horiz-adv-x="997" />
<glyph unicode="&#x2001;" horiz-adv-x="1995" />
<glyph unicode="&#x2002;" horiz-adv-x="997" />
<glyph unicode="&#x2003;" horiz-adv-x="1995" />
<glyph unicode="&#x2004;" horiz-adv-x="665" />
<glyph unicode="&#x2005;" horiz-adv-x="498" />
<glyph unicode="&#x2006;" horiz-adv-x="332" />
<glyph unicode="&#x2007;" horiz-adv-x="332" />
<glyph unicode="&#x2008;" horiz-adv-x="249" />
<glyph unicode="&#x2009;" horiz-adv-x="399" />
<glyph unicode="&#x200a;" horiz-adv-x="110" />
<glyph unicode="&#x2010;" horiz-adv-x="677" d="M33 494l30 149h517l-31 -149h-516z" />
<glyph unicode="&#x2011;" horiz-adv-x="677" d="M33 494l30 149h517l-31 -149h-516z" />
<glyph unicode="&#x2012;" horiz-adv-x="677" d="M33 494l30 149h517l-31 -149h-516z" />
<glyph unicode="&#x2013;" d="M-39 504l23 114h1024l-25 -114h-1022z" />
<glyph unicode="&#x2014;" horiz-adv-x="2048" d="M-39 504l23 114h2048l-25 -114h-2046z" />
<glyph unicode="&#x2018;" horiz-adv-x="585" d="M186 1055l260 471h168l-211 -471h-217z" />
<glyph unicode="&#x2019;" horiz-adv-x="585" d="M213 1059l209 473h217l-260 -473h-166z" />
<glyph unicode="&#x201a;" horiz-adv-x="585" d="M-96 -258l209 469h217l-260 -469h-166z" />
<glyph unicode="&#x201c;" horiz-adv-x="993" d="M186 1053l260 473h166l-209 -473h-217zM592 1053l260 473h166l-209 -473h-217z" />
<glyph unicode="&#x201d;" horiz-adv-x="993" d="M217 1059l209 473h217l-260 -473h-166zM621 1059l210 473h218l-263 -473h-165z" />
<glyph unicode="&#x201e;" horiz-adv-x="993" d="M-94 -260l209 473h217l-260 -473h-166zM309 -260l211 473h217l-260 -473h-168z" />
<glyph unicode="&#x2022;" horiz-adv-x="1208" d="M307 762q0 123 86 209q89 86 211 86q121 0 207 -86q88 -85 88 -209q0 -121 -88 -209q-85 -88 -209 -88q-123 0 -209 86q-86 89 -86 211z" />
<glyph unicode="&#x2026;" horiz-adv-x="2048" d="M100 0l45 213h209l-45 -213h-209zM782 0l45 213h209l-45 -213h-209zM1466 0l45 213h209l-45 -213h-209z" />
<glyph unicode="&#x202f;" horiz-adv-x="399" />
<glyph unicode="&#x2039;" horiz-adv-x="714" d="M80 526l371 408h196l-385 -418l305 -424h-180z" />
<glyph unicode="&#x203a;" horiz-adv-x="714" d="M-10 92l385 416l-305 424h180l307 -432l-371 -408h-196z" />
<glyph unicode="&#x205f;" horiz-adv-x="498" />
<glyph unicode="&#x20ac;" horiz-adv-x="1175" d="M49 532l43 109h150q3 98 18 186h-162l43 109h144q71 238 231 373q162 137 373 137q150 0 321 -74l-41 -170q-130 84 -282 84q-137 0 -239.5 -91.5t-153.5 -258.5h591l-43 -109h-575q-13 -85 -16 -186h563l-43 -109h-516q13 -190 92 -288.5t219 -98.5q104 0 238 64 l-15 -186q-130 -48 -250 -48q-221 0 -347.5 144t-145.5 413h-197z" />
<glyph unicode="&#x2122;" horiz-adv-x="1705" d="M242 1378v80h452v-80h-172v-458h-108v458h-172zM813 920v538h150l151 -385l141 385h150v-538h-98v444l-166 -444h-56l-174 444v-444h-98z" />
<glyph unicode="&#x25fc;" horiz-adv-x="1034" d="M0 0v1034h1034v-1034h-1034z" />
<glyph unicode="&#xfb01;" horiz-adv-x="1245" d="M72 887l30 141h220l40 195q32 159 133 242t257 83q56 0 139 -24l-41 -150q-82 19 -105 19q-149 0 -196 -215l-35 -150h260l-31 -141h-258l-188 -887h-195l189 887h-219zM750 0l219 1028h188l-219 -1028h-188zM1012 1282l45 213h205l-45 -213h-205z" />
<glyph unicode="&#xfb02;" horiz-adv-x="1245" d="M72 887l30 141h220l40 195q32 159 133 242t257 83q56 0 139 -24l-41 -150q-82 19 -105 19q-149 0 -196 -215l-35 -150h260l-31 -141h-258l-188 -887h-195l189 887h-219zM760 0l323 1530h193l-322 -1530h-194z" />
</font>
</defs>
</svg>
