<?xml version="1.0" standalone="no"?>
<!DOCTYPE svg PUBLIC "-//W3C//DTD SVG 1.1//EN" "http://www.w3.org/Graphics/SVG/1.1/DTD/svg11.dtd" >
<svg xmlns="http://www.w3.org/2000/svg">
<metadata></metadata>
<defs>
<font id="transtext_mdmedium_italic" horiz-adv-x="1024" >
<font-face units-per-em="2048" ascent="1556" descent="-492" />
<missing-glyph horiz-adv-x="606" />
<glyph horiz-adv-x="0" />
<glyph horiz-adv-x="0" />
<glyph unicode="&#xd;" horiz-adv-x="2048" />
<glyph unicode=" "  horiz-adv-x="606" />
<glyph unicode="&#x09;" horiz-adv-x="606" />
<glyph unicode="&#xa0;" horiz-adv-x="606" />
<glyph unicode="!" horiz-adv-x="858" d="M147 0l56 264h270l-57 -264h-269zM262 420l176 1001h291l-250 -1001h-217z" />
<glyph unicode="&#x22;" horiz-adv-x="677" d="M406 879v559h192v-559h-192zM80 879v559h192v-559h-192z" />
<glyph unicode="#" horiz-adv-x="1574" d="M958 848h-249l-88 -244h251zM561 1049l148 415h221l-146 -415h242l148 415h221l-148 -415h283l-74 -201h-280l-84 -242h290l-71 -200h-291l-148 -416h-221l148 416h-244l-149 -416h-220l146 416h-287l76 200h282l86 242h-299l74 201h297z" />
<glyph unicode="$" horiz-adv-x="1214" d="M629 625l-92 -428q108 1 176.5 66t68.5 165q0 66 -36.5 113t-116.5 84zM604 877l78 362q-103 -7 -164 -61t-61 -134q0 -56 34.5 -95.5t112.5 -71.5zM721 1427l37 179h98l-37 -179q160 -9 326 -59l-66 -205q-148 65 -305 74l-84 -387q172 -54 263 -153t91 -232 q0 -207 -149 -338t-387 -131h-10l-41 -182h-97l39 180q-208 3 -370 67l63 220q153 -63 348 -84l97 450q-332 132 -332 381q0 170 139 285q138 114 361 114h16z" />
<glyph unicode="%" horiz-adv-x="1853" d="M1440 623q-67 0 -102 -64.5t-35 -187.5t35 -187.5t102 -64.5q137 0 137 252t-137 252zM1440 770q158 0 251 -107.5t93 -291.5q0 -182 -94 -291t-250 -109q-158 0 -251 108.5t-93 291.5q0 184 93 291.5t251 107.5zM420 1305q-67 0 -102 -64.5t-35 -187.5q0 -252 135 -252 q137 0 137 252t-135 252zM467 -29l754 1481h172l-754 -1481h-172zM418 1452q158 0 251 -107.5t93 -291.5q0 -182 -94 -291t-250 -109t-249 108.5t-93 291.5q0 185 92 292t250 107z" />
<glyph unicode="&#x26;" horiz-adv-x="1484" d="M838 270l-285 389q-252 -101 -252 -278q0 -100 63.5 -161.5t167.5 -61.5q170 0 306 112zM766 739l238 -325q132 140 182 364h229q-48 -320 -287 -530l191 -248h-285l-84 121q-175 -152 -450 -152q-207 0 -329 106t-122 285q0 160 104.5 278t288.5 165q-127 153 -127 295 q0 160 125 258t332 98q174 0 279.5 -91t105.5 -243q0 -121 -99 -217t-292 -164zM666 872q137 51 199.5 111t62.5 139q0 63 -49.5 106.5t-122.5 43.5q-87 0 -146 -51.5t-59 -126.5q0 -95 115 -222z" />
<glyph unicode="'" horiz-adv-x="352" d="M80 879v559h192v-559h-192z" />
<glyph unicode="(" horiz-adv-x="702" d="M653 1554h226q-519 -566 -519 -1153q0 -362 140 -677h-199q-176 397 -176 741q0 585 528 1089z" />
<glyph unicode=")" horiz-adv-x="702" d="M172 1554h199q176 -397 176 -743q0 -579 -529 -1087h-227q520 567 520 1153q0 367 -139 677z" />
<glyph unicode="*" d="M543 1178l-56 348h205l-55 -346l309 161l66 -200l-346 -54l249 -243l-170 -125l-155 317l-156 -317l-170 125l250 246l-346 51l63 200z" />
<glyph unicode="+" horiz-adv-x="1705" d="M752 711v510h202v-510h498v-199h-498v-512h-202v512h-498v199h498z" />
<glyph unicode="," horiz-adv-x="606" d="M-102 -242l221 504h280l-280 -504h-221z" />
<glyph unicode="-" horiz-adv-x="677" d="M25 481l41 199h532l-41 -199h-532z" />
<glyph unicode="." horiz-adv-x="606" d="M39 0l57 264h266l-55 -264h-268z" />
<glyph unicode="/" horiz-adv-x="571" d="M-29 -8l482 1499h153l-481 -1499h-154z" />
<glyph unicode="0" horiz-adv-x="1214" d="M881 993q0 127 -46 198t-128 71q-136 0 -240 -209q-48 -96 -94 -287q-45 -181 -45 -328q0 -133 46 -203.5t132 -70.5q143 0 244 221q61 138 94 297q37 164 37 311zM707 1452q217 0 326.5 -126.5t109.5 -377.5q0 -198 -50.5 -389.5t-136.5 -322.5q-174 -267 -450 -267 q-209 0 -323.5 135t-114.5 381q0 197 53 392q51 188 143 319q94 131 202 193.5t241 62.5z" />
<glyph unicode="1" horiz-adv-x="1214" d="M254 1147l502 274h202l-294 -1421h-265l250 1143l-278 -197z" />
<glyph unicode="2" horiz-adv-x="1214" d="M782 526l-403 -317h604l-45 -209h-948l43 205l522 424q146 117 213.5 213.5t67.5 187.5q0 98 -62 153.5t-172 55.5q-137 0 -330 -100l29 239q198 74 381 74q194 0 313 -104q121 -106 121 -271q0 -150 -79 -281t-255 -270z" />
<glyph unicode="3" horiz-adv-x="1214" d="M756 741q117 -32 181 -111.5t64 -191.5q0 -207 -165 -338q-163 -129 -430 -129q-211 0 -433 86l60 219q144 -79 327 -79q164 0 266.5 70.5t102.5 181.5q0 100 -86 151t-252 51q-22 0 -45 -1t-29 -1l39 195q17 0 51 -1t54 -1q201 0 297 50.5t96 156.5q0 91 -69.5 141.5 t-192.5 50.5q-161 0 -332 -70l29 222q183 57 358 57q222 0 348.5 -95t126.5 -261q0 -139 -97 -233t-269 -120z" />
<glyph unicode="4" horiz-adv-x="1214" d="M694 504l164 715l-604 -715h440zM31 508l790 913h316l-195 -917h203l-43 -197h-203l-63 -307h-265l66 307h-641z" />
<glyph unicode="5" horiz-adv-x="1214" d="M190 698l162 723h856l-41 -198h-616l-70 -318q83 13 131 13q189 0 316 -115q125 -113 125 -289q0 -237 -181 -387q-178 -150 -464 -150q-181 0 -373 68l49 227q151 -77 313 -77q171 0 276 82.5t105 216.5q0 110 -82 174.5t-223 64.5q-125 0 -283 -35z" />
<glyph unicode="6" horiz-adv-x="1214" d="M604 723q-113 0 -186.5 -89.5t-73.5 -225.5q0 -112 57 -178t154 -66q111 0 188 92q78 96 78 231q0 106 -59.5 171t-157.5 65zM1192 1356l-66 -193q-127 86 -284 86q-172 0 -289 -118t-166 -343q137 113 297 113q173 0 285 -115q112 -112 112 -294q0 -220 -149 -369 q-150 -150 -373 -150q-217 0 -342 141.5t-125 391.5q0 202 60 390t165 316q92 113 222 172.5t284 59.5q171 0 369 -88z" />
<glyph unicode="7" horiz-adv-x="1214" d="M238 1221l43 200h958l-49 -235l-776 -1186h-314l822 1221h-684z" />
<glyph unicode="8" horiz-adv-x="1214" d="M594 659q-140 -37 -213.5 -107.5t-73.5 -168.5q0 -94 64 -153.5t168 -59.5q117 0 190.5 65t73.5 168q0 76 -46 133.5t-163 122.5zM809 735q254 -120 254 -332q0 -199 -142.5 -314.5t-392.5 -115.5q-227 0 -355 105t-128 291q0 142 98 246t271 145q-189 111 -189 309 q0 164 140 277q137 110 356 110q201 0 321.5 -95t120.5 -253q0 -136 -90 -231t-264 -142zM629 827q139 47 214 117t75 150q0 72 -58.5 123t-142.5 51q-103 0 -171.5 -58.5t-68.5 -144.5q0 -135 152 -238z" />
<glyph unicode="9" horiz-adv-x="1214" d="M20 63l70 199q124 -84 275 -84q180 0 296.5 119t163.5 348q-133 -115 -307 -115q-161 0 -274 119q-111 120 -111 291q0 222 150 363t387 141q207 0 327.5 -142.5t120.5 -386.5q0 -197 -58 -383.5t-161 -316.5q-185 -240 -516 -240q-202 0 -363 88zM868 1016 q0 111 -58.5 178.5t-154.5 67.5q-106 0 -184 -93q-76 -88 -76 -217q0 -109 58.5 -173t156.5 -64q115 0 186.5 83.5t71.5 217.5z" />
<glyph unicode=":" horiz-adv-x="858" d="M154 0l57 268h268l-57 -268h-268zM317 772l56 266h268l-57 -266h-267z" />
<glyph unicode=";" horiz-adv-x="858" d="M6 -242l219 504h283l-281 -504h-221zM313 774l58 264h268l-57 -264h-269z" />
<glyph unicode="&#x3c;" horiz-adv-x="1705" d="M264 711l1178 483v-219l-893 -365l893 -364v-219l-1178 485v199z" />
<glyph unicode="=" horiz-adv-x="1705" d="M254 297v199h1198v-199h-1198zM254 727v199h1198v-199h-1198z" />
<glyph unicode="&#x3e;" horiz-adv-x="1705" d="M264 975v219l1178 -483v-199l-1178 -485v219l895 364z" />
<glyph unicode="?" horiz-adv-x="1087" d="M203 0l57 260h270l-55 -260h-272zM545 426h-223q11 103 52.5 178.5t141.5 165.5l57 51q179 156 179 256q0 75 -69 124.5t-177 49.5q-144 0 -275 -61l37 213q154 49 320 49q185 0 307 -96q119 -94 119 -246q0 -79 -44 -162.5t-122 -152.5l-47 -41q-238 -212 -256 -328z " />
<glyph unicode="@" horiz-adv-x="2048" d="M1167 272q-55 -85 -127 -124t-170 -39q-158 0 -240.5 86.5t-82.5 253.5q0 236 139 401q137 162 344 162q163 0 236 -131l53 98h178l-147 -598q-1 -5 -4 -21t-3 -20q0 -70 95 -70q85 0 161 76q175 161 175 422q0 240 -187 393q-185 156 -477 156q-286 0 -483 -135 q-170 -115 -261.5 -286t-91.5 -374q0 -305 207 -491q207 -183 553 -183q328 0 604 191l82 -117q-308 -231 -682 -231q-392 0 -639 192q-309 242 -309 637q0 343 207 594q148 180 355.5 273.5t463.5 93.5q168 0 317 -45t259 -129q268 -207 268 -543q0 -165 -65.5 -305 t-188.5 -238q-143 -115 -324 -115q-212 0 -215 166zM1163 483l54 217q-12 80 -57.5 123t-117.5 43q-116 0 -198 -125q-84 -125 -84 -297q0 -92 41 -140t117 -48q84 0 152 63.5t93 163.5z" />
<glyph unicode="A" horiz-adv-x="1458" d="M973 545l-96 661l-383 -661h479zM-117 0l856 1421h346l246 -1421h-278l-54 336h-620l-197 -336h-299z" />
<glyph unicode="B" horiz-adv-x="1273" d="M604 645h-182l-94 -440h192q149 0 236.5 69.5t87.5 188.5q0 88 -61.5 135t-178.5 47zM721 1227h-176l-84 -396h135q157 0 248.5 62.5t91.5 167.5q0 79 -56 122.5t-159 43.5zM12 0l301 1421h432q235 0 351 -78t116 -237q0 -141 -97 -239.5t-261 -123.5q135 -31 199.5 -103 t64.5 -191q0 -214 -161.5 -331.5t-456.5 -117.5h-488z" />
<glyph unicode="C" horiz-adv-x="1310" d="M1384 1372l-71 -225q-169 88 -342 88q-288 0 -453 -188q-67 -78 -107 -188.5t-40 -219.5q0 -203 122.5 -321.5t331.5 -118.5q154 0 312 71l-27 -247q-184 -52 -350 -52q-315 0 -500 176q-182 179 -182 482q0 190 80 357t229 290q207 174 574 174q181 0 423 -78z" />
<glyph unicode="D" horiz-adv-x="1492" d="M715 1210h-162l-209 -993h164q252 0 395 113q97 79 156 211q59 136 59 272q0 195 -103 296t-300 101zM8 0l303 1421h398q349 0 524.5 -155t175.5 -463q0 -212 -94 -393q-91 -181 -250 -277q-118 -70 -249 -101.5t-318 -31.5h-490z" />
<glyph unicode="E" horiz-adv-x="1146" d="M4 0l303 1421h881l-45 -204h-598l-80 -371h565l-41 -203h-567l-92 -436h624l-45 -207h-905z" />
<glyph unicode="F" horiz-adv-x="1040" d="M6 0l301 1421h840l-45 -207h-557l-82 -383h534l-43 -206h-534l-133 -625h-281z" />
<glyph unicode="G" horiz-adv-x="1497" d="M1436 1378l-68 -227q-174 86 -364 86q-284 0 -459 -166q-176 -167 -176 -430q0 -202 114 -328q114 -123 303 -123q103 0 203 27l80 383h-278l45 203h546l-161 -762q-192 -66 -414 -66q-170 0 -276 26.5t-193 88.5q-127 90 -193.5 231.5t-66.5 315.5q0 183 72.5 342 t209.5 276q235 197 635 197q214 0 441 -74z" />
<glyph unicode="H" horiz-adv-x="1447" d="M6 0l301 1421h289l-121 -567h557l121 567h289l-303 -1421h-287l135 635h-559l-135 -635h-287z" />
<glyph unicode="I" horiz-adv-x="608" d="M8 0l301 1421h281l-301 -1421h-281z" />
<glyph unicode="J" horiz-adv-x="811" d="M328 451l204 970h285l-219 -1028q-44 -214 -166.5 -317t-327.5 -103q-111 0 -229 43l62 232q95 -29 147 -29q194 0 244 232z" />
<glyph unicode="K" horiz-adv-x="1345" d="M6 0l303 1421h281l-129 -610l631 610h350l-731 -678l491 -743h-328l-438 698l-147 -698h-283z" />
<glyph unicode="L" horiz-adv-x="1042" d="M27 0l303 1421h284l-256 -1204h588l-45 -217h-874z" />
<glyph unicode="M" horiz-adv-x="1882" d="M-2 0l301 1421h434l119 -1102l582 1102h448l-305 -1421h-262l262 1225l-664 -1225h-254l-149 1223l-252 -1223h-260z" />
<glyph unicode="N" horiz-adv-x="1521" d="M6 0l301 1421h348l371 -1112l227 1112h258l-301 -1421h-348l-366 1120l-230 -1120h-260z" />
<glyph unicode="O" horiz-adv-x="1548" d="M1169 864q0 178 -83.5 278.5t-231.5 100.5q-89 0 -173 -45t-146 -129q-75 -98 -117.5 -231t-42.5 -269q0 -178 83 -278.5t230 -100.5q193 0 338 199q67 90 105 217t38 258zM866 1452q283 0 439.5 -156.5t156.5 -439.5q0 -198 -66.5 -371t-191.5 -301q-210 -213 -540 -213 q-270 0 -426 166q-156 169 -156 453q0 179 65.5 345.5t186.5 293.5q211 223 532 223z" />
<glyph unicode="P" horiz-adv-x="1187" d="M655 1221h-112l-97 -451q50 -4 86 -4q192 0 284.5 65.5t92.5 200.5q0 92 -65 140.5t-189 48.5zM2 0l301 1421h377q258 0 384 -97.5t126 -295.5q0 -214 -166 -346q-166 -129 -446 -129q-95 0 -175 6l-120 -559h-281z" />
<glyph unicode="Q" horiz-adv-x="1548" d="M969 25l254 -295h-320l-180 241h-41q-287 0 -443.5 161.5t-156.5 457.5q0 198 73 369t214 301q99 93 228.5 142.5t272.5 49.5q279 0 435.5 -157.5t156.5 -438.5q0 -565 -493 -831zM1174 864q0 180 -84.5 282.5t-233.5 102.5q-91 0 -175.5 -45.5t-150.5 -130.5 q-75 -97 -117 -230.5t-42 -275.5q0 -180 84.5 -281.5t232.5 -101.5q198 0 342 201q67 91 105.5 218t38.5 261z" />
<glyph unicode="R" horiz-adv-x="1267" d="M700 1219h-159l-84 -410h6q86 -4 92 -4q183 0 278 61.5t95 180.5q0 82 -59 127t-169 45zM8 0l301 1421h451q225 0 341 -87t116 -255q0 -158 -102.5 -254.5t-291.5 -115.5q63 -30 97.5 -78.5t54.5 -138.5l108 -492h-276l-107 473q-15 72 -63 100q-50 29 -172 29h-51 l-127 -602h-279z" />
<glyph unicode="S" horiz-adv-x="1150" d="M1135 1382l-72 -217q-158 76 -320 76q-116 0 -186 -45t-70 -119q0 -92 125 -174l33 -20q206 -133 258 -193q88 -114 88 -241q0 -217 -168 -345q-169 -129 -452 -129q-215 0 -394 78l66 228q168 -91 350 -91q133 0 213 54.5t80 142.5q0 110 -219 252l-80 51 q-92 63 -143 150t-51 184q0 193 153 307q156 117 418 117q194 0 371 -66z" />
<glyph unicode="T" horiz-adv-x="1099" d="M135 1210l45 211h1051l-45 -211h-387l-256 -1210h-285l256 1210h-379z" />
<glyph unicode="U" horiz-adv-x="1460" d="M135 653l166 768h283l-174 -815q-19 -75 -19 -160q0 -121 68.5 -194.5t181.5 -73.5q140 0 223 103t137 342l175 798h274l-178 -854q-66 -309 -226 -454.5t-432 -145.5q-235 0 -370 123t-135 338q0 95 26 225z" />
<glyph unicode="V" horiz-adv-x="1361" d="M356 0l-202 1421h278l135 -1196l633 1196h295l-807 -1421h-332z" />
<glyph unicode="W" horiz-adv-x="1978" d="M223 0l-65 1421h268l12 -1200l514 1200h344l27 -1202l489 1202h283l-649 -1421h-342l-27 1217l-506 -1217h-348z" />
<glyph unicode="X" horiz-adv-x="1343" d="M510 762l-311 659h299l207 -495l417 495h330l-582 -667l328 -754h-299l-229 575l-463 -575h-344z" />
<glyph unicode="Y" horiz-adv-x="1329" d="M479 567l-354 854h307l225 -626l482 626h327l-704 -858l-117 -563h-283z" />
<glyph unicode="Z" horiz-adv-x="1173" d="M209 1212l43 209h1012l-50 -219l-927 -989h727l-49 -213h-1039l51 248l893 964h-661z" />
<glyph unicode="[" horiz-adv-x="768" d="M6 -268l387 1827h447l-35 -168h-215l-318 -1493h215l-34 -166h-447z" />
<glyph unicode="\" horiz-adv-x="571" d="M426 -8l-444 1499h153l445 -1499h-154z" />
<glyph unicode="]" horiz-adv-x="768" d="M254 1395l35 164h446l-389 -1827h-444l35 168h215l317 1495h-215z" />
<glyph unicode="^" horiz-adv-x="2048" d="M416 899l481 561h252l481 -561h-235l-371 371l-373 -371h-235z" />
<glyph unicode="_" d="M0 -483v204h1024v-204h-1024z" />
<glyph unicode="`" d="M653 1178l-288 362h221l188 -362h-121z" />
<glyph unicode="a" horiz-adv-x="1157" d="M739 500h-10q-90 4 -98 4q-183 0 -273 -50.5t-90 -154.5q0 -63 43.5 -102t116.5 -39q121 0 204.5 91.5t106.5 250.5zM1010 575l-64 -305q-37 -179 -45 -270h-227l22 160q-134 -180 -352 -180q-152 0 -246 82.5t-94 216.5q0 179 155 278.5t433 99.5q58 0 180 -10 q4 46 4 49q0 94 -57.5 144.5t-163.5 50.5q-146 0 -317 -76l32 201q165 57 340 57q201 0 309.5 -89t108.5 -255q0 -69 -18 -154z" />
<glyph unicode="b" horiz-adv-x="1308" d="M915 612q0 116 -55 181t-153 65q-131 0 -226 -123q-96 -125 -96 -293q0 -117 60.5 -188.5t160.5 -71.5q129 0 217 125q92 127 92 305zM14 0l324 1532h268l-137 -629q144 164 340 164q180 0 283.5 -120t103.5 -331q0 -149 -49.5 -279.5t-140.5 -221.5q-146 -140 -349 -140 q-123 0 -213 61.5t-131 174.5l-47 -211h-252z" />
<glyph unicode="c" horiz-adv-x="974" d="M993 1006l-63 -199q-119 51 -230 51q-168 0 -276 -102q-107 -101 -107 -264q0 -131 81 -215t210 -84q106 0 223 47l-32 -220q-135 -38 -287 -38q-215 0 -348 133q-131 134 -131 352q0 128 50 243t144 203q163 150 449 150q185 0 317 -57z" />
<glyph unicode="d" horiz-adv-x="1292" d="M856 600q0 116 -61.5 186t-161.5 70q-130 0 -219 -127q-90 -128 -90 -313q0 -105 57 -170.5t149 -65.5q136 0 230 123q96 125 96 297zM922 850l145 682h266l-321 -1532h-244l37 174q-150 -203 -373 -203q-181 0 -284 120t-103 333q0 280 150 459q149 180 380 180 q247 0 347 -213z" />
<glyph unicode="e" horiz-adv-x="1161" d="M1040 453h-743q0 -2 -1 -14t-1 -25q0 -117 78 -183.5t217 -66.5q168 0 299 67l-15 -204q-171 -58 -342 -58q-232 0 -362.5 128t-130.5 354q0 123 45 238.5t127 203.5q88 94 191.5 137t242.5 43q192 0 304 -112.5t112 -307.5q0 -80 -21 -200zM326 618h499v7q4 46 4 51 q0 104 -52.5 161.5t-149.5 57.5q-106 0 -187.5 -74.5t-113.5 -202.5z" />
<glyph unicode="f" horiz-adv-x="813" d="M969 1520l-56 -189q-59 23 -106 23q-62 0 -109.5 -46t-66.5 -124l-35 -146h264l-41 -192h-264l-178 -846h-273l181 846h-217l41 192h217l39 183q35 158 143 243.5t274 85.5q110 0 187 -30z" />
<glyph unicode="g" horiz-adv-x="1292" d="M856 600q0 116 -61.5 186t-161.5 70q-130 0 -219 -127q-90 -128 -90 -313q0 -105 57 -170.5t149 -65.5q136 0 230 123q96 125 96 297zM922 850l39 188h268l-217 -1050q-88 -439 -594 -439q-179 0 -389 78l59 207q160 -86 320 -86q177 0 268.5 101.5t134.5 345.5 q-156 -205 -377 -205q-180 0 -283.5 119t-103.5 329q0 268 150 447q150 178 378 178q247 0 347 -213z" />
<glyph unicode="h" horiz-adv-x="1280" d="M6 0l326 1532h270l-137 -639q144 166 348 166q154 0 241 -94t87 -258q0 -86 -27 -228l-100 -479h-275l117 547q12 53 12 110q0 90 -42.5 138.5t-120.5 48.5q-119 0 -203 -95t-121 -272l-100 -477h-275z" />
<glyph unicode="i" horiz-adv-x="587" d="M25 0l223 1040h264l-221 -1040h-266zM612 1497l-55 -268h-274l55 268h274z" />
<glyph unicode="j" horiz-adv-x="587" d="M612 1497l-55 -268h-274l55 268h274zM12 -57l234 1097h274l-233 -1101q-43 -198 -135 -285.5t-256 -87.5q-87 0 -172 26l45 183q56 -17 90 -17q62 0 97.5 43t55.5 142z" />
<glyph unicode="k" horiz-adv-x="1148" d="M16 0l326 1532h268l-194 -914l436 422h315l-503 -471l344 -569h-299l-308 545l-116 -545h-269z" />
<glyph unicode="l" horiz-adv-x="587" d="M16 0l324 1532h270l-323 -1532h-271z" />
<glyph unicode="m" horiz-adv-x="1849" d="M1706 621l-133 -621h-264l123 573q14 80 14 111q0 73 -39 116.5t-102 43.5q-105 0 -171 -85t-104 -274l-102 -485h-275l121 569q17 83 17 119q0 72 -37 114t-99 42q-201 0 -272 -314l-115 -530h-274l221 1047h238l-39 -179q85 103 170.5 150t189.5 47q102 0 173 -56.5 t97 -156.5q147 213 367 213q143 0 225 -84t82 -233q0 -78 -12 -127z" />
<glyph unicode="n" horiz-adv-x="1280" d="M1110 479l-100 -479h-275l117 547q12 65 12 121q0 84 -44 130t-122 46q-117 0 -200.5 -95t-120.5 -272l-101 -477h-274l223 1049h246l-39 -185q163 201 381 201q152 0 239 -94t87 -256q0 -94 -29 -236z" />
<glyph unicode="o" horiz-adv-x="1273" d="M887 604q0 125 -63 199t-171 74q-134 0 -235 -125q-99 -126 -99 -299q0 -130 66.5 -208.5t175.5 -78.5q135 0 230 127q96 128 96 311zM678 1067q223 0 354 -129.5t131 -351.5q0 -261 -180 -441q-174 -174 -448 -174q-228 0 -360 127t-132 348q0 278 174 449 q175 172 461 172z" />
<glyph unicode="p" horiz-adv-x="1308" d="M328 188l-131 -616h-273l314 1477h243l-37 -185q150 203 373 203q183 0 285 -118.5t102 -332.5q0 -277 -151 -460q-150 -181 -381 -181q-247 0 -344 213zM926 612q0 115 -57 180.5t-154 65.5q-131 0 -226 -123q-96 -125 -96 -293q0 -117 60.5 -188.5t160.5 -71.5 q129 0 220 125q92 127 92 305z" />
<glyph unicode="q" horiz-adv-x="1292" d="M860 600q0 117 -61.5 187.5t-161.5 70.5q-130 0 -219 -127q-90 -128 -90 -315q0 -105 56 -169.5t148 -64.5q136 0 230 123q98 122 98 295zM930 829l47 211h252l-311 -1466h-265l121 563q-139 -164 -340 -164q-180 0 -283.5 119t-103.5 326q0 281 152 465q153 184 387 184 q123 0 212 -61.5t132 -176.5z" />
<glyph unicode="r" horiz-adv-x="829" d="M889 1049l-60 -236q-65 21 -129 21q-128 0 -199 -79t-112 -270l-104 -485h-277l215 1044h248l-37 -178q78 105 158 154t174 49q53 0 123 -20z" />
<glyph unicode="s" horiz-adv-x="931" d="M887 1010l-64 -193q-135 66 -264 66q-86 0 -135 -31.5t-49 -85.5q0 -65 143 -141l55 -31q121 -69 168 -132.5t47 -156.5q0 -147 -126 -242q-127 -92 -336 -92q-187 0 -367 66l61 201q122 -68 277 -68q106 0 163.5 32.5t57.5 92.5q0 66 -151 149l-29 17q-127 71 -175 134 t-48 155q0 143 120.5 231t317.5 88q160 0 334 -59z" />
<glyph unicode="t" horiz-adv-x="815" d="M365 1292l286 82l-71 -334h260l-41 -194h-260l-95 -447q-14 -60 -14 -102q0 -56 30 -85.5t87 -29.5q51 0 115 21l-41 -199q-113 -18 -166 -18q-143 0 -220 71.5t-77 204.5q0 59 10 111l100 473h-211l41 194h213z" />
<glyph unicode="u" horiz-adv-x="1280" d="M100 561l101 477h272l-115 -546q-14 -71 -14 -119q0 -84 44 -131t122 -47q118 0 201 94.5t120 271.5l103 477h272l-221 -1038h-248l41 176q-80 -98 -177.5 -150.5t-203.5 -52.5q-149 0 -238 96t-89 257q0 72 30 235z" />
<glyph unicode="v" horiz-adv-x="1107" d="M240 -6l-162 1046h270l94 -815l422 815h285l-604 -1046h-305z" />
<glyph unicode="w" horiz-adv-x="1783" d="M180 -6l-100 1046h266l37 -831l412 831h319l47 -833l393 833h277l-557 -1046h-309l-54 831l-407 -831h-324z" />
<glyph unicode="x" horiz-adv-x="1110" d="M352 553l-229 487h291l137 -340l276 340h316l-438 -493l241 -547h-291l-149 375l-301 -375h-320z" />
<glyph unicode="y" horiz-adv-x="1105" d="M274 -16l-198 1056h270l105 -786l407 786h287l-676 -1185q-94 -168 -193 -236q-95 -68 -233 -68q-81 0 -215 41l66 199q58 -24 110 -24q65 0 122.5 29.5t84.5 74.5z" />
<glyph unicode="z" horiz-adv-x="1003" d="M139 844l41 196h832l-45 -215l-656 -624h537l-41 -201h-870l45 215l655 629h-498z" />
<glyph unicode="{" d="M883 1477v-209q-5 0 -24 1t-23 1q-102 0 -138 -39q-34 -37 -34 -162v-240q0 -147 -46 -211q-47 -62 -161 -88q114 -26 161 -88q46 -61 46 -209v-241q0 -123 34 -160q33 -39 138 -39q4 0 23 1t24 1v-209q-9 0 -38.5 -1t-37.5 -1q-187 0 -281 49q-58 34 -82 93 q-22 61 -22 198v252q0 137 -51 194.5t-172 57.5q-4 0 -20 -1t-21 -1v209q5 0 21 -1t20 -1q121 0 172 58.5t51 195.5v250q0 139 22 200q24 59 82 93q94 49 281 49q8 0 37.5 -1t38.5 -1z" />
<glyph unicode="|" d="M410 -483v2048h206v-2048h-206z" />
<glyph unicode="}" d="M143 1268v209h68q200 0 289 -50q60 -35 80 -92q24 -59 24 -198v-252q0 -137 51 -194.5t172 -57.5q4 0 20 1t21 1v-209h-37q-124 0 -175.5 -56.5t-51.5 -193.5v-252q0 -142 -24 -200q-22 -61 -80 -91q-94 -49 -281 -49q-8 0 -37.5 1t-38.5 1v209q5 0 24 -1t23 -1 q103 0 136 39q36 39 36 160v239q0 150 46 211q47 62 161 88q-114 26 -161 88q-46 64 -46 211v242q0 124 -36 160q-33 39 -136 39q-4 0 -23 -1t-24 -1z" />
<glyph unicode="~" horiz-adv-x="1705" d="M1530 803v-221q-208 -138 -379 -138q-75 0 -184 31l-70 25q-213 75 -334 75q-86 0 -177.5 -37.5t-207.5 -119.5v221q210 143 387 143q120 0 291 -57l4 -2l55 -18q154 -56 240 -56q161 0 375 154z" />
<glyph unicode="&#xa1;" horiz-adv-x="858" d="M131 0l248 1004h217l-174 -1004h-291zM385 1157l57 264h269l-56 -264h-270z" />
<glyph unicode="&#xa2;" horiz-adv-x="1214" d="M539 227l196 637q-154 -9 -248 -114q-96 -104 -96 -258q0 -93 39.5 -163t108.5 -102zM795 1069l75 244l121 -2l-82 -254q79 -13 156 -45l-64 -201q-81 34 -155 47l-201 -659q4 0 17.5 -1t17.5 -1q103 0 223 47l-31 -219q-142 -37 -286 -37l-88 -275h-119l86 281 q-165 37 -263 166.5t-98 310.5q0 162 77 299.5t210 212.5q161 88 342 88q20 0 39 -1t23 -1z" />
<glyph unicode="&#xa3;" horiz-adv-x="1214" d="M1268 1395l-62 -199q-113 49 -209 49q-150 0 -231 -95t-119 -319h320l-31 -147h-322l-102 -481h485l-43 -203h-960l43 203h201l102 481h-174l33 147h172q85 625 579 625q160 0 318 -61z" />
<glyph unicode="&#xa4;" horiz-adv-x="1214" d="M-41 520l45 123h143q0 82 17 182h-166l45 123h150q72 235 246 368.5t407 133.5q151 0 342 -78l-58 -225q-137 88 -276 88q-135 0 -230 -73t-145 -214h561l-45 -123h-544q-15 -83 -15 -182h531l-45 -123h-480q17 -164 89.5 -242.5t203.5 -78.5q119 0 252 71l-20 -247 q-151 -52 -285 -52q-226 0 -365.5 145t-164.5 404h-193z" />
<glyph unicode="&#xa5;" horiz-adv-x="1208" d="M274 948l-165 473h274l205 -630l436 630h307l-352 -475h201l-25 -121h-268l-131 -182h360l-29 -123h-403l-111 -520h-280l108 520h-405l29 123h356l-66 182h-254l25 123h188z" />
<glyph unicode="&#xa6;" d="M410 -350v758h206v-758h-206zM410 674v758h206v-758h-206z" />
<glyph unicode="&#xa7;" d="M498 813l-29 14q-172 -84 -172 -192q0 -61 61 -113t197 -106q76 45 118 96.5t42 101.5q0 82 -217 199zM1022 1389l-61 -187q-183 82 -308 82q-100 0 -154.5 -35t-54.5 -98q0 -81 189 -190l6 -5q205 -118 256 -184q55 -64 55 -154q0 -186 -260 -309q129 -97 129 -237 q0 -148 -127.5 -237t-343.5 -89q-210 0 -465 98l78 199q171 -109 379 -109q229 0 229 144q0 86 -196 194l-19 11q-166 93 -231 170q-60 75 -60 172q0 191 263 303q-125 107 -125 229q0 133 114 219q116 88 303 88q172 0 404 -75z" />
<glyph unicode="&#xa8;" d="M705 1239l49 227h207l-48 -227h-208zM358 1239l50 227h206l-47 -227h-209z" />
<glyph unicode="&#xa9;" horiz-adv-x="1705" d="M1212 897h-188q-8 69 -53.5 108t-118.5 39q-91 0 -143 -81.5t-52 -227.5q0 -147 52 -224t151 -77q74 0 118.5 42t51.5 120h193q-7 -139 -108 -223t-261 -84q-186 0 -293.5 118t-107.5 322q0 207 109 329t294 122q152 0 250.5 -78t105.5 -205zM854 1356q-258 0 -438 -180 q-88 -91 -135.5 -205t-47.5 -236q0 -124 47.5 -237t135.5 -201t201 -135t237 -47q255 0 442 184q179 176 179 436q0 125 -46.5 238t-134.5 201q-182 182 -440 182zM852 1479q152 0 288 -56.5t242 -162.5q104 -104 159.5 -239.5t55.5 -287.5q0 -308 -215 -520 q-110 -108 -246.5 -165.5t-283.5 -57.5q-301 0 -522 221q-106 106 -162.5 240.5t-56.5 281.5q0 149 56.5 284.5t162.5 244.5q214 217 522 217z" />
<glyph unicode="&#xaa;" horiz-adv-x="868" d="M555 1044q-34 3 -82 3q-272 0 -272 -144q0 -44 33 -71t88 -27q90 0 153 65t80 174zM758 1098l-47 -215q-25 -104 -35 -189h-170l16 113q-103 -127 -264 -127q-115 0 -184.5 58t-69.5 151q0 125 116 195.5t324 70.5q3 0 93 -4q7 -1 22 -2t21 -2q2 8 2 35q0 66 -43 101.5 t-123 35.5q-102 0 -238 -53l25 139q121 41 256 41q150 0 231.5 -62.5t81.5 -179.5q0 -29 -14 -106z" />
<glyph unicode="&#xab;" horiz-adv-x="1222" d="M532 528l383 416h265l-400 -428l301 -412h-247zM74 549l366 395h265l-379 -412l309 -428h-248z" />
<glyph unicode="&#xac;" horiz-adv-x="1705" d="M254 668v196h1198v-502h-199v306h-999z" />
<glyph unicode="&#xad;" horiz-adv-x="677" d="M25 481l41 199h532l-41 -199h-532z" />
<glyph unicode="&#xae;" horiz-adv-x="1705" d="M834 1034h-89v-239h99q88 0 129 28t41 88q0 63 -44 93t-136 30zM545 336v825h323q353 0 353 -237q0 -82 -48 -140.5t-133 -78.5l185 -369h-224l-157 338h-99v-338h-200zM854 1356q-256 0 -432 -176q-91 -91 -140 -206.5t-49 -238.5q0 -124 46 -235.5t133 -198.5 q91 -91 204 -139.5t236 -48.5q246 0 440 182q87 86 135 197t48 231q0 263 -177 446q-184 187 -444 187zM852 1479q154 0 291 -57.5t243 -166.5q103 -104 157 -238.5t54 -283.5q0 -152 -56.5 -287.5t-162.5 -238.5q-106 -104 -243 -160.5t-283 -56.5q-149 0 -285.5 58 t-242.5 167q-104 104 -158.5 237.5t-54.5 280.5q0 203 108 387q100 170 266 264.5t367 94.5z" />
<glyph unicode="&#xaf;" d="M358 1278l31 147h574l-31 -147h-574z" />
<glyph unicode="&#xb0;" horiz-adv-x="673" d="M338 1335q-73 0 -124.5 -51t-51.5 -123q0 -73 51 -124.5t125 -51.5q72 0 123 52t51 124t-51 123t-123 51zM338 1464q125 0 215 -90q88 -88 88 -215q0 -125 -90 -215q-88 -88 -215 -88q-125 0 -213 88t-88 215t88 215q90 90 215 90z" />
<glyph unicode="&#xb1;" horiz-adv-x="1705" d="M254 -2v199h1198v-199h-1198zM752 897v326h202v-326h498v-199h-498v-325h-202v325h-498v199h498z" />
<glyph unicode="&#xb2;" horiz-adv-x="800" d="M516 883l-266 -191h399l-31 -125h-624l29 123l344 254q96 72 140 130t44 112q0 60 -41 92.5t-113 32.5q-77 0 -217 -60l19 144q140 43 252 43q127 0 206.5 -62t79.5 -162q0 -91 -52 -168.5t-169 -162.5z" />
<glyph unicode="&#xb3;" horiz-adv-x="800" d="M500 1012q75 -19 118.5 -67.5t43.5 -115.5q0 -123 -109 -200.5t-285 -77.5q-146 0 -286 51l41 131q96 -47 215 -47q108 0 175.5 42t67.5 108q0 122 -223 122q-14 0 -30 -1t-19 -1l27 117h69q258 0 258 123q0 54 -46.5 85.5t-125.5 31.5q-101 0 -219 -43l18 133 q128 35 238 35q146 0 229.5 -57.5t83.5 -157.5q0 -85 -64.5 -141.5t-176.5 -69.5z" />
<glyph unicode="&#xb4;" d="M463 1178l237 362h246l-354 -362h-129z" />
<glyph unicode="&#xb5;" horiz-adv-x="1249" d="M-63 -438l268 1530h289l-76 -435q-31 -183 -31 -268q0 -184 170 -184q100 0 155.5 82.5t92.5 290.5l90 514h289l-193 -1092h-268l18 117q-43 -78 -94.5 -114t-120.5 -36q-132 0 -213 121l-90 -526h-286z" />
<glyph unicode="&#xb6;" d="M432 1479h551v-111h-113v-1368h-151v1368h-158v-1368h-153v784q-165 6 -266 101.5t-101 244.5q0 158 107 253.5t284 95.5z" />
<glyph unicode="&#xb7;" horiz-adv-x="606" d="M305 852q60 0 100.5 -40.5t40.5 -100.5q0 -57 -42 -98.5t-99 -41.5t-99 41.5t-42 98.5t42 99t99 42z" />
<glyph unicode="&#xb8;" d="M334 -201l69 201h95l-35 -98h8q109 0 166 -43t57 -125q0 -103 -68.5 -160t-191.5 -57q-109 0 -282 55l43 111q116 -48 223 -48q54 0 85.5 23t31.5 61q0 43 -37 61.5t-127 18.5h-37z" />
<glyph unicode="&#xb9;" horiz-adv-x="800" d="M168 1255l332 164h133l-195 -852h-174l164 686l-182 -118z" />
<glyph unicode="&#xba;" horiz-adv-x="956" d="M666 1118q0 87 -48.5 139t-128.5 52q-100 0 -176 -88q-73 -88 -73 -209q0 -91 50 -146t132 -55q102 0 172 88q72 90 72 219zM508 1442q170 0 267 -90t97 -248q0 -181 -135 -307q-132 -123 -336 -123q-170 0 -269 90t-99 244q0 194 131 313q133 121 344 121z" />
<glyph unicode="&#xbb;" horiz-adv-x="1222" d="M840 514l-308 428h248l312 -442l-365 -396h-266zM385 530l-301 412h248l301 -422l-381 -416h-264z" />
<glyph unicode="&#xbc;" horiz-adv-x="1871" d="M1544 283l103 399l-381 -399h278zM1124 285l500 512h199l-123 -514h127l-27 -111h-127l-41 -172h-166l41 172h-403zM471 -29l756 1481h170l-752 -1481h-174zM160 1268l315 153h127l-184 -796h-168l158 639l-175 -109z" />
<glyph unicode="&#xbd;" horiz-adv-x="1871" d="M1599 295l-253 -178h378l-26 -117h-598l26 115l330 237q176 128 176 226q0 55 -39 85.5t-108 30.5q-84 0 -207 -57l18 135q125 41 240 41q121 0 196.5 -58t75.5 -151q0 -86 -49 -158.5t-160 -150.5zM471 -29l756 1481h170l-752 -1481h-174zM160 1268l315 153h127 l-184 -796h-168l158 639l-175 -109z" />
<glyph unicode="&#xbe;" horiz-adv-x="1871" d="M1546 283l103 399l-381 -399h278zM1126 285l500 512h199l-123 -514h127l-27 -111h-127l-41 -172h-166l41 172h-403zM473 -29l756 1481h170l-752 -1481h-174zM475 1040q75 -19 115.5 -63t40.5 -107q0 -117 -104 -189.5t-271 -72.5q-135 0 -272 49l36 123q91 -45 207 -45 q104 0 168 39.5t64 102.5q0 112 -213 112h-45l24 109q11 0 32 -1t34 -1q128 0 188 28t60 88q0 50 -44 78.5t-122 28.5q-97 0 -209 -39l18 125q127 31 226 31q140 0 219.5 -53t79.5 -146q0 -78 -62 -131t-170 -66z" />
<glyph unicode="&#xbf;" horiz-adv-x="1087" d="M535 997h221q-9 -100 -49 -176q-39 -71 -144 -168l-47 -41q-188 -167 -188 -260q0 -82 66.5 -132t176.5 -50q146 0 277 61l-39 -213q-152 -47 -320 -47q-186 0 -307 95q-116 94 -116 245q0 78 42.5 161t120.5 155l35 30q254 226 271 340zM549 1163l53 258h272l-55 -258 h-270z" />
<glyph unicode="&#xc0;" horiz-adv-x="1458" d="M973 545l-96 661l-383 -661h479zM-117 0l856 1421h346l246 -1421h-278l-54 336h-620l-197 -336h-299zM924 1550l-289 363h221l188 -363h-120z" />
<glyph unicode="&#xc1;" horiz-adv-x="1458" d="M973 545l-96 661l-383 -661h479zM-117 0l856 1421h346l246 -1421h-278l-54 336h-620l-197 -336h-299zM733 1550l238 363h246l-355 -363h-129z" />
<glyph unicode="&#xc2;" horiz-adv-x="1458" d="M973 545l-96 661l-383 -661h479zM-117 0l856 1421h346l246 -1421h-278l-54 336h-620l-197 -336h-299zM588 1550l262 363h207l135 -363h-115l-135 219l-227 -219h-127z" />
<glyph unicode="&#xc3;" horiz-adv-x="1458" d="M973 545l-96 661l-383 -661h479zM-117 0l856 1421h346l246 -1421h-278l-54 336h-620l-197 -336h-299zM1141 1858h104q-32 -117 -85.5 -172.5t-131.5 -55.5q-21 0 -80 15l-76 22q-38 10 -57 10q-70 0 -94 -86h-105q32 117 84.5 173.5t130.5 56.5q36 0 80 -13l76 -24 q30 -10 53 -10q37 0 60.5 19.5t40.5 64.5z" />
<glyph unicode="&#xc4;" horiz-adv-x="1458" d="M973 545l-96 661l-383 -661h479zM-117 0l856 1421h346l246 -1421h-278l-54 336h-620l-197 -336h-299zM975 1612l49 227h207l-47 -227h-209zM629 1612l49 227h207l-47 -227h-209z" />
<glyph unicode="&#xc5;" horiz-adv-x="1458" d="M973 545l-96 661l-383 -661h479zM-117 0l856 1421h346l246 -1421h-278l-54 336h-620l-197 -336h-299zM922 1898q-57 0 -97.5 -40t-40.5 -97t40.5 -96t97.5 -39t95 39t38 96q0 60 -38 98.5t-95 38.5zM920 2021q109 0 184 -75q76 -73 76 -183q0 -108 -76 -184t-184 -76 q-109 0 -185 76q-73 76 -73 184q0 110 73 183q75 75 185 75z" />
<glyph unicode="&#xc6;" horiz-adv-x="1972" d="M954 1225l-424 -682h406l113 682h-95zM-88 0l897 1421h1178l-45 -204h-617l-59 -371h565l-43 -203h-559l-76 -436h600l-45 -207h-872l59 342h-479l-213 -342h-291z" />
<glyph unicode="&#xc7;" horiz-adv-x="1310" d="M1384 1372l-71 -225q-169 88 -342 88q-288 0 -453 -188q-67 -78 -107 -188.5t-40 -219.5q0 -203 122.5 -321.5t331.5 -118.5q154 0 312 71l-27 -247q-184 -52 -350 -52q-315 0 -500 176q-182 179 -182 482q0 190 80 357t229 290q207 174 574 174q181 0 423 -78zM627 -201 l69 201h95l-35 -98h8q109 0 166 -43t57 -125q0 -103 -68.5 -160t-191.5 -57q-110 0 -283 55l43 111q116 -48 224 -48q55 0 85.5 22.5t30.5 61.5q0 43 -36.5 61.5t-126.5 18.5h-37z" />
<glyph unicode="&#xc8;" horiz-adv-x="1146" d="M4 0l303 1421h881l-45 -204h-598l-80 -371h565l-41 -203h-567l-92 -436h624l-45 -207h-905zM768 1550l-289 363h221l189 -363h-121z" />
<glyph unicode="&#xc9;" horiz-adv-x="1146" d="M4 0l303 1421h881l-45 -204h-598l-80 -371h565l-41 -203h-567l-92 -436h624l-45 -207h-905zM578 1550l237 363h246l-354 -363h-129z" />
<glyph unicode="&#xca;" horiz-adv-x="1146" d="M4 0l303 1421h881l-45 -204h-598l-80 -371h565l-41 -203h-567l-92 -436h624l-45 -207h-905zM432 1550l262 363h207l135 -363h-114l-136 219l-227 -219h-127z" />
<glyph unicode="&#xcb;" horiz-adv-x="1146" d="M4 0l303 1421h881l-45 -204h-598l-80 -371h565l-41 -203h-567l-92 -436h624l-45 -207h-905zM819 1612l49 227h207l-47 -227h-209zM473 1612l49 227h207l-47 -227h-209z" />
<glyph unicode="&#xcc;" horiz-adv-x="608" d="M8 0l301 1421h281l-301 -1421h-281zM498 1550l-289 363h221l188 -363h-120z" />
<glyph unicode="&#xcd;" horiz-adv-x="608" d="M8 0l301 1421h281l-301 -1421h-281zM307 1550l238 363h246l-355 -363h-129z" />
<glyph unicode="&#xce;" horiz-adv-x="608" d="M8 0l301 1421h281l-301 -1421h-281zM162 1550l262 363h207l135 -363h-115l-135 219l-227 -219h-127z" />
<glyph unicode="&#xcf;" horiz-adv-x="608" d="M8 0l301 1421h281l-301 -1421h-281zM549 1612l49 227h207l-47 -227h-209zM203 1612l49 227h207l-47 -227h-209z" />
<glyph unicode="&#xd0;" horiz-adv-x="1503" d="M729 1210h-160l-82 -393h287l-33 -164h-288l-93 -436h164q253 0 396 113q96 78 155 211q60 138 60 272q0 192 -105 294.5t-301 102.5zM199 817l127 604h399q346 0 523 -155t177 -461q0 -214 -94 -395q-91 -181 -250 -277q-118 -70 -249 -101.5t-318 -31.5h-489l141 653 h-174l35 164h172z" />
<glyph unicode="&#xd1;" horiz-adv-x="1521" d="M6 0l301 1421h348l371 -1112l227 1112h258l-301 -1421h-348l-366 1120l-230 -1120h-260zM1171 1858h105q-32 -117 -85.5 -172.5t-131.5 -55.5q-21 0 -80 15l-76 22q-38 10 -57 10q-70 0 -94 -86h-105q32 117 84.5 173.5t130.5 56.5q36 0 80 -13l76 -24q30 -10 53 -10 q38 0 60 19.5t40 64.5z" />
<glyph unicode="&#xd2;" horiz-adv-x="1548" d="M1169 864q0 178 -83.5 278.5t-231.5 100.5q-89 0 -173 -45t-146 -129q-75 -98 -117.5 -231t-42.5 -269q0 -178 83 -278.5t230 -100.5q193 0 338 199q67 90 105 217t38 258zM866 1452q283 0 439.5 -156.5t156.5 -439.5q0 -198 -66.5 -371t-191.5 -301q-210 -213 -540 -213 q-270 0 -426 166q-156 169 -156 453q0 179 65.5 345.5t186.5 293.5q211 223 532 223zM969 1550l-289 363h221l189 -363h-121z" />
<glyph unicode="&#xd3;" horiz-adv-x="1548" d="M1169 864q0 178 -83.5 278.5t-231.5 100.5q-89 0 -173 -45t-146 -129q-75 -98 -117.5 -231t-42.5 -269q0 -178 83 -278.5t230 -100.5q193 0 338 199q67 90 105 217t38 258zM866 1452q283 0 439.5 -156.5t156.5 -439.5q0 -198 -66.5 -371t-191.5 -301q-210 -213 -540 -213 q-270 0 -426 166q-156 169 -156 453q0 179 65.5 345.5t186.5 293.5q211 223 532 223zM778 1550l238 363h246l-355 -363h-129z" />
<glyph unicode="&#xd4;" horiz-adv-x="1548" d="M1169 864q0 178 -83.5 278.5t-231.5 100.5q-89 0 -173 -45t-146 -129q-75 -98 -117.5 -231t-42.5 -269q0 -178 83 -278.5t230 -100.5q193 0 338 199q67 90 105 217t38 258zM866 1452q283 0 439.5 -156.5t156.5 -439.5q0 -198 -66.5 -371t-191.5 -301q-210 -213 -540 -213 q-270 0 -426 166q-156 169 -156 453q0 179 65.5 345.5t186.5 293.5q211 223 532 223zM633 1550l262 363h207l135 -363h-115l-135 219l-227 -219h-127z" />
<glyph unicode="&#xd5;" horiz-adv-x="1548" d="M1169 864q0 178 -83.5 278.5t-231.5 100.5q-89 0 -173 -45t-146 -129q-75 -98 -117.5 -231t-42.5 -269q0 -178 83 -278.5t230 -100.5q193 0 338 199q67 90 105 217t38 258zM866 1452q283 0 439.5 -156.5t156.5 -439.5q0 -198 -66.5 -371t-191.5 -301q-210 -213 -540 -213 q-270 0 -426 166q-156 169 -156 453q0 179 65.5 345.5t186.5 293.5q211 223 532 223zM1186 1858h104q-32 -117 -85.5 -172.5t-131.5 -55.5q-21 0 -80 15l-75 22q-38 10 -58 10q-70 0 -94 -86h-104q32 117 84.5 173.5t130.5 56.5q35 0 79 -13l76 -24q30 -10 53 -10 q37 0 60.5 19.5t40.5 64.5z" />
<glyph unicode="&#xd6;" horiz-adv-x="1548" d="M1169 864q0 178 -83.5 278.5t-231.5 100.5q-89 0 -173 -45t-146 -129q-75 -98 -117.5 -231t-42.5 -269q0 -178 83 -278.5t230 -100.5q193 0 338 199q67 90 105 217t38 258zM866 1452q283 0 439.5 -156.5t156.5 -439.5q0 -198 -66.5 -371t-191.5 -301q-210 -213 -540 -213 q-270 0 -426 166q-156 169 -156 453q0 179 65.5 345.5t186.5 293.5q211 223 532 223zM1020 1612l49 227h207l-47 -227h-209zM674 1612l49 227h207l-47 -227h-209z" />
<glyph unicode="&#xd7;" horiz-adv-x="1705" d="M276 1063l140 139l450 -450l451 450l141 -139l-450 -453l450 -450l-141 -140l-451 451l-450 -451l-140 140l451 450z" />
<glyph unicode="&#xd8;" horiz-adv-x="1548" d="M1120 1094l-620 -861q75 -57 178 -57q204 0 358 203q68 91 106 217.5t38 261.5q0 167 -60 236zM399 369l611 850q-59 36 -144 36q-201 0 -340 -178q-78 -99 -119.5 -233.5t-41.5 -282.5q0 -111 34 -192zM1143 1403l160 217l129 -102l-150 -203q182 -173 182 -451 q0 -214 -73.5 -395.5t-212.5 -308.5q-204 -189 -519 -189q-170 0 -297 74l-167 -229l-129 102l165 223q-149 186 -149 457q0 192 74 362.5t213 299.5q204 192 514 192q141 0 260 -49z" />
<glyph unicode="&#xd9;" horiz-adv-x="1460" d="M135 653l166 768h283l-174 -815q-19 -75 -19 -160q0 -121 68.5 -194.5t181.5 -73.5q140 0 223 103t137 342l175 798h274l-178 -854q-66 -309 -226 -454.5t-432 -145.5q-235 0 -370 123t-135 338q0 95 26 225zM924 1550l-289 363h221l188 -363h-120z" />
<glyph unicode="&#xda;" horiz-adv-x="1460" d="M135 653l166 768h283l-174 -815q-19 -75 -19 -160q0 -121 68.5 -194.5t181.5 -73.5q140 0 223 103t137 342l175 798h274l-178 -854q-66 -309 -226 -454.5t-432 -145.5q-235 0 -370 123t-135 338q0 95 26 225zM733 1550l238 363h246l-355 -363h-129z" />
<glyph unicode="&#xdb;" horiz-adv-x="1460" d="M135 653l166 768h283l-174 -815q-19 -75 -19 -160q0 -121 68.5 -194.5t181.5 -73.5q140 0 223 103t137 342l175 798h274l-178 -854q-66 -309 -226 -454.5t-432 -145.5q-235 0 -370 123t-135 338q0 95 26 225zM588 1550l262 363h207l135 -363h-115l-135 219l-227 -219 h-127z" />
<glyph unicode="&#xdc;" horiz-adv-x="1460" d="M135 653l166 768h283l-174 -815q-19 -75 -19 -160q0 -121 68.5 -194.5t181.5 -73.5q140 0 223 103t137 342l175 798h274l-178 -854q-66 -309 -226 -454.5t-432 -145.5q-235 0 -370 123t-135 338q0 95 26 225zM975 1612l49 227h207l-47 -227h-209zM629 1612l49 227h207 l-47 -227h-209z" />
<glyph unicode="&#xdd;" horiz-adv-x="1329" d="M479 567l-354 854h307l225 -626l482 626h327l-704 -858l-117 -563h-283zM668 1550l237 363h246l-354 -363h-129z" />
<glyph unicode="&#xde;" horiz-adv-x="1171" d="M584 944h-113l-96 -452q21 -3 84 -3q194 0 287.5 66t93.5 201q0 92 -65.5 140t-190.5 48zM-10 0l301 1421h278l-57 -276h96q252 0 381 -96.5t129 -286.5q0 -224 -164 -356t-442 -132q-84 0 -180 7l-62 -281h-280z" />
<glyph unicode="&#xdf;" horiz-adv-x="1265" d="M885 807q254 -76 254 -320q0 -219 -146 -362q-145 -139 -379 -139q-125 0 -225 32l49 199q82 -29 148 -29q125 0 203.5 83t78.5 216q0 110 -59 168t-172 58q-37 0 -47 -2l41 192h16q143 0 225 74t82 203q0 79 -50 129.5t-128 50.5q-110 0 -177.5 -71.5t-98.5 -219.5 l-228 -1069h-272l229 1087q51 235 189 348t373 113q195 0 309 -98t114 -264q0 -141 -87.5 -241.5t-241.5 -137.5z" />
<glyph unicode="&#xe0;" horiz-adv-x="1157" d="M739 500h-10q-90 4 -98 4q-183 0 -273 -50.5t-90 -154.5q0 -63 43.5 -102t116.5 -39q121 0 204.5 91.5t106.5 250.5zM1010 575l-64 -305q-37 -179 -45 -270h-227l22 160q-134 -180 -352 -180q-152 0 -246 82.5t-94 216.5q0 179 155 278.5t433 99.5q58 0 180 -10 q4 46 4 49q0 94 -57.5 144.5t-163.5 50.5q-146 0 -317 -76l32 201q165 57 340 57q201 0 309.5 -89t108.5 -255q0 -69 -18 -154zM700 1178l-288 362h221l188 -362h-121z" />
<glyph unicode="&#xe1;" horiz-adv-x="1157" d="M739 500h-10q-90 4 -98 4q-183 0 -273 -50.5t-90 -154.5q0 -63 43.5 -102t116.5 -39q121 0 204.5 91.5t106.5 250.5zM1010 575l-64 -305q-37 -179 -45 -270h-227l22 160q-134 -180 -352 -180q-152 0 -246 82.5t-94 216.5q0 179 155 278.5t433 99.5q58 0 180 -10 q4 46 4 49q0 94 -57.5 144.5t-163.5 50.5q-146 0 -317 -76l32 201q165 57 340 57q201 0 309.5 -89t108.5 -255q0 -69 -18 -154zM510 1178l238 362h245l-354 -362h-129z" />
<glyph unicode="&#xe2;" horiz-adv-x="1157" d="M739 500h-10q-90 4 -98 4q-183 0 -273 -50.5t-90 -154.5q0 -63 43.5 -102t116.5 -39q121 0 204.5 91.5t106.5 250.5zM1010 575l-64 -305q-37 -179 -45 -270h-227l22 160q-134 -180 -352 -180q-152 0 -246 82.5t-94 216.5q0 179 155 278.5t433 99.5q58 0 180 -10 q4 46 4 49q0 94 -57.5 144.5t-163.5 50.5q-146 0 -317 -76l32 201q165 57 340 57q201 0 309.5 -89t108.5 -255q0 -69 -18 -154zM365 1178l262 362h207l135 -362h-115l-135 219l-227 -219h-127z" />
<glyph unicode="&#xe3;" horiz-adv-x="1157" d="M739 500h-10q-90 4 -98 4q-183 0 -273 -50.5t-90 -154.5q0 -63 43.5 -102t116.5 -39q121 0 204.5 91.5t106.5 250.5zM1010 575l-64 -305q-37 -179 -45 -270h-227l22 160q-134 -180 -352 -180q-152 0 -246 82.5t-94 216.5q0 179 155 278.5t433 99.5q58 0 180 -10 q4 46 4 49q0 94 -57.5 144.5t-163.5 50.5q-146 0 -317 -76l32 201q165 57 340 57q201 0 309.5 -89t108.5 -255q0 -69 -18 -154zM918 1485h104q-32 -117 -85.5 -172.5t-131.5 -55.5q-21 0 -80 15l-76 22q-42 11 -57 11q-70 0 -94 -86h-105q32 117 84.5 173t130.5 56 q40 0 80 -12l76 -25q30 -10 53 -10q37 0 60.5 19.5t40.5 64.5z" />
<glyph unicode="&#xe4;" horiz-adv-x="1157" d="M739 500h-10q-90 4 -98 4q-183 0 -273 -50.5t-90 -154.5q0 -63 43.5 -102t116.5 -39q121 0 204.5 91.5t106.5 250.5zM1010 575l-64 -305q-37 -179 -45 -270h-227l22 160q-134 -180 -352 -180q-152 0 -246 82.5t-94 216.5q0 179 155 278.5t433 99.5q58 0 180 -10 q4 46 4 49q0 94 -57.5 144.5t-163.5 50.5q-146 0 -317 -76l32 201q165 57 340 57q201 0 309.5 -89t108.5 -255q0 -69 -18 -154zM752 1239l49 227h207l-47 -227h-209zM406 1239l49 227h207l-48 -227h-208z" />
<glyph unicode="&#xe5;" horiz-adv-x="1157" d="M739 500h-10q-90 4 -98 4q-183 0 -273 -50.5t-90 -154.5q0 -63 43.5 -102t116.5 -39q121 0 204.5 91.5t106.5 250.5zM1010 575l-64 -305q-37 -179 -45 -270h-227l22 160q-134 -180 -352 -180q-152 0 -246 82.5t-94 216.5q0 179 155 278.5t433 99.5q58 0 180 -10 q4 46 4 49q0 94 -57.5 144.5t-163.5 50.5q-146 0 -317 -76l32 201q165 57 340 57q201 0 309.5 -89t108.5 -255q0 -69 -18 -154zM682 1565q-57 0 -96 -38.5t-39 -94.5q0 -60 39 -100t96 -40t96 39t39 96t-39 97.5t-96 40.5zM682 1688q108 0 184 -76t76 -182q0 -109 -76 -185 q-77 -74 -184 -74t-184 74q-74 77 -74 185t74 182q76 76 184 76z" />
<glyph unicode="&#xe6;" horiz-adv-x="1783" d="M739 494h-6q-86 4 -92 4q-177 0 -268.5 -50.5t-91.5 -148.5q0 -61 45 -101t114 -40q113 0 193.5 90.5t105.5 245.5zM1001 629h461q6 27 6 59q0 94 -54.5 153.5t-141.5 59.5q-94 0 -168 -74t-103 -198zM948 930q157 139 344 139q180 0 284.5 -111t104.5 -303 q0 -87 -18 -190h-696v-6q0 -141 72.5 -218t207.5 -77q140 0 287 72l-25 -209q-149 -58 -311 -58q-155 0 -253.5 57.5t-149.5 176.5q-158 -223 -435 -223q-154 0 -248 81.5t-94 214.5q0 178 157.5 277.5t440.5 99.5q60 0 144 -8h12q1 11 2 21t1.5 16t0.5 12q0 92 -58.5 143.5 t-164.5 51.5q-126 0 -297 -74l33 201q189 59 321 59q238 0 338 -145z" />
<glyph unicode="&#xe7;" horiz-adv-x="974" d="M993 1006l-63 -199q-119 51 -230 51q-168 0 -276 -102q-107 -101 -107 -264q0 -131 81 -215t210 -84q106 0 223 47l-32 -220q-135 -38 -287 -38q-215 0 -348 133q-131 134 -131 352q0 128 50 243t144 203q163 150 449 150q185 0 317 -57zM381 -201l70 201h94l-35 -98h8 q109 0 166 -43t57 -125q0 -103 -68.5 -160t-191.5 -57q-109 0 -282 55l43 111q116 -48 223 -48q54 0 85.5 23t31.5 61q0 43 -37 61.5t-127 18.5h-37z" />
<glyph unicode="&#xe8;" horiz-adv-x="1161" d="M1040 453h-743q0 -2 -1 -14t-1 -25q0 -117 78 -183.5t217 -66.5q168 0 299 67l-15 -204q-171 -58 -342 -58q-232 0 -362.5 128t-130.5 354q0 123 45 238.5t127 203.5q88 94 191.5 137t242.5 43q192 0 304 -112.5t112 -307.5q0 -80 -21 -200zM326 618h499v7q4 46 4 51 q0 104 -52.5 161.5t-149.5 57.5q-106 0 -187.5 -74.5t-113.5 -202.5zM723 1178l-289 362h221l189 -362h-121z" />
<glyph unicode="&#xe9;" horiz-adv-x="1161" d="M1040 453h-743q0 -2 -1 -14t-1 -25q0 -117 78 -183.5t217 -66.5q168 0 299 67l-15 -204q-171 -58 -342 -58q-232 0 -362.5 128t-130.5 354q0 123 45 238.5t127 203.5q88 94 191.5 137t242.5 43q192 0 304 -112.5t112 -307.5q0 -80 -21 -200zM326 618h499v7q4 46 4 51 q0 104 -52.5 161.5t-149.5 57.5q-106 0 -187.5 -74.5t-113.5 -202.5zM532 1178l238 362h246l-354 -362h-130z" />
<glyph unicode="&#xea;" horiz-adv-x="1161" d="M1040 453h-743q0 -2 -1 -14t-1 -25q0 -117 78 -183.5t217 -66.5q168 0 299 67l-15 -204q-171 -58 -342 -58q-232 0 -362.5 128t-130.5 354q0 123 45 238.5t127 203.5q88 94 191.5 137t242.5 43q192 0 304 -112.5t112 -307.5q0 -80 -21 -200zM326 618h499v7q4 46 4 51 q0 104 -52.5 161.5t-149.5 57.5q-106 0 -187.5 -74.5t-113.5 -202.5zM387 1178l262 362h207l135 -362h-114l-136 219l-227 -219h-127z" />
<glyph unicode="&#xeb;" horiz-adv-x="1161" d="M1040 453h-743q0 -2 -1 -14t-1 -25q0 -117 78 -183.5t217 -66.5q168 0 299 67l-15 -204q-171 -58 -342 -58q-232 0 -362.5 128t-130.5 354q0 123 45 238.5t127 203.5q88 94 191.5 137t242.5 43q192 0 304 -112.5t112 -307.5q0 -80 -21 -200zM326 618h499v7q4 46 4 51 q0 104 -52.5 161.5t-149.5 57.5q-106 0 -187.5 -74.5t-113.5 -202.5zM774 1239l49 227h207l-47 -227h-209zM428 1239l49 227h207l-47 -227h-209z" />
<glyph unicode="&#xec;" horiz-adv-x="587" d="M25 0l223 1040h264l-221 -1040h-266zM436 1178l-289 362h222l188 -362h-121z" />
<glyph unicode="&#xed;" horiz-adv-x="587" d="M25 0l223 1040h264l-221 -1040h-266zM246 1178l237 362h246l-354 -362h-129z" />
<glyph unicode="&#xee;" horiz-adv-x="587" d="M25 0l223 1040h264l-221 -1040h-266zM100 1178l262 362h207l136 -362h-115l-135 219l-228 -219h-127z" />
<glyph unicode="&#xef;" horiz-adv-x="587" d="M25 0l223 1040h264l-221 -1040h-266zM487 1239l50 227h206l-47 -227h-209zM141 1239l49 227h207l-47 -227h-209z" />
<glyph unicode="&#xf0;" horiz-adv-x="1273" d="M887 606q0 125 -63 198t-171 73q-134 0 -235 -125q-99 -126 -99 -301q0 -127 66 -206t172 -79q139 0 234 127q96 128 96 313zM389 1532h293q37 -35 94 -102l254 75l41 -112l-207 -64q155 -195 228 -367t73 -344q0 -291 -174 -468t-454 -177q-223 0 -351.5 121t-128.5 332 q0 139 59.5 274.5t159.5 223.5q69 61 166 96t197 35q67 0 152 -23q-54 102 -150 232l-307 -93l-39 119l260 76q-59 66 -166 166z" />
<glyph unicode="&#xf1;" horiz-adv-x="1280" d="M1110 479l-100 -479h-275l117 547q12 65 12 121q0 84 -44 130t-122 46q-117 0 -200.5 -95t-120.5 -272l-101 -477h-274l223 1049h246l-39 -185q163 201 381 201q152 0 239 -94t87 -256q0 -94 -29 -236zM999 1485h105q-32 -117 -85.5 -172.5t-131.5 -55.5q-21 0 -80 15 l-76 22q-42 11 -57 11q-70 0 -94 -86h-105q32 117 84.5 173t130.5 56q40 0 80 -12l76 -25q30 -10 53 -10q38 0 60 19.5t40 64.5z" />
<glyph unicode="&#xf2;" horiz-adv-x="1273" d="M887 604q0 125 -63 199t-171 74q-134 0 -235 -125q-99 -126 -99 -299q0 -130 66.5 -208.5t175.5 -78.5q135 0 230 127q96 128 96 311zM678 1067q223 0 354 -129.5t131 -351.5q0 -261 -180 -441q-174 -174 -448 -174q-228 0 -360 127t-132 348q0 278 174 449 q175 172 461 172zM778 1178l-289 362h222l188 -362h-121z" />
<glyph unicode="&#xf3;" horiz-adv-x="1273" d="M887 604q0 125 -63 199t-171 74q-134 0 -235 -125q-99 -126 -99 -299q0 -130 66.5 -208.5t175.5 -78.5q135 0 230 127q96 128 96 311zM678 1067q223 0 354 -129.5t131 -351.5q0 -261 -180 -441q-174 -174 -448 -174q-228 0 -360 127t-132 348q0 278 174 449 q175 172 461 172zM588 1178l237 362h246l-354 -362h-129z" />
<glyph unicode="&#xf4;" horiz-adv-x="1273" d="M887 604q0 125 -63 199t-171 74q-134 0 -235 -125q-99 -126 -99 -299q0 -130 66.5 -208.5t175.5 -78.5q135 0 230 127q96 128 96 311zM678 1067q223 0 354 -129.5t131 -351.5q0 -261 -180 -441q-174 -174 -448 -174q-228 0 -360 127t-132 348q0 278 174 449 q175 172 461 172zM442 1178l263 362h206l136 -362h-115l-135 219l-228 -219h-127z" />
<glyph unicode="&#xf5;" horiz-adv-x="1273" d="M887 604q0 125 -63 199t-171 74q-134 0 -235 -125q-99 -126 -99 -299q0 -130 66.5 -208.5t175.5 -78.5q135 0 230 127q96 128 96 311zM678 1067q223 0 354 -129.5t131 -351.5q0 -261 -180 -441q-174 -174 -448 -174q-228 0 -360 127t-132 348q0 278 174 449 q175 172 461 172zM995 1485h105q-32 -117 -85.5 -172.5t-131.5 -55.5q-21 0 -80 15l-76 22q-42 11 -57 11q-71 0 -95 -86h-104q32 117 84.5 173t130.5 56q40 0 80 -12l76 -25q30 -10 53 -10q38 0 62.5 20t37.5 64z" />
<glyph unicode="&#xf6;" horiz-adv-x="1273" d="M887 604q0 125 -63 199t-171 74q-134 0 -235 -125q-99 -126 -99 -299q0 -130 66.5 -208.5t175.5 -78.5q135 0 230 127q96 128 96 311zM678 1067q223 0 354 -129.5t131 -351.5q0 -261 -180 -441q-174 -174 -448 -174q-228 0 -360 127t-132 348q0 278 174 449 q175 172 461 172zM829 1239l50 227h206l-47 -227h-209zM483 1239l49 227h207l-47 -227h-209z" />
<glyph unicode="&#xf7;" horiz-adv-x="1705" d="M854 369q62 0 107 -45.5t45 -106.5t-45 -105t-107 -44q-63 0 -107.5 43t-44.5 106t44.5 107.5t107.5 44.5zM254 512v199h1198v-199h-1198zM854 1155q62 0 107 -44t45 -107t-44.5 -107.5t-107.5 -44.5t-107.5 44.5t-44.5 107.5t44.5 107t107.5 44z" />
<glyph unicode="&#xf8;" horiz-adv-x="1273" d="M864 768l-432 -584q49 -32 119 -32q150 0 252 129q102 132 102 323q0 77 -41 164zM344 276l436 584q-53 29 -123 29q-143 0 -249 -127q-105 -126 -105 -309q0 -106 41 -177zM891 1024l125 168l100 -78l-112 -153q161 -134 161 -373q0 -266 -188 -451q-164 -164 -453 -164 q-135 0 -209 41l-133 -180l-100 84l117 156q-158 149 -158 362q0 267 190 469q73 76 190.5 120t252.5 44q118 0 217 -45z" />
<glyph unicode="&#xf9;" horiz-adv-x="1280" d="M100 561l101 477h272l-115 -546q-14 -71 -14 -119q0 -84 44 -131t122 -47q118 0 201 94.5t120 271.5l103 477h272l-221 -1038h-248l41 176q-80 -98 -177.5 -150.5t-203.5 -52.5q-149 0 -238 96t-89 257q0 72 30 235zM745 1178l-288 362h221l188 -362h-121z" />
<glyph unicode="&#xfa;" horiz-adv-x="1280" d="M100 561l101 477h272l-115 -546q-14 -71 -14 -119q0 -84 44 -131t122 -47q118 0 201 94.5t120 271.5l103 477h272l-221 -1038h-248l41 176q-80 -98 -177.5 -150.5t-203.5 -52.5q-149 0 -238 96t-89 257q0 72 30 235zM555 1178l238 362h245l-354 -362h-129z" />
<glyph unicode="&#xfb;" horiz-adv-x="1280" d="M100 561l101 477h272l-115 -546q-14 -71 -14 -119q0 -84 44 -131t122 -47q118 0 201 94.5t120 271.5l103 477h272l-221 -1038h-248l41 176q-80 -98 -177.5 -150.5t-203.5 -52.5q-149 0 -238 96t-89 257q0 72 30 235zM410 1178l262 362h207l135 -362h-115l-135 219 l-227 -219h-127z" />
<glyph unicode="&#xfc;" horiz-adv-x="1280" d="M100 561l101 477h272l-115 -546q-14 -71 -14 -119q0 -84 44 -131t122 -47q118 0 201 94.5t120 271.5l103 477h272l-221 -1038h-248l41 176q-80 -98 -177.5 -150.5t-203.5 -52.5q-149 0 -238 96t-89 257q0 72 30 235zM797 1239l49 227h207l-47 -227h-209zM451 1239l49 227 h207l-48 -227h-208z" />
<glyph unicode="&#xfd;" horiz-adv-x="1105" d="M274 -16l-198 1056h270l105 -786l407 786h287l-676 -1185q-94 -168 -193 -236q-95 -68 -233 -68q-81 0 -215 41l66 199q58 -24 110 -24q65 0 122.5 29.5t84.5 74.5zM504 1178l237 362h246l-354 -362h-129z" />
<glyph unicode="&#xfe;" horiz-adv-x="1308" d="M926 612q0 115 -57 180.5t-154 65.5q-131 0 -226 -123q-96 -125 -96 -293q0 -117 60.5 -188.5t160.5 -71.5q129 0 220 125q92 127 92 305zM-76 -428l416 1960h270l-135 -631q68 80 156 123t186 43q180 0 283.5 -120t103.5 -331q0 -277 -151 -460q-150 -181 -379 -181 q-249 0 -346 213l-131 -616h-273z" />
<glyph unicode="&#xff;" horiz-adv-x="1105" d="M274 -16l-198 1056h270l105 -786l407 786h287l-676 -1185q-94 -168 -193 -236q-95 -68 -233 -68q-81 0 -215 41l66 199q58 -24 110 -24q65 0 122.5 29.5t84.5 74.5zM745 1239l50 227h206l-47 -227h-209zM399 1239l50 227h206l-47 -227h-209z" />
<glyph unicode="&#x152;" horiz-adv-x="2029" d="M911 215l209 999q-124 13 -202 13q-212 0 -326 -94q-103 -85 -163 -232.5t-60 -318.5q0 -379 395 -379q64 0 147 12zM1194 1421h852l-43 -204h-600l-78 -371h565l-43 -203h-565l-92 -436h622l-43 -207h-841q-18 0 -101 -6t-147 -6q-262 0 -426 170q-160 174 -160 454 q0 219 94.5 406t262.5 303q181 123 458 123q73 0 168 -12q116 -11 117 -11z" />
<glyph unicode="&#x153;" horiz-adv-x="1984" d="M1855 455h-743v-4q0 -135 78 -210t219 -75q167 0 313 70l-26 -209q-164 -54 -326 -54q-146 0 -241.5 38.5t-163.5 123.5q-192 -162 -433 -162q-229 0 -360 124t-131 341q0 278 172 453q176 176 453 176q247 0 385 -164q170 164 415 164q201 0 308.5 -112.5t107.5 -321.5 q0 -76 -27 -178zM1147 618h498q4 32 4 62q0 102 -55.5 161.5t-149.5 59.5q-104 0 -185 -77t-112 -206zM887 604q0 125 -63 199t-171 74q-134 0 -235 -125q-99 -126 -99 -299q0 -130 66.5 -208.5t175.5 -78.5q135 0 230 127q96 128 96 311z" />
<glyph unicode="&#x178;" horiz-adv-x="1329" d="M479 567l-354 854h307l225 -626l482 626h327l-704 -858l-117 -563h-283zM909 1612l49 227h207l-47 -227h-209zM563 1612l49 227h207l-47 -227h-209z" />
<glyph unicode="&#x2c6;" d="M317 1178l263 362h206l136 -362h-115l-135 219l-228 -219h-127z" />
<glyph unicode="&#x2dc;" d="M870 1485h105q-32 -117 -85.5 -172.5t-131.5 -55.5q-22 0 -80 15l-76 22q-42 11 -57 11q-70 0 -94 -86h-105q32 117 84.5 173t130.5 56q39 0 80 -12l76 -25q30 -10 53 -10q38 0 60 19.5t40 64.5z" />
<glyph unicode="&#x2000;" horiz-adv-x="1010" />
<glyph unicode="&#x2001;" horiz-adv-x="2021" />
<glyph unicode="&#x2002;" horiz-adv-x="1010" />
<glyph unicode="&#x2003;" horiz-adv-x="2021" />
<glyph unicode="&#x2004;" horiz-adv-x="673" />
<glyph unicode="&#x2005;" horiz-adv-x="505" />
<glyph unicode="&#x2006;" horiz-adv-x="336" />
<glyph unicode="&#x2007;" horiz-adv-x="336" />
<glyph unicode="&#x2008;" horiz-adv-x="252" />
<glyph unicode="&#x2009;" horiz-adv-x="404" />
<glyph unicode="&#x200a;" horiz-adv-x="112" />
<glyph unicode="&#x2010;" horiz-adv-x="677" d="M25 481l41 199h532l-41 -199h-532z" />
<glyph unicode="&#x2011;" horiz-adv-x="677" d="M25 481l41 199h532l-41 -199h-532z" />
<glyph unicode="&#x2012;" horiz-adv-x="677" d="M25 481l41 199h532l-41 -199h-532z" />
<glyph unicode="&#x2013;" d="M-41 500l33 153h1024l-33 -153h-1024z" />
<glyph unicode="&#x2014;" horiz-adv-x="2048" d="M-41 500l33 153h2048l-33 -153h-2048z" />
<glyph unicode="&#x2018;" horiz-adv-x="606" d="M164 1020l280 510h220l-218 -510h-282z" />
<glyph unicode="&#x2019;" horiz-adv-x="606" d="M188 1022l215 512h283l-280 -512h-218z" />
<glyph unicode="&#x201a;" horiz-adv-x="606" d="M-102 -242l219 504h282l-280 -504h-221z" />
<glyph unicode="&#x201c;" horiz-adv-x="1105" d="M647 1020l281 510h219l-217 -510h-283zM164 1020l278 510h220l-218 -510h-280z" />
<glyph unicode="&#x201d;" horiz-adv-x="1105" d="M680 1022l217 512h283l-281 -512h-219zM197 1022l215 512h282l-280 -512h-217z" />
<glyph unicode="&#x201e;" horiz-adv-x="1105" d="M387 -246l215 510h283l-281 -510h-217zM-98 -246l217 510h280l-280 -510h-217z" />
<glyph unicode="&#x2022;" horiz-adv-x="1208" d="M307 762q0 123 86 209q89 86 211 86q121 0 207 -86q88 -85 88 -209q0 -121 -88 -209q-85 -88 -209 -88q-123 0 -209 86q-86 89 -86 211z" />
<glyph unicode="&#x2026;" horiz-adv-x="2048" d="M78 0l57 264h266l-55 -264h-268zM760 0l57 264h266l-55 -264h-268zM1444 0l57 264h266l-55 -264h-268z" />
<glyph unicode="&#x202f;" horiz-adv-x="404" />
<glyph unicode="&#x2039;" horiz-adv-x="749" d="M68 543l364 395h266l-379 -410l308 -430h-248z" />
<glyph unicode="&#x203a;" horiz-adv-x="749" d="M362 508l-309 430h248l313 -444l-364 -396h-266z" />
<glyph unicode="&#x205f;" horiz-adv-x="505" />
<glyph unicode="&#x20ac;" horiz-adv-x="1214" d="M-41 520l45 123h143q0 82 17 182h-166l45 123h150q72 235 246 368.5t407 133.5q151 0 342 -78l-58 -225q-137 88 -276 88q-135 0 -230 -73t-145 -214h561l-45 -123h-544q-15 -83 -15 -182h531l-45 -123h-480q17 -164 89.5 -242.5t203.5 -78.5q119 0 252 71l-20 -247 q-151 -52 -285 -52q-226 0 -365.5 145t-164.5 404h-193z" />
<glyph unicode="&#x2122;" horiz-adv-x="1705" d="M803 915v547h196l127 -332l123 332h197v-547h-135v410l-154 -410h-61l-158 410v-410h-135zM207 1350v112h485v-112h-168v-435h-149v435h-168z" />
<glyph unicode="&#x25fc;" horiz-adv-x="1044" d="M0 1044h1044v-1044h-1044v1044z" />
<glyph unicode="&#xfb01;" horiz-adv-x="1390" d="M1403 1497l-55 -268h-275l55 268h275zM815 0l221 1040h267l-222 -1040h-266zM961 1520l-54 -189q-56 23 -108 23q-61 0 -108 -46t-66 -124l-35 -144h262l-41 -194h-262l-180 -846h-271l181 846h-220l41 194h219l39 181q32 158 141.5 243.5t276.5 85.5q108 0 185 -30z" />
<glyph unicode="&#xfb02;" horiz-adv-x="1390" d="M821 0l326 1532h270l-323 -1532h-273zM961 1520l-54 -189q-59 23 -100 23q-66 0 -114.5 -46t-67.5 -124l-35 -146h262l-41 -192h-262l-180 -846h-271l181 846h-220l41 192h219l39 183q32 158 141.5 243.5t276.5 85.5q108 0 185 -30z" />
</font>
</defs>
</svg>
