<?xml version="1.0" encoding="utf-8"?>
<!-- Generator: Adobe Illustrator 19.2.1, SVG Export Plug-In . SVG Version: 6.00 Build 0)  -->
<svg version="1.1" id="Layer_1" xmlns="http://www.w3.org/2000/svg" xmlns:xlink="http://www.w3.org/1999/xlink" x="0px" y="0px"
	 viewBox="0 0 118 28" style="enable-background:new 0 0 118 28;" xml:space="preserve">
<style type="text/css">
	.st0{fill:#939598;}
	.st1{clip-path:url(#SVGID_2_);fill:url(#SVGID_3_);}
	.st2{clip-path:url(#SVGID_5_);fill:url(#SVGID_6_);}
	.st3{clip-path:url(#SVGID_8_);fill:url(#SVGID_9_);}
	.st4{fill:#F7901E;}
	.st5{fill:#E1572A;}
</style>
<g>
	<g>
		<path class="st0" d="M49.27777,7.0663v0.62274c0,0.25359-0.20703,0.46095-0.45996,0.46095h-2.0419v6.34364
			c0,0.25392-0.20736,0.46095-0.45996,0.46095h-0.91595c-0.2526,0-0.45963-0.20702-0.45963-0.46095V8.14998h-2.04191
			c-0.25358,0-0.46095-0.20736-0.46095-0.46095V7.0663c0-0.25359,0.20737-0.46062,0.46095-0.46062h5.91934
			C49.07074,6.60567,49.27777,6.81271,49.27777,7.0663 M85.55524,12.23048c0-0.27307,0.02741-0.52666,0.08189-0.7601
			c0.05516-0.23443,0.14629-0.43783,0.27505-0.6135c0.12812-0.175,0.29817-0.31466,0.50883-0.4157h0.00098
			c0.20935-0.10104,0.4669-0.15255,0.77133-0.15255c0.0109,0,0.02245,0.00198,0.03434,0.00231h0.10006
			c0.25324,0,0.4606-0.2067,0.4606-0.46028V9.20792c0-0.05514-0.01088-0.10896-0.02872-0.15718
			c-0.06142-0.1674-0.21695-0.28892-0.40151-0.30146h-0.0208c-0.12417,0.00429-0.24567,0.02048-0.36389,0.04755
			c-0.08319,0.02245-0.1555,0.04458-0.1555,0.04458c-0.19514,0.06273-0.37807,0.15023-0.54944,0.2625
			c-0.17104,0.11392-0.32326,0.24963-0.45601,0.40943c-0.13273,0.16048-0.23772,0.3335-0.31532,0.52005v-0.00132h-0.02245
			l-0.00133-0.66005c0-0.25293-0.2057-0.46062-0.4593-0.46062h-0.65841c-0.25193,0-0.45995,0.20769-0.45995,0.46062v5.1216
			c0,0.25392,0.20802,0.46095,0.45995,0.46095h0.7393c0.25359,0,0.46028-0.20702,0.46028-0.46095V12.23048z M49.93419,12.23048
			c0-0.27307,0.02773-0.52666,0.08123-0.7601c0.05514-0.23345,0.14661-0.43783,0.27538-0.61316
			c0.12878-0.17533,0.29882-0.315,0.50817-0.41603h0.00132c0.21034-0.10104,0.46722-0.15255,0.77166-0.15255
			c0.01156,0,0.02411,0.00198,0.03401,0.00231h0.10038c0.25359,0,0.45996-0.20637,0.45996-0.46028V9.20792
			c0-0.05514-0.01024-0.10896-0.02807-0.15718c-0.06108-0.16674-0.21693-0.28859-0.40118-0.30113h-0.02014
			c-0.12415,0.00396-0.24632,0.02014-0.36486,0.04722c-0.08355,0.02245-0.15552,0.04458-0.15552,0.04458
			c-0.19514,0.06339-0.37774,0.15023-0.54877,0.2625c-0.17204,0.11392-0.32359,0.24963-0.45666,0.40943
			c-0.13241,0.16048-0.23773,0.33383-0.31599,0.52005l-0.00032-0.00132h-0.02213L49.8523,9.37236
			c0-0.25327-0.20637-0.46096-0.45995-0.46096h-0.65775c-0.25292,0-0.46029,0.20769-0.46029,0.46096v5.12126
			c0,0.25392,0.20737,0.46095,0.46029,0.46095h0.73929c0.25294,0,0.46029-0.20702,0.46029-0.46095V12.23048z M64.08916,10.21368
			c-0.06603-0.30806-0.18193-0.56925-0.34471-0.78387c-0.16378-0.21363-0.38831-0.3817-0.6726-0.50255
			c-0.28429-0.1215-0.64883-0.18095-1.09327-0.18095c-0.35066,0-0.69406,0.07991-1.02821,0.23906
			c-0.3358,0.16015-0.60855,0.41539-0.81921,0.76571h-0.03434V9.32975c0-0.23113-0.20801-0.41999-0.4616-0.42033h-0.65676
			c-0.25325,0-0.46128,0.20736-0.46128,0.46028v5.12391c0,0.25392,0.20802,0.46095,0.46128,0.46095h0.7393
			c0.25359,0,0.46061-0.20702,0.46061-0.46095v-2.7079c0-0.57025,0.08816-0.99057,0.26218-1.26364
			c0.01353-0.02213,0.02741-0.04359,0.04061-0.06274c0.20373-0.27009,0.53161-0.40415,0.98332-0.40415
			c0.39689,0,0.67392,0.12282,0.82977,0.36915c0.15618,0.24435,0.23377,0.61747,0.23377,1.11605v2.95323
			c0,0.25392,0.20704,0.46095,0.46029,0.46095h0.74062c0.25293,0,0.45963-0.20702,0.45963-0.46095v-2.79738
			C64.18856,10.60199,64.10468,10.28533,64.08916,10.21368 M70.0019,12.33384c-0.11193-0.19152-0.25523-0.35265-0.43684-0.48341
			c-0.18027-0.12844-0.38566-0.23345-0.61745-0.3117c-0.23179-0.07792-0.46921-0.14528-0.71256-0.20042
			c-0.23575-0.05448-0.46689-0.10533-0.69439-0.15255c-0.22816-0.04622-0.42991-0.10037-0.60656-0.15882
			c-0.17664-0.05878-0.32029-0.13538-0.43024-0.22949c-0.10929-0.09344-0.16444-0.21561-0.16444-0.36453
			c0-0.1258,0.03136-0.22618,0.09477-0.3008c0.06174-0.0743,0.13867-0.13175,0.22947-0.17039
			c0.09015-0.03962,0.18954-0.06538,0.30016-0.07726c0.10963-0.01123,0.21198-0.01717,0.30542-0.01717
			c0.29816,0,0.55704,0.05679,0.77728,0.17038c0.13967,0.07331,0.24004,0.18788,0.30014,0.34439
			c0.00231,0.00561,0.0043,0.01123,0.00595,0.01684c0.06868,0.16939,0.23509,0.29156,0.42825,0.29156h0.00034h0.75613
			c0.25524,0,0.42594-0.20372,0.37872-0.455c0,0-0.04259-0.23345-0.20306-0.47977c-0.16113-0.24798-0.36288-0.44576-0.60722-0.59501
			c-0.24303-0.14891-0.51972-0.25491-0.82878-0.31797c-0.31105-0.06307-0.631-0.09345-0.96053-0.09345
			c-0.32954,0-0.65114,0.02906-0.96515,0.08784c-0.31368,0.05844-0.59666,0.1608-0.8476,0.30674
			c-0.25127,0.14462-0.45402,0.34274-0.60623,0.59369c-0.15354,0.25095-0.22948,0.57321-0.22948,0.96647
			c0,0.26613,0.05481,0.49133,0.1641,0.6759c0.11094,0.18491,0.25557,0.33746,0.43619,0.45896
			c0.18027,0.12283,0.38631,0.22025,0.61844,0.29421c0.23114,0.07561,0.46822,0.13934,0.7119,0.19481
			c0.59632,0.12646,1.06156,0.25127,1.39539,0.37675c0.33283,0.12614,0.50024,0.31369,0.50024,0.56462
			c0,0.14958-0.03567,0.2734-0.10665,0.3718c-0.07033,0.09807-0.15882,0.17632-0.26514,0.23444
			c-0.10501,0.05877-0.22289,0.10301-0.35265,0.12976c-0.12877,0.02774-0.25259,0.04161-0.37113,0.04161
			c-0.16444,0-0.32293-0.02014-0.47581-0.05943c-0.15287-0.0383-0.29386-0.09344-0.40745-0.18193
			c-0.17236-0.13472-0.20835-0.19449-0.28826-0.31798c-0.09113-0.14363-0.09411-0.42661-0.5009-0.46491h-0.00098h-0.73566
			c-0.25426,0-0.43322,0.20637-0.39756,0.45864c0,0,0.04227,0.28825,0.21133,0.55967
			c0.16872,0.27043,0.38434,0.48835,0.64718,0.65345c0.26283,0.16476,0.56364,0.28265,0.90076,0.35297
			c0.33679,0.07066,0.68317,0.10632,1.03614,0.10632c0.34538,0,0.68416-0.03401,1.01831-0.10037
			c0.33382-0.0667,0.63034-0.1826,0.88888-0.34703c0.25854-0.1651,0.46886-0.38269,0.62967-0.65279
			c0.16113-0.27141,0.24138-0.60755,0.24138-1.00774C70.16569,12.76375,70.11087,12.52667,70.0019,12.33384 M77.17895,11.94058
			c0,0.48373,0.07429,0.92024,0.22157,1.30921c0.14857,0.39094,0.35859,0.72411,0.63165,1.00015
			c0.2734,0.27704,0.59996,0.48902,0.98233,0.63728c0.38136,0.14858,0.81127,0.22254,1.28642,0.22254
			c0.4758,0,0.90604-0.07396,1.29237-0.22254c0.38565-0.14826,0.71552-0.36024,0.98759-0.63728
			c0.27308-0.27604,0.48308-0.6092,0.63199-1.00015c0.14694-0.38897,0.22122-0.82548,0.22122-1.30921
			c0-0.48274-0.07428-0.92156-0.22122-1.31482c-0.14891-0.39392-0.35891-0.72873-0.63199-1.00609
			c-0.27206-0.27538-0.60194-0.49034-0.98759-0.64321c-0.38634-0.15156-0.81657-0.22718-1.29237-0.22718
			c-0.47515,0-0.90506,0.07561-1.28642,0.22718c-0.38237,0.15287-0.70893,0.36783-0.98233,0.64321
			c-0.27306,0.27736-0.48308,0.61218-0.63165,1.00609C77.25323,11.01902,77.17895,11.45784,77.17895,11.94058 M78.83881,11.94058
			c0-0.24137,0.02444-0.4791,0.07066-0.71223c0.04658-0.2341,0.12681-0.44114,0.23906-0.61976
			c0.11294-0.17996,0.2635-0.3259,0.45039-0.43883c0.18723-0.1126,0.42133-0.17004,0.702-0.17004
			c0.28065,0,0.51609,0.05745,0.7076,0.17004c0.19083,0.11293,0.34273,0.25887,0.45532,0.43883
			c0.1126,0.17863,0.19317,0.38566,0.23972,0.61976c0.04755,0.23312,0.06999,0.47086,0.06999,0.71223
			c0,0.2427-0.02245,0.47746-0.06999,0.70826c-0.04655,0.22949-0.12712,0.43652-0.23972,0.61944
			c-0.11259,0.18293-0.26449,0.32954-0.45532,0.43883c-0.19151,0.10797-0.42695,0.16344-0.7076,0.16344
			c-0.28067,0-0.51477-0.05547-0.702-0.16344c-0.18688-0.10929-0.33745-0.2559-0.45039-0.43883
			c-0.11225-0.18292-0.19248-0.38996-0.23906-0.61944C78.86326,12.41804,78.83881,12.18328,78.83881,11.94058 M76.74376,11.99968
			c0,0.40515-0.0545,0.79444-0.16411,1.16988c-0.10831,0.37311-0.27406,0.70363-0.49596,0.99288
			c-0.22255,0.28858-0.4999,0.51873-0.83044,0.6901c-0.33216,0.17137-0.71981,0.25722-1.16359,0.25722
			c-0.37443,0-0.71848-0.0766-1.03448-0.22849c-0.07661-0.03633-0.14859-0.07727-0.21826-0.12217
			c-0.00792-0.00561-0.0132-0.0109-0.02146-0.01486c-0.05283-0.03533-0.10169-0.07363-0.15089-0.11358
			c-0.05349-0.04655-0.08223-0.0766-0.08223-0.0766c-0.10995-0.12415-0.20735-0.23213-0.26481-0.29321
			c-0.01355-0.01784-0.02773-0.03401-0.04061-0.05151h-0.0109h-0.01221v0.46061v1.94351c0,0.25359-0.2067,0.45996-0.45996,0.45996
			h-0.73962c-0.25292,0-0.45996-0.20637-0.45996-0.45996V9.37202c0-0.25293,0.20704-0.45963,0.45996-0.45963h0.65708
			c0.25425,0,0.46095,0.17335,0.46095,0.38599v0.386h0.02213c0.20373-0.32755,0.46127-0.56529,0.77298-0.71321
			c0.31169-0.14793,0.65476-0.22189,1.02822-0.22189c0.4758,0,0.88523,0.08948,1.22865,0.26812
			c0.34174,0.17995,0.62637,0.41802,0.85387,0.71321c0.22552,0.29717,0.39325,0.64123,0.50156,1.03482
			C76.68926,11.15968,76.74376,11.57077,76.74376,11.99968 M75.08289,11.95247c0-0.24138-0.02443-0.47944-0.07594-0.71256
			c-0.04954-0.23443-0.13473-0.44279-0.25095-0.62637c-0.11689-0.18259-0.26678-0.33085-0.45039-0.44378
			c-0.18259-0.1126-0.40746-0.17004-0.67161-0.17004c-0.27306,0-0.50188,0.05745-0.68449,0.17004
			c-0.18357,0.11293-0.3315,0.25887-0.44409,0.43883c-0.11327,0.17863-0.19285,0.38566-0.2394,0.61944
			c-0.04722,0.23345-0.07165,0.47514-0.07165,0.72444c0,0.24235,0.02642,0.47944,0.07727,0.71354
			c0.05018,0.23345,0.13241,0.4385,0.24567,0.61416c0.11324,0.175,0.26316,0.31765,0.45004,0.42528
			c0.18656,0.10962,0.41306,0.1651,0.67854,0.1651c0.27174,0,0.49958-0.05547,0.68349-0.1651
			c0.18326-0.10764,0.33185-0.25028,0.4441-0.42528c0.11294-0.17567,0.19317-0.38072,0.24039-0.61416
			C75.06011,12.43191,75.08289,12.19482,75.08289,11.95247 M88.15848,13.52781c0,0.30477,0.05085,0.55009,0.15155,0.73665
			c0.10236,0.18755,0.24005,0.33184,0.4157,0.43355c0.17501,0.10104,0.37807,0.16939,0.60823,0.20372
			c0.11457,0.01784,0.23344,0.03105,0.35627,0.03963l-0.0076,0.00164h0.06471c0.10435,0.00661,0.20903,0.01156,0.31699,0.01156
			c0.15651,0,0.53424-0.0132,0.54613-0.0142c0.23676-0.01915,0.42463-0.21693,0.42463-0.45665V14.1139
			c0-0.24995-0.20207-0.45468-0.45137-0.46061h-0.00824h-0.13507c-0.2341-0.00826-0.39754-0.05283-0.4814-0.13703
			c-0.09246-0.09279-0.14035-0.28033-0.14035-0.56133V9.96174h0.90771c0.16939,0,0.30872-0.13769,0.30872-0.3084V9.15872
			c0-0.16907-0.13934-0.30807-0.30872-0.30807h-0.90771V7.4995c0-0.25358-0.20702-0.46095-0.45995-0.46095h-0.73963
			c-0.25292,0-0.4606,0.20737-0.4606,0.46095V13.52781z M52.45521,10.23911c-0.13604,0.40349,0.17599,0.53292,0.42297,0.53292
			h0.68614c0.63992,0,0.39425-0.41439,0.7885-0.70132c0.18855-0.13769,0.44444-0.21133,0.77166-0.21133
			c0.14759,0,0.28529,0.01024,0.41439,0.02972c0.12812,0.01982,0.2417,0.05844,0.33911,0.11689
			c0.0974,0.05844,0.17533,0.14034,0.2341,0.24534c0.05844,0.10533,0.08784,0.24798,0.08784,0.42694
			c0.00759,0.1717-0.04293,0.30245-0.15223,0.39194c-0.10929,0.08948-0.25722,0.15815-0.44476,0.20438
			c-0.18623,0.04689-0.40118,0.08222-0.6419,0.10533c-0.24236,0.02312-0.48802,0.05514-0.73698,0.09312
			c-0.24996,0.03896-0.49727,0.09179-0.74293,0.15849c-0.24533,0.06637-0.46326,0.1651-0.65477,0.29817
			c-0.19118,0.13241-0.34637,0.30906-0.46756,0.5316c-0.12117,0.22222-0.1816,0.50454-0.1816,0.84859
			c0,0.31137,0.05349,0.57915,0.15882,0.80567c0.10401,0.22651,0.25095,0.41373,0.43784,0.56132
			c0.18721,0.14826,0.40449,0.25755,0.65477,0.32723c0.24962,0.07131,0.51807,0.10565,0.80632,0.10565
			c0.3741,0,0.74062-0.05481,1.09921-0.1641c0.35892-0.10962,0.67062-0.29916,0.9351-0.57289
			c0.00858,0.1017,0.01617,0.20274,0.0416,0.29882c0.07561,0.28561,0.42826,0.28561,0.42826,0.28561h0.87136
			c0.42101,0,0.32755-0.3107,0.29685-0.56099c-0.03137-0.24963-0.04755-0.51048-0.04755-0.78322v-2.68511
			c0-0.25326-0.02542-0.66534-0.05613-0.91728c0,0-0.02576-0.20306-0.1892-0.42528
			c-0.16312-0.22255-0.37378-0.39623-0.63166-0.52071c-0.25722-0.12482-0.54118-0.20835-0.85321-0.25194
			c-0.3117-0.04227-0.61944-0.0634-0.92354-0.0634c-0.33515,0.00033-0.66864,0.03302-0.99982,0.09873
			c-0.33085,0.06703-0.62934,0.17797-0.89449,0.3335c-0.26548,0.15618-0.48341,0.36255-0.65477,0.61943
			C52.5711,9.93037,52.50869,10.07731,52.45521,10.23911 M56.19991,11.99968v0.15883c0,0.25391-0.00429,0.55868-0.01057,0.67887
			l-0.01882,0.15618c-0.02015,0.15586-0.07166,0.31005-0.15816,0.46161c-0.08584,0.15189-0.21726,0.28231-0.39722,0.39161
			c-0.17896,0.10962-0.43255,0.16378-0.7601,0.16378c-0.13241,0-0.26118-0.01189-0.38533-0.03467
			c-0.12547-0.02377-0.23476-0.06472-0.32821-0.12283c-0.09312-0.05877-0.16742-0.13835-0.22157-0.24005
			c-0.05481-0.10038-0.08188-0.22618-0.08188-0.37411c0-0.15519,0.02707-0.28496,0.08188-0.38533
			c0.05415-0.1017,0.12614-0.18524,0.21629-0.25161c0.08948-0.06636,0.19481-0.11853,0.31598-0.15849
			c0.12053-0.03863,0.24269-0.06967,0.36784-0.09312c0.13274-0.02312,0.26482-0.04259,0.39689-0.05878
			c0.13406-0.01552,0.26019-0.035,0.38104-0.05778c0.11986-0.02345,0.23312-0.05316,0.33878-0.08849
			C56.04175,12.10997,56.12957,12.06209,56.19991,11.99968"/>
	</g>
	<g>
		<defs>
			<path id="SVGID_1_" d="M18.17011,14.31815C9.50919,15.49991,3.47725,20.83646,0.07892,24.82617
				C0.03005,24.87404,0,24.94041,0,25.01372v0.00165v0.00132c0,0.14462,0.11722,0.26184,0.26184,0.26184
				c0.04755,0,0.09213-0.01255,0.13043-0.03467l0.02212-0.01915c3.62683-3.26229,9.57622-7.81134,17.36378-7.42105
				c3.0229,0.1509,5.7625,1.10482,8.26106,2.53455c2.57285,1.47166,7.40487,6.35288,7.40487,6.35288
				c0.78289,0.79873,1.87978,1.30227,3.07606,1.30889c0,0,0.69209-0.01354,1.28577-0.2044
				c0.17269-0.05579,0.24963-0.08783,0.24963-0.08783c0.33746-0.14165,2.32355-1.10845,2.03001-3.61493
				c-0.1192-1.0193-0.62406-2.05115-1.5793-2.97074c-0.19514-0.18755-6.16765-6.93402-17.55892-6.93468
				c-0.0033,0-0.0066,0-0.00957,0C20.04757,14.1874,19.12635,14.22901,18.17011,14.31815"/>
		</defs>
		<clipPath id="SVGID_2_">
			<use xlink:href="#SVGID_1_"  style="overflow:visible;"/>
		</clipPath>
		
			<linearGradient id="SVGID_3_" gradientUnits="userSpaceOnUse" x1="-300.73999" y1="405.18323" x2="-300.40979" y2="405.18323" gradientTransform="matrix(121.491 0 0 121.491 36537.19922 -49205.01953)">
			<stop  offset="0" style="stop-color:#A7A9AC"/>
			<stop  offset="0.76109" style="stop-color:#D7D8DA"/>
			<stop  offset="1" style="stop-color:#E7E8E9"/>
		</linearGradient>
		<rect y="14.1874" class="st1" width="40.3791" height="13.81257"/>
	</g>
	<g>
		<defs>
			<path id="SVGID_4_" d="M3.3947,15.97638c-1.92568,0.00066-3.30225,7.76412-3.39272,9.00729
				C0.00132,24.99489,0,25.01669,0,25.01669c0,0.14462,0.11722,0.26184,0.26184,0.26184c0.12679,0,0.23246-0.08981,0.25689-0.20901
				c0,0,0.00495-0.02609,0.0076-0.03798c0.98528-4.50182,1.60638-6.06495,2.46388-6.1257
				c1.99766-0.10005,3.81768,8.86894,3.81768,8.86894c0.0218,0.10665,0.10335,0.17863,0.20306,0.20208
				c0.12085,0.02806,0.26812-0.01353,0.30642-0.16245c0,0,0.01684-0.05811,0.01387-0.11754
				c-0.00198-0.03237-0.00759-0.07727-0.00759-0.07727c-1.40199-8.8105-2.76535-11.64321-3.92829-11.64321
				C3.39503,15.97638,3.39503,15.97638,3.3947,15.97638"/>
		</defs>
		<clipPath id="SVGID_5_">
			<use xlink:href="#SVGID_4_"  style="overflow:visible;"/>
		</clipPath>
		
			<linearGradient id="SVGID_6_" gradientUnits="userSpaceOnUse" x1="-300.73999" y1="404.51752" x2="-300.40967" y2="404.51752" gradientTransform="matrix(22.2036 0 0 -22.2036 6677.51025 9003.73535)">
			<stop  offset="0" style="stop-color:#A7A9AC"/>
			<stop  offset="0.76109" style="stop-color:#D7D8DA"/>
			<stop  offset="1" style="stop-color:#E7E8E9"/>
		</linearGradient>
		<rect y="15.97638" class="st2" width="7.33421" height="12.02853"/>
	</g>
	<g>
		<defs>
			<path id="SVGID_7_" d="M22.32226,0.34709c-2.90733,0.71619-5.15363,3.23126-6.98355,5.66807
				c-4.92712,6.56618-7.83281,18.92888-8.52224,21.64009c-0.04425,0.17104,0.0601,0.29024,0.19448,0.32161
				c0.12085,0.02806,0.26812-0.01353,0.30642-0.16245c0.37641-1.45185,1.42247-4.9849,1.92501-6.3793
				c1.63544-4.70622,6.51996-13.33577,11.82284-13.28492c6.99676,0.0667,10.35349,13.02705,11.30476,16.64
				c0.45831,1.82464,2.16804,3.19857,4.15018,3.20979c2.38101,0.00892,4.3232-1.91082,4.3341-4.29513
				c0.00066-0.19977-0.01981-0.84991-0.17136-1.49478C40.44912,21.21289,35.71648,0.0628,24.59629,0.06181
				C23.86558,0.06181,23.10845,0.15294,22.32226,0.34709"/>
		</defs>
		<clipPath id="SVGID_8_">
			<use xlink:href="#SVGID_7_"  style="overflow:visible;"/>
		</clipPath>
		
			<linearGradient id="SVGID_9_" gradientUnits="userSpaceOnUse" x1="-300.87421" y1="404.79306" x2="-300.54401" y2="404.79306" gradientTransform="matrix(103.1165 0 0 -103.1165 31031.86719 41754.87891)">
			<stop  offset="0" style="stop-color:#E1572A"/>
			<stop  offset="0.49862" style="stop-color:#E0552A"/>
			<stop  offset="0.6878" style="stop-color:#DA4E2C"/>
			<stop  offset="0.8244" style="stop-color:#D1422E"/>
			<stop  offset="0.93494" style="stop-color:#C53131"/>
			<stop  offset="1" style="stop-color:#BA2334"/>
		</linearGradient>
		<rect x="6.77222" y="0.06182" class="st3" width="34.0827" height="27.94708"/>
	</g>
	<g>
		<path class="st4" d="M39.70735,23.66799c-0.00892,1.77478-1.45317,3.20485-3.22795,3.19725
			c-1.77478-0.0099-3.20485-1.45416-3.19559-3.22663c0.00792-1.77478,1.45251-3.20748,3.22663-3.19692
			C38.2862,20.44896,39.71592,21.89454,39.70735,23.66799"/>
		<path class="st5" d="M51.98467,18.98195v7.42204c0,0.25292-0.2057,0.45995-0.45797,0.45995h-0.91628
			c-0.25161,0-0.56628-0.17665-0.70132-0.39227l-1.49313-2.40015l-1.73549-2.79211h-0.01122h-0.01188v0.45963v4.66495
			c0,0.25292-0.2067,0.45995-0.46128,0.45995h-0.79543c-0.25425,0-0.46194-0.20703-0.46194-0.45995v-7.42204
			c0-0.2526,0.20769-0.46029,0.46194-0.46029h0.9024c0.25426,0,0.5686,0.17533,0.70431,0.39194l1.49609,2.40478l1.74209,2.79969
			h0.01189h0.01189v-0.45831v-4.67782c0-0.2526,0.20505-0.46029,0.45831-0.46029h0.79906
			C51.77896,18.52166,51.98467,18.72935,51.98467,18.98195 M67.46239,26.86394c0.25458,0,0.51246-0.19976,0.58048-0.4441
			l2.00259-7.45374c0.0667-0.245-0.08684-0.44444-0.33942-0.44444h-0.87897c-0.25491,0-0.51081,0.20109-0.56892,0.44708
			l-1.1517,4.85414c-0.05878,0.24567-0.11227,0.44675-0.11887,0.44675c-0.00561,0-0.06174-0.20108-0.12349-0.4451l-1.20387-4.85579
			c-0.05878-0.24599-0.31897-0.44708-0.57025-0.44708h-0.7974c-0.25227,0-0.51015,0.20109-0.57388,0.44576l-1.22105,4.78612
			c-0.06372,0.24599-0.11888,0.44641-0.12614,0.44641c-0.00594,0-0.05844-0.20208-0.11424-0.44773l-1.11374-4.78183
			c-0.05613-0.24764-0.3107-0.44873-0.56264-0.44873h-0.91563c-0.25193,0-0.4058,0.19944-0.34142,0.44576l1.9729,7.45242
			c0.06603,0.24434,0.32425,0.4441,0.57915,0.4441h0.93674c0.25193,0,0.50784-0.20141,0.5686-0.44707l1.17185-4.78415
			c0.06207-0.24698,0.11391-0.44641,0.11985-0.44641c0.00793,0,0.06406,0.19944,0.12449,0.44641l1.19133,4.78579
			c0.05977,0.24402,0.31599,0.44543,0.56991,0.44543H67.46239z M78.5489,18.51736h-5.92299
			c-0.25127,0-0.45962,0.2067-0.45962,0.45864v0.62506c0,0.25326,0.20835,0.46028,0.45962,0.46028h2.04258v6.34563
			c0,0.25292,0.20869,0.46028,0.46095,0.46028h0.91629c0.25458,0,0.46159-0.20736,0.46159-0.46028v-6.34563h2.04159
			c0.25227,0,0.46127-0.20702,0.46127-0.46028V18.976C79.01018,18.72407,78.80117,18.51736,78.5489,18.51736 M79.66429,24.14251
			c0-0.27472,0.02773-0.52798,0.08156-0.7611c0.0548-0.23443,0.14628-0.43816,0.27439-0.61316
			c0.12811-0.17533,0.29815-0.31335,0.50881-0.41373c0.21297-0.10302,0.46854-0.15354,0.77663-0.15354
			c0.00758,0,0.02112,0.00132,0.03202,0.00132h0.10103c0.2526,0,0.4603-0.20704,0.4603-0.46029v-0.62108
			c0-0.05647-0.01024-0.1093-0.02973-0.15849c-0.06042-0.16807-0.21495-0.28925-0.40151-0.30245h-0.02178
			c-0.12119,0.00429-0.2437,0.02047-0.36288,0.04853c-0.08553,0.02114-0.1552,0.04425-0.1552,0.04425
			c-0.19382,0.06208-0.3784,0.14958-0.55043,0.26316c-0.17168,0.11127-0.32227,0.24963-0.45698,0.40878
			c-0.1301,0.15849-0.23641,0.33283-0.31336,0.52006l-0.00165-0.00232h-0.02179v-0.65905c0-0.25359-0.20834-0.4626-0.46161-0.4626
			h-0.65675c-0.25325,0-0.46194,0.20901-0.46194,0.4626v5.12358c0,0.25292,0.20869,0.46028,0.46194,0.46028h0.7393
			c0.25457,0,0.45963-0.20736,0.45963-0.46028V24.14251z M82.18331,22.15014c-0.13406,0.40382,0.17731,0.53227,0.42463,0.53227
			h0.68779c0.64025,0,0.39128-0.4134,0.78519-0.70034c0.19085-0.13835,0.44476-0.21034,0.77464-0.21034
			c0.14627,0,0.28462,0.00858,0.41306,0.02873c0.13011,0.01849,0.24303,0.05911,0.33945,0.11689
			c0.09774,0.05746,0.17501,0.14,0.23377,0.24566c0.05746,0.106,0.08882,0.24764,0.08882,0.42695
			c0.0076,0.17103-0.04293,0.30278-0.15353,0.39094c-0.10929,0.09113-0.25657,0.15882-0.44478,0.20538
			c-0.18654,0.04622-0.40085,0.0809-0.64255,0.10433c-0.24136,0.02477-0.48636,0.05647-0.73632,0.09377
			c-0.24831,0.0393-0.4943,0.09113-0.74326,0.15783c-0.245,0.06671-0.46195,0.16642-0.65478,0.29817
			c-0.1892,0.13274-0.34669,0.30972-0.46689,0.53095c-0.11986,0.22387-0.18259,0.50684-0.18259,0.84958
			c0,0.31203,0.05447,0.57949,0.15881,0.80699c0.10534,0.22552,0.25259,0.41339,0.43916,0.56133
			c0.1859,0.14759,0.4045,0.2559,0.65377,0.32722c0.25031,0.07032,0.51841,0.10665,0.80733,0.10665
			c0.37511,0,0.74063-0.05647,1.09922-0.16477c0.35792-0.11028,0.67027-0.30047,0.93607-0.57288
			c0.0076,0.09972,0.01552,0.20042,0.04063,0.29816c0.07527,0.28628,0.42825,0.28628,0.42825,0.28628h0.87169
			c0.42133,0,0.3259-0.31203,0.29686-0.56132c-0.03268-0.24864-0.04623-0.51114-0.04623-0.7842v-2.68545
			c0-0.25194-0.02675-0.66567-0.05879-0.91596c0,0-0.02277-0.20373-0.18787-0.42826c-0.16542-0.22056-0.37543-0.3949-0.631-0.51872
			c-0.25755-0.1235-0.54118-0.20869-0.85487-0.25062c-0.31137-0.04359-0.61911-0.06538-0.92189-0.06538
			c-0.33582,0-0.66931,0.03169-0.99982,0.10004c-0.33382,0.06571-0.63033,0.176-0.89547,0.33415
			c-0.26581,0.15487-0.48406,0.36156-0.65444,0.61779C82.29921,21.84206,82.23746,21.98933,82.18331,22.15014 M85.93066,23.91104
			v0.16048c0,0.25194-0.00395,0.55835-0.00891,0.67689l-0.02245,0.15684c-0.01717,0.15651-0.07198,0.30972-0.15749,0.4616
			c-0.08255,0.15222-0.21727,0.28364-0.39525,0.39227c-0.18127,0.10996-0.43353,0.16443-0.76143,0.16443
			c-0.13108,0-0.26151-0.01089-0.38598-0.03598c-0.12382-0.0218-0.23412-0.06406-0.32755-0.12415
			c-0.09312-0.05679-0.16642-0.13605-0.22124-0.23906c-0.05581-0.10104-0.08154-0.22718-0.08154-0.37312
			c0-0.1575,0.02573-0.28462,0.08154-0.38665c0.05482-0.1017,0.1268-0.18524,0.21495-0.24996
			c0.08949-0.06802,0.1945-0.12018,0.31667-0.16047c0.12017-0.03765,0.243-0.06967,0.36683-0.09312
			c0.13339-0.02344,0.26515-0.04193,0.39922-0.05745c0.12975-0.01486,0.25852-0.03633,0.37904-0.05811
			c0.12217-0.02444,0.23412-0.05383,0.33944-0.08816C85.77084,24.02133,85.85901,23.97312,85.93066,23.91104 M96.13193,22.12206
			c-0.06802-0.30741-0.18259-0.56925-0.34704-0.78288c-0.16409-0.21561-0.38699-0.38137-0.6726-0.50419
			c-0.28329-0.11986-0.65015-0.17996-1.09425-0.17996c-0.34901,0-0.69307,0.07892-1.02888,0.23939
			c-0.33547,0.16114-0.60754,0.41471-0.8182,0.76637H92.1376V21.2388c0-0.22982-0.20736-0.42099-0.46161-0.42099h-0.65807
			c-0.25194,0-0.45964,0.20669-0.45964,0.4616v5.12326c0,0.25424,0.2077,0.46127,0.45964,0.46127h0.73962
			c0.25423,0,0.46194-0.20703,0.46194-0.46127v-2.70856c0-0.57057,0.08652-0.98992,0.26183-1.26332
			c0.01125-0.02179,0.02512-0.04391,0.04095-0.06339c0.20341-0.26877,0.52864-0.4025,0.98364-0.4025
			c0.39623,0,0.67326,0.12217,0.82878,0.36717c0.15718,0.24632,0.23312,0.61679,0.23312,1.11737v2.95323
			c0,0.25424,0.20869,0.46127,0.46062,0.46127h0.74127c0.25259,0,0.46028-0.20703,0.46028-0.46127v-2.79672
			C96.22999,22.51036,96.14448,22.19372,96.13193,22.12206 M111.1378,22.12206c-0.06802-0.30741-0.18291-0.56925-0.34737-0.78288
			c-0.16376-0.21561-0.38663-0.38137-0.67225-0.50419c-0.28332-0.11986-0.65049-0.17996-1.09459-0.17996
			c-0.34869,0-0.69275,0.07892-1.02856,0.23939c-0.33547,0.16114-0.60722,0.41471-0.81821,0.76637h-0.03304V21.2388
			c0-0.22982-0.20802-0.42099-0.46193-0.42099h-0.65841c-0.25159,0-0.45929,0.20669-0.45929,0.4616v5.12326
			c0,0.25424,0.2077,0.46127,0.45929,0.46127h0.73997c0.25458,0,0.46162-0.20703,0.46162-0.46127v-2.70856
			c0-0.57057,0.08684-0.98992,0.26183-1.26332c0.01157-0.02179,0.02512-0.04391,0.04095-0.06339
			c0.20373-0.26877,0.52896-0.4025,0.98396-0.4025c0.39623,0,0.67326,0.12217,0.82846,0.36717
			c0.15717,0.24632,0.23344,0.61679,0.23344,1.11737v2.95323c0,0.25424,0.20837,0.46127,0.4603,0.46127h0.74192
			c0.25228,0,0.45996-0.20703,0.45996-0.46127v-2.79672C111.23587,22.51036,111.15036,22.19372,111.1378,22.12206
			 M103.71148,20.82012c-0.25194,0-0.4593,0.20703-0.4593,0.46061v5.12623c0,0.25292,0.20736,0.46028,0.4593,0.46028h0.73994
			c0.25426,0,0.46194-0.20736,0.46194-0.46028v-5.12623c0-0.25358-0.20768-0.46061-0.46194-0.46061H103.71148z M88.70526,20.82012
			c-0.25162,0-0.45898,0.20703-0.45898,0.46061v5.12623c0,0.25292,0.20736,0.46028,0.45898,0.46028h0.73997
			c0.25457,0,0.46193-0.20736,0.46193-0.46028v-5.12623c0-0.25358-0.20736-0.46061-0.46193-0.46061H88.70526z M98.71269,25.32228
			v-6.34331c0-0.25293-0.20802-0.45996-0.4606-0.45996h-0.91397c-0.25292,0-0.46193,0.20703-0.46193,0.45996v7.42667
			c0,0.25226,0.20901,0.4593,0.46193,0.4593h4.98193c0.25292,0,0.46159-0.20704,0.46159-0.4593v-0.6234
			c0-0.2526-0.20867-0.45996-0.46159-0.45996H98.71269z M59.18119,23.2008c-0.19845-0.3008-0.43552-0.53986-0.70859-0.71981
			c-0.27175-0.17963-0.54713-0.30906-0.82317-0.39061c-0.2767-0.08255-0.49463-0.13967-0.65015-0.17005
			c-0.5217-0.13306-0.94468-0.24236-1.26892-0.32821c-0.32161-0.08552-0.57553-0.17104-0.75813-0.25623
			c-0.18524-0.08816-0.30641-0.18061-0.36882-0.28066c-0.06207-0.10137-0.09575-0.23443-0.09575-0.39789
			c0-0.17929,0.03929-0.32821,0.1192-0.44608c0.07792-0.11689,0.17632-0.21364,0.29816-0.29156
			c0.12118-0.0776,0.2526-0.13207,0.40185-0.16312c0.14991-0.03202,0.29652-0.04689,0.44411-0.04689
			c0.2275,0,0.43684,0.01916,0.62704,0.05779c0.19052,0.03996,0.36089,0.10731,0.50849,0.1991
			c0.14924,0.09344,0.26812,0.22354,0.35463,0.38566c0.04491,0.08222,0.08255,0.17368,0.10929,0.27406
			c0,0.00364,0,0.00529,0.00232,0.00858c0.05217,0.19416,0.22981,0.33844,0.44179,0.33844h0.92388
			c0.25458,0,0.44048-0.20736,0.41307-0.45929c0,0-0.04391-0.43618-0.22651-0.77562c-0.18491-0.33811-0.4309-0.6168-0.74392-0.83605
			c-0.31005-0.2176-0.66666-0.37608-1.07015-0.47283c-0.40251-0.09774-0.82119-0.14792-1.25737-0.14792
			c-0.37345,0-0.74821,0.05051-1.12199,0.15287c-0.37476,0.10038-0.70826,0.25821-1.00477,0.46788
			c-0.2975,0.21001-0.5359,0.47449-0.72047,0.79015c-0.18227,0.31534-0.27505,0.68714-0.27505,1.11605
			c0,0.38269,0.07099,0.70727,0.21726,0.97572c0.14298,0.27043,0.33119,0.49397,0.56826,0.67358
			c0.23311,0.17963,0.49627,0.32491,0.79378,0.4385c0.29652,0.11326,0.59963,0.20901,0.91199,0.28562
			c0.30411,0.08617,0.60491,0.16278,0.90209,0.23575c0.29453,0.06934,0.56067,0.15057,0.79378,0.245
			c0.23443,0.09212,0.42231,0.20966,0.56826,0.35033c0.1433,0.13966,0.21594,0.32425,0.21594,0.55076
			c0,0.20901-0.05646,0.38335-0.1651,0.52071c-0.10732,0.13438-0.24434,0.24235-0.40811,0.31897
			c-0.16478,0.08023-0.33911,0.13174-0.52534,0.15915c-0.18821,0.02674-0.36288,0.04061-0.52632,0.04061
			c-0.24236,0-0.47713-0.02873-0.70166-0.0875c-0.22718-0.05943-0.42398-0.14859-0.59006-0.26911
			c-0.16972-0.12085-0.30245-0.27901-0.40547-0.47383c-0.05614-0.10863-0.09741-0.23047-0.12284-0.36684v-0.00133
			c0,0-0.00132-0.00329-0.00132-0.00594c-0.05217-0.19449-0.23311-0.33845-0.44279-0.33845h-0.90208
			c-0.25259,0-0.4408,0.20605-0.41901,0.45864c0,0,0.04425,0.50057,0.23872,0.87368
			c0.19548,0.37576,0.45963,0.68449,0.78915,0.92421c0.33184,0.24104,0.71421,0.42001,1.14544,0.53128
			c0.43387,0.11424,0.88062,0.16939,1.34255,0.16939c0.56628,0,1.06685-0.06538,1.50171-0.19746
			c0.43288-0.13373,0.79346-0.31731,1.08667-0.55505c0.29056-0.23839,0.51213-0.51971,0.66171-0.84892
			c0.14528-0.32722,0.22057-0.68151,0.22057-1.06454C59.47903,23.88528,59.38063,23.50094,59.18119,23.2008 M117.21994,25.70233
			l-1.8778-2.53092l1.51028-1.59417c0.14563-0.15618,0.13539-0.40151-0.02112-0.54481l-0.55109-0.50982
			c-0.15717-0.14363-0.40186-0.13439-0.54647,0.02113l-2.18256,2.41139V18.9377c0-0.23411-0.19152-0.42132-0.42298-0.42132h-0.81721
			c-0.23148,0-0.42397,0.18589-0.42397,0.41868v7.50756c0,0.23311,0.18555,0.42265,0.41736,0.42265h0.81556
			c0.23082,0,0.42663-0.18788,0.42663-0.42034v-1.70016l0.58642-0.51213l1.74538,2.44243
			c0.10435,0.14298,0.28233,0.2001,0.44479,0.15948c0.0505-0.01288,0.09871-0.03401,0.14395-0.06703l0.65972-0.48076
			c0.04426-0.0307,0.07825-0.06934,0.10534-0.11128C117.32395,26.03418,117.32558,25.84597,117.21994,25.70233 M103.26042,19.23255
			c0,0.45401,0.36883,0.82152,0.82383,0.82152c0.45865,0,0.82548-0.3675,0.82548-0.82152c0-0.45368-0.36683-0.82052-0.82548-0.82052
			C103.62925,18.41203,103.26042,18.77887,103.26042,19.23255 M88.25423,19.23255c0,0.45401,0.36947,0.82152,0.82383,0.82152
			c0.45863,0,0.82548-0.3675,0.82548-0.82152c0-0.45368-0.36685-0.82052-0.82548-0.82052
			C88.6237,18.41203,88.25423,18.77887,88.25423,19.23255"/>
	</g>
</g>
</svg>
