<?xml version="1.0" encoding="UTF-8" standalone="no"?><!DOCTYPE svg PUBLIC "-//W3C//DTD SVG 1.1//EN" "http://www.w3.org/Graphics/SVG/1.1/DTD/svg11.dtd"><svg width="100%" height="100%" viewBox="0 0 288 364" version="1.1" xmlns="http://www.w3.org/2000/svg" xmlns:xlink="http://www.w3.org/1999/xlink" xml:space="preserve" xmlns:serif="http://www.serif.com/" style="fill-rule:evenodd;clip-rule:evenodd;stroke-linejoin:round;stroke-miterlimit:2;"><path d="M233.751,361.976c-15.97,6.784 -25.274,-7.239 -26.521,-13.878c-0.81,-4.324 0.179,-7.328 6.378,-19.316c25.044,-48.447 35.929,-93.029 35.929,-147.145c0,-52.3 -9.639,-92.991 -33.576,-141.765c-5.143,-10.469 -8.596,-17.189 -9.346,-21.596c-0.871,-5.115 4.344,-12.712 9.046,-15.666c6.448,-4.044 17.252,-3.288 22.426,1.567c1.987,1.87 7.153,10.348 11.477,18.841c17.127,33.634 28.866,70.537 34.659,108.944c3.589,23.774 4.302,68.824 1.438,90.583c-5.287,40.145 -15.884,75.961 -32.847,111.052c-9.773,20.215 -14.191,26.31 -19.063,28.379Zm-83.212,-35.056c-8.969,-2.611 -15.436,-13.613 -12.841,-21.857c0.627,-1.995 4.85,-11.186 9.378,-20.427c19.184,-39.12 27.163,-81.057 23.255,-122.23c-3.214,-33.833 -9.28,-55.168 -24.553,-86.387c-10.246,-20.944 -10.722,-24.19 -4.765,-32.625c5.665,-8.018 19.808,-9.319 27.234,-2.501c5.15,4.722 21.163,38.161 27.342,57.096c20.454,62.672 17.333,129.948 -8.879,191.517c-13.43,31.535 -22.858,41.286 -36.171,37.414Zm-71.889,-36.985c-5.541,-2.498 -10.309,-8.357 -11.607,-14.264c-0.791,-3.596 0.573,-7.577 7.146,-20.886c24.143,-48.903 24.404,-96.002 0.794,-143.764c-10.367,-20.98 -10.593,-25.153 -1.827,-33.428c4.329,-4.079 6.168,-4.803 12.245,-4.803c10.192,0 15.479,5.123 24.592,23.836c14.01,28.779 19.745,53.749 19.699,85.739c-0.051,32.883 -5.412,55.456 -20.381,85.806c-8.575,17.377 -12.81,21.966 -21.393,23.143c-2.618,0.358 -6.787,-0.265 -9.268,-1.379Zm-67.078,-34.453c-4.391,-1.815 -9.401,-7.788 -10.894,-12.981c-1.659,-5.802 -0.3,-10.407 6.289,-21.242c8.474,-13.936 10.449,-21.412 10.449,-39.626c0,-18.21 -1.975,-25.69 -10.449,-39.627c-2.872,-4.722 -5.755,-10.382 -6.409,-12.576c-2.731,-9.187 4.924,-20.442 15.202,-22.371c8.715,-1.636 14.7,2.256 22.71,14.762c23.197,36.206 23.193,84.579 -0.012,120.481c-8.185,12.666 -17.314,17.142 -26.886,13.18Z" style="fill:#363d43;"/></svg>