<svg width="104" height="81" viewBox="0 0 104 81" fill="none" xmlns="http://www.w3.org/2000/svg">
<g clip-path="url(#clip0)">
<mask id="mask0" mask-type="alpha" maskUnits="userSpaceOnUse" x="0" y="-4" width="104" height="89">
<rect y="-3.5" width="104" height="88" fill="white"/>
</mask>
<g mask="url(#mask0)">
<path d="M52.4253 66.091C81.8683 64.5354 90.1769 39.1735 92.9223 30.5831C97.5979 13.7952 101.221 0.399179 101.287 0.270371C100.733 0.098628 83.2509 -4.71349 82.3831 -4.95459C81.2744 -1.70137 74.7311 33.5357 59.6879 44.1211C45.5719 54.0525 33.2311 43.5035 19.4549 57.3651C5.73814 71.1706 0 94.3857 0 94.3857C0 94.3857 18.5772 99.5149 18.8313 99.5909C21.504 91.225 26.9254 67.4385 52.4253 66.091Z" fill="#FBAC23"/>
<path d="M16.8142 97.087C18.8202 89.8193 20.7473 84.9172 23.1413 80.9395C25.7755 76.5637 29.0212 73.2178 33.9968 69.7533C38.8342 66.3843 44.53 65.6178 50.5579 64.8084C56.0333 64.0714 61.6962 63.3114 67.484 60.6103C81.036 54.2901 85.3901 42.8079 89.2311 32.6811C89.5566 31.8257 89.8921 30.9407 90.2209 30.0886C93.174 22.4721 98.3929 0.382786 98.4456 0.162354L99.2381 0.349886C99.1855 0.573609 93.9534 22.7156 90.9806 30.3847C90.6517 31.2335 90.3327 32.0791 89.9907 32.9707C86.0938 43.2455 81.6773 54.8889 67.8227 61.3506C61.9198 64.1043 56.1944 64.8742 50.6598 65.6178C44.7306 66.414 39.1302 67.1674 34.4572 70.4245C29.5836 73.8198 26.4069 77.0901 23.8352 81.3606C21.2669 85.6278 19.2378 91.0004 17.051 99.3243L16.2617 99.117C16.4525 98.4228 16.6333 97.745 16.8142 97.087Z" fill="#F26722"/>
<path d="M13.9471 98.3867C16.1603 90.3655 18.5642 84.4895 21.5075 79.8933C24.3685 75.4287 27.8806 71.8788 32.8924 68.3881C38.8315 64.2525 43.4716 63.7392 48.8418 63.1437C51.7456 62.8213 55.0341 62.4594 58.9507 61.4823C66.2349 59.6661 72.0687 56.1952 76.7878 50.8752C80.5466 46.6376 83.5819 41.3242 86.6304 33.6551C91.1653 22.2485 96.0422 -0.255409 96.0882 -0.482422L96.884 -0.31134C96.8347 -0.0843267 91.9446 22.4887 87.3867 33.9545C84.2988 41.719 81.2174 47.1015 77.3961 51.4147C72.5653 56.863 66.5966 60.4163 59.1481 62.2719C55.1788 63.2622 51.8607 63.6274 48.9339 63.9531C43.4584 64.5584 39.1307 65.0388 33.3626 69.0559C28.443 72.4842 24.9999 75.9617 22.198 80.3309C19.2976 84.8547 16.9265 90.6616 14.7364 98.6005C14.7298 98.6268 14.7232 98.6499 14.7166 98.6762L13.9307 98.459C13.934 98.4393 13.9405 98.413 13.9471 98.3867Z" fill="#F26722"/>
<path d="M2.12793 95.1756C4.89688 86.4997 7.73489 79.4393 10.8031 73.5929C13.72 68.036 16.7751 63.7096 20.1425 60.3669C25.9567 54.5995 32.6127 51.8358 41.7219 51.4114C50.6667 50.9969 57.6253 48.7136 62.9988 44.4332C67.4712 40.8701 70.9241 35.9778 74.1897 28.5719C77.6064 20.8206 81.1581 9.53575 84.1835 -3.20001C84.2559 -3.50928 84.3052 -3.70997 84.3249 -3.78235L85.1142 -3.57508C85.0944 -3.50599 85.0517 -3.31187 84.9793 -3.01248C81.9407 9.76934 78.376 21.1035 74.9362 28.9009C71.6147 36.4351 68.0894 41.4196 63.5085 45.0715C57.9969 49.4604 50.8838 51.7996 41.7647 52.2273C32.8692 52.6419 26.3809 55.3299 20.7213 60.946C14.0193 67.5984 8.19199 78.8767 2.9106 95.4256L2.12793 95.1756Z" fill="#F26722"/>
<path d="M4.47949 95.8501C8.24158 82.9498 13.0724 72.8132 18.8438 65.7166C24.9276 58.2383 32.0243 54.1784 39.9431 53.6487C48.1513 53.1026 53.6135 52.0662 58.2109 50.1909C63.6304 47.9767 67.8694 44.5254 71.5525 39.3271C78.9879 28.8319 84.0194 7.76575 85.9103 -0.166542C86.2391 -1.54507 86.4792 -2.54195 86.6403 -3.13087C86.6403 -3.13416 86.6403 -3.13416 86.6436 -3.13745L87.4296 -2.92031C87.4296 -2.91702 87.4296 -2.91702 87.4296 -2.91373C87.2717 -2.33797 87.0218 -1.29503 86.7061 0.0242805C84.802 7.99606 79.7475 29.1774 72.2201 39.8009C64.4361 50.7864 54.5113 53.4974 40.0023 54.4646C32.3203 54.9779 25.4143 58.9358 19.4818 66.2331C13.7795 73.2442 8.99794 83.2854 5.26874 96.0804L4.47949 95.8501Z" fill="#F26722"/>
<path d="M94.0518 -1.83191C94.0518 -1.83191 88.4803 25.7601 81.9628 37.6259C76.2238 48.0714 66.7267 57.7091 57.8833 59.4638C47.9526 61.4337 40.443 59.285 30.7849 66.8203C22.776 73.0677 15.7919 83.7351 11.9451 97.7727C8.45313 96.8126 7.23438 96.4617 7.23438 96.4617C7.23438 96.4617 9.32367 86.877 16.8891 74.6966C24.6714 62.162 27.6181 61.3575 34.0076 58.156C40.9784 54.6598 53.2875 55.9047 62.1769 51.3226C73.1391 45.6744 79.8308 31.1037 82.8826 21.6845C87.5507 7.28265 88.6807 -0.590367 89.3016 -3.13635C89.7254 -3.04696 94.0518 -1.83191 94.0518 -1.83191Z" fill="#33383D"/>
<path d="M88.354 19.0317C88.0281 20.2128 89.865 20.7228 90.1909 19.5383C90.5168 18.3572 88.6799 17.8473 88.354 19.0317Z" fill="white"/>
<path d="M87.4262 21.8776C87.413 21.9203 87.4031 21.9664 87.39 22.0092C87.3241 22.246 87.3603 22.5191 87.4789 22.733C87.5381 22.8448 87.6171 22.937 87.7225 23.0028C87.8146 23.0916 87.9266 23.1508 88.055 23.1804C88.2953 23.2364 88.5619 23.2265 88.7792 23.0916C88.9932 22.9567 89.1578 22.7659 89.2269 22.5158C89.2401 22.4731 89.2499 22.427 89.2631 22.3842C89.329 22.1473 89.2927 21.8743 89.1742 21.6604C89.115 21.5486 89.036 21.4564 88.9306 21.3906C88.8384 21.3018 88.7265 21.2426 88.5981 21.213C88.3578 21.157 88.0912 21.1669 87.8739 21.3018C87.6599 21.4367 87.4953 21.6308 87.4262 21.8776Z" fill="white"/>
<path d="M86.5073 24.9406C86.1814 26.1218 88.0183 26.6317 88.3442 25.4473C88.6702 24.2662 86.8365 23.7595 86.5073 24.9406Z" fill="white"/>
<path d="M85.6646 27.8622C85.6646 27.8688 85.6646 27.8721 85.6646 27.8787C85.6777 27.7931 85.6876 27.7109 85.7008 27.6253C85.7008 27.6352 85.6975 27.6451 85.6909 27.6582C85.7238 27.5793 85.7567 27.5003 85.7897 27.4246C85.7864 27.4279 85.7831 27.4345 85.7798 27.4378C85.8325 27.372 85.8818 27.3095 85.9345 27.2437C85.9279 27.2536 85.9213 27.2601 85.9115 27.2667C85.9773 27.2174 86.0399 27.168 86.1057 27.122C86.0958 27.1285 86.0892 27.1351 86.0761 27.1384C86.1518 27.1088 86.2275 27.0759 86.2999 27.0463C86.2933 27.0463 86.29 27.0496 86.2835 27.0496C86.3658 27.0397 86.4481 27.0298 86.5271 27.0167C86.5205 27.0167 86.5172 27.0167 86.5106 27.0167C86.3822 27.0134 86.2637 27.0397 86.1518 27.0956C86.0333 27.1318 85.9312 27.1976 85.8456 27.2865C85.7502 27.372 85.681 27.4773 85.6415 27.599C85.579 27.7142 85.5526 27.8359 85.5559 27.9708C85.5658 28.2143 85.6448 28.4643 85.8259 28.6354C86.0004 28.7999 86.2571 28.9479 86.5073 28.9216C86.7081 28.9019 86.8332 28.892 87.011 28.79C87.0966 28.7407 87.1756 28.6847 87.2447 28.6156C87.4521 28.4149 87.5542 28.1452 87.5608 27.8589C87.5673 27.622 87.4521 27.3621 87.2908 27.1943C87.2052 27.0989 87.0999 27.0298 86.9781 26.9904C86.8629 26.9278 86.741 26.9015 86.6061 26.9048C86.3625 26.9147 86.1123 26.9936 85.9411 27.1746C85.7732 27.372 85.6712 27.599 85.6646 27.8622Z" fill="white"/>
<path d="M84.3189 30.8265C83.9929 32.0076 85.8299 32.5176 86.1558 31.3332C86.4817 30.1521 84.6448 29.6454 84.3189 30.8265Z" fill="white"/>
<path d="M83.2944 33.5079C82.9685 34.689 84.8055 35.1989 85.1314 34.0145C85.4573 32.8334 83.6203 32.3235 83.2944 33.5079Z" fill="white"/>
<path d="M82.1782 36.0215C81.8523 37.2027 83.6892 37.7126 84.0151 36.5282C84.3378 35.3471 82.5041 34.8371 82.1782 36.0215Z" fill="white"/>
<path d="M80.9175 38.5286C80.911 38.5516 80.9044 38.5713 80.8978 38.5944C80.8319 38.8312 80.8682 39.1043 80.9867 39.3182C81.0459 39.43 81.1249 39.5222 81.2303 39.588C81.3225 39.6768 81.4344 39.736 81.5628 39.7656C81.8031 39.8215 82.0697 39.8117 82.287 39.6768C82.501 39.5419 82.6656 39.3511 82.7347 39.101C82.7413 39.078 82.7479 39.0583 82.7512 39.0352C82.817 38.7983 82.7808 38.5253 82.6623 38.3114C82.603 38.1996 82.524 38.1074 82.4187 38.0416C82.3265 37.9528 82.2146 37.8936 82.0862 37.864C81.8459 37.808 81.5792 37.8179 81.362 37.9528C81.1513 38.091 80.9867 38.2818 80.9175 38.5286Z" fill="white"/>
<path d="M80.516 40.4993C80.4929 40.4927 80.4732 40.4861 80.4501 40.4796C80.2131 40.4138 79.9399 40.4499 79.7259 40.5684C79.614 40.6276 79.5218 40.7066 79.4559 40.8119C79.3671 40.904 79.3078 41.0158 79.2782 41.1441C79.2222 41.3843 79.2321 41.6508 79.3671 41.868C79.502 42.0818 79.693 42.2463 79.9432 42.3154C79.9662 42.322 79.986 42.3286 80.009 42.3351C80.246 42.4009 80.5193 42.3648 80.7332 42.2463C80.8452 42.1871 80.9373 42.1081 81.0032 42.0028C81.0921 41.9107 81.1513 41.7989 81.1809 41.6706C81.2369 41.4304 81.227 41.1639 81.0921 40.9467C80.9571 40.7329 80.7661 40.5684 80.516 40.4993Z" fill="white"/>
<path d="M77.5698 43.4965C77.2439 44.6776 79.0808 45.1876 79.4067 44.0032C79.7327 42.8221 77.899 42.3121 77.5698 43.4965Z" fill="white"/>
<path d="M77.5728 45.76C77.5564 45.7337 77.5399 45.7041 77.5267 45.6778C77.4049 45.4639 77.1877 45.2961 76.9506 45.2303C76.7268 45.1678 76.4272 45.1941 76.2264 45.3192C76.019 45.4508 75.8347 45.6449 75.7787 45.8949C75.7227 46.1417 75.7425 46.395 75.8676 46.6187C75.884 46.645 75.9005 46.6747 75.9137 46.701C76.0355 46.9148 76.2527 47.0826 76.4898 47.1484C76.7136 47.2109 77.0132 47.1846 77.214 47.0596C77.4214 46.928 77.6057 46.7339 77.6617 46.4838C77.7177 46.2371 77.7012 45.987 77.5728 45.76Z" fill="white"/>
<path d="M74.4884 47.5202C74.462 47.5367 74.4324 47.5531 74.4061 47.5663C74.1921 47.688 74.0242 47.9052 73.9584 48.142C73.8958 48.3658 73.9222 48.6652 74.0473 48.8658C74.1789 49.0731 74.3732 49.2574 74.6234 49.3133C74.8703 49.3692 75.1237 49.3495 75.3476 49.2245C75.3739 49.208 75.4036 49.1916 75.4299 49.1784C75.6439 49.0567 75.8118 48.8395 75.8776 48.6026C75.9401 48.3789 75.9138 48.0795 75.7887 47.8788C75.657 47.6716 75.4628 47.4873 75.2126 47.4314C74.9657 47.3755 74.7122 47.3952 74.4884 47.5202Z" fill="white"/>
<path d="M73.6988 50.8201C73.7317 50.6556 73.7547 50.4779 73.7021 50.3134C73.6856 50.2542 73.6362 50.1357 73.6066 50.0798C73.4947 49.8627 73.2511 49.6751 73.0107 49.6192C72.9515 49.606 72.8034 49.583 72.7441 49.583C72.6124 49.583 72.4972 49.6159 72.3787 49.6653C72.2503 49.7179 72.1713 49.7475 72.066 49.8627C71.9474 49.9877 71.8553 50.1324 71.8092 50.3002C71.7466 50.5371 71.7763 50.8102 71.8981 51.024C71.9573 51.1359 72.0363 51.228 72.1417 51.2938C72.2338 51.3827 72.3458 51.4419 72.4742 51.4715C72.7145 51.5274 72.9811 51.5176 73.1984 51.3827C73.4124 51.2478 73.5803 51.0569 73.6461 50.8069C73.6461 50.8036 73.6494 50.8003 73.6494 50.797C73.5638 50.9385 73.4815 51.0833 73.3959 51.2247C73.3992 51.2215 73.3992 51.2215 73.4025 51.2182C73.2609 51.2971 73.1227 51.3761 72.9811 51.455C72.9844 51.455 72.9877 51.4518 72.991 51.4518C72.9087 51.4616 72.8264 51.4715 72.7474 51.4847C72.7507 51.4847 72.754 51.4847 72.7573 51.4847C72.6717 51.4715 72.5894 51.4616 72.5038 51.4485C72.5071 51.4485 72.5104 51.4485 72.5137 51.4518C72.4347 51.4189 72.3556 51.386 72.2799 51.3531C72.2832 51.3531 72.2865 51.3563 72.2898 51.3563C72.224 51.3037 72.1614 51.2544 72.0956 51.2017C72.0989 51.205 72.0989 51.205 72.1022 51.2083C72.0232 51.0668 71.9441 50.9286 71.8651 50.7872C71.8651 50.7905 71.8684 50.7937 71.8684 50.7937C71.8684 50.6292 71.8717 50.4614 71.8717 50.2969C71.8717 50.3002 71.8717 50.3035 71.8684 50.3068C71.8289 50.4318 71.8223 50.5569 71.8487 50.6819C71.8553 50.8069 71.8915 50.9221 71.9573 51.0306C72.0166 51.1425 72.0956 51.2346 72.2009 51.3004C72.2931 51.3892 72.405 51.4485 72.5334 51.4781C72.7737 51.534 73.0404 51.5241 73.2576 51.3892C73.4585 51.2675 73.6494 51.0668 73.6988 50.8201Z" fill="white"/>
<path d="M71.0521 51.5044C71.029 51.4978 71.0093 51.4913 70.9863 51.4847C70.7492 51.4189 70.476 51.4551 70.262 51.5735C70.1501 51.6327 70.0579 51.7117 69.9921 51.817C69.9032 51.9091 69.8439 52.021 69.8143 52.1493C69.7583 52.3894 69.7682 52.6559 69.9032 52.8731C70.0382 53.0869 70.2291 53.2514 70.4793 53.3205C70.5023 53.3271 70.5221 53.3337 70.5451 53.3403C70.7821 53.4061 71.0554 53.3699 71.2694 53.2514C71.3813 53.1922 71.4735 53.1133 71.5393 53.008C71.6282 52.9159 71.6874 52.804 71.7171 52.6757C71.773 52.4355 71.7632 52.169 71.6282 51.9519C71.4932 51.738 71.3023 51.5735 71.0521 51.5044Z" fill="white"/>
<path d="M67.6187 54.2253C67.2927 55.4064 69.1297 55.9164 69.4556 54.7319C69.7815 53.5508 67.9446 53.0409 67.6187 54.2253Z" fill="white"/>
<path d="M65.0171 55.9756C64.6912 57.1568 66.5281 57.6667 66.854 56.4823C67.1799 55.3012 65.343 54.7912 65.0171 55.9756Z" fill="white"/>
<path d="M62.8156 57.3081C62.809 57.3311 62.8024 57.3509 62.7992 57.3739C62.7333 57.6108 62.7695 57.8839 62.888 58.0977C62.9473 58.2096 63.0263 58.3017 63.1316 58.3675C63.2238 58.4563 63.3358 58.5155 63.4641 58.5452C63.7045 58.6011 63.9711 58.5912 64.1884 58.4563C64.4024 58.3214 64.567 58.1306 64.6361 57.8806C64.6427 57.8575 64.6493 57.8378 64.6525 57.8148C64.7184 57.5779 64.6822 57.3048 64.5637 57.091C64.5044 56.9791 64.4254 56.887 64.3201 56.8212C64.2279 56.7323 64.116 56.6731 63.9876 56.6435C63.7472 56.5876 63.4806 56.5975 63.2633 56.7323C63.0493 56.8672 62.8847 57.0581 62.8156 57.3081Z" fill="white"/>
<path d="M60.4517 58.453C60.1258 59.6341 61.9627 60.1441 62.2886 58.9596C62.6145 57.7785 60.7776 57.2718 60.4517 58.453Z" fill="white"/>
<path d="M57.5415 59.2722C57.2156 60.4533 59.0525 60.9633 59.3784 59.7789C59.7043 58.5977 57.8674 58.0911 57.5415 59.2722Z" fill="white"/>
<path d="M54.5024 59.7986C54.1765 60.9798 56.0135 61.4897 56.3394 60.3053C56.6653 59.1242 54.8284 58.6142 54.5024 59.7986Z" fill="white"/>
<path d="M51.5402 60.2987C51.5336 60.3217 51.5271 60.3415 51.5238 60.3645C51.4579 60.6014 51.4941 60.8745 51.6126 61.0883C51.6719 61.2002 51.7509 61.2923 51.8563 61.3581C51.9484 61.4469 52.0604 61.5061 52.1887 61.5358C52.4291 61.5917 52.6957 61.5818 52.913 61.4469C53.127 61.312 53.2916 61.1212 53.3607 60.8712C53.3673 60.8481 53.3739 60.8284 53.3771 60.8054C53.443 60.5685 53.4068 60.2954 53.2883 60.0816C53.229 59.9697 53.15 59.8776 53.0447 59.8118C52.9525 59.7229 52.8406 59.6637 52.7122 59.6341C52.4719 59.5782 52.2052 59.5881 51.9879 59.7229C51.774 59.8578 51.6094 60.0487 51.5402 60.2987Z" fill="white"/>
<path d="M48.9625 60.4336C48.9559 60.4566 48.9493 60.4764 48.9427 60.4994C48.8769 60.7363 48.9131 61.0094 49.0316 61.2232C49.0908 61.3351 49.1699 61.4272 49.2752 61.493C49.3674 61.5818 49.4793 61.641 49.6077 61.6707C49.848 61.7266 50.1147 61.7167 50.3319 61.5818C50.5459 61.4469 50.7105 61.2561 50.7796 61.0061C50.7862 60.983 50.7928 60.9633 50.7994 60.9403C50.8652 60.7034 50.829 60.4303 50.7105 60.2165C50.6512 60.1046 50.5722 60.0125 50.4669 59.9467C50.3747 59.8578 50.2628 59.7986 50.1344 59.769C49.8941 59.7131 49.6274 59.7229 49.4102 59.8578C49.1962 59.9927 49.0316 60.1836 48.9625 60.4336Z" fill="white"/>
<path d="M46.0981 60.8416C45.7722 62.0228 47.6092 62.5327 47.9351 61.3483C48.261 60.1672 46.4241 59.6605 46.0981 60.8416Z" fill="white"/>
<path d="M43.4752 61.141C43.4686 61.164 43.462 61.1838 43.4554 61.2068C43.3896 61.4437 43.4258 61.7167 43.5443 61.9306C43.6035 62.0425 43.6826 62.1346 43.7879 62.2004C43.8801 62.2892 43.992 62.3484 44.1204 62.378C44.3607 62.434 44.6273 62.4241 44.8446 62.2892C45.0586 62.1543 45.2232 61.9635 45.2923 61.7135C45.2989 61.6904 45.3055 61.6707 45.3121 61.6477C45.3779 61.4108 45.3417 61.1377 45.2232 60.9238C45.1639 60.812 45.0849 60.7199 44.9796 60.6541C44.8874 60.5652 44.7755 60.506 44.6471 60.4764C44.4068 60.4205 44.1401 60.4303 43.9229 60.5652C43.7089 60.7001 43.541 60.8909 43.4752 61.141Z" fill="white"/>
<path d="M41.045 61.0061C41.0187 61.0225 40.9891 61.039 40.9627 61.0521C40.7487 61.1738 40.5809 61.391 40.515 61.6279C40.4525 61.8516 40.4788 62.151 40.6039 62.3517C40.7356 62.559 40.9298 62.7432 41.18 62.7991C41.4269 62.8551 41.6804 62.8353 41.9042 62.7103C41.9306 62.6938 41.9602 62.6774 41.9865 62.6642C42.2005 62.5425 42.3684 62.3254 42.4342 62.0885C42.4968 61.8648 42.4705 61.5654 42.3454 61.3647C42.2137 61.1574 42.0195 60.9732 41.7693 60.9172C41.5224 60.8613 41.2722 60.881 41.045 61.0061Z" fill="white"/>
<path d="M37.9048 62.3912C37.5789 63.5723 39.4158 64.0823 39.7417 62.8978C40.0676 61.7167 38.2307 61.2068 37.9048 62.3912Z" fill="white"/>
<path d="M36.4203 62.4043C36.3972 62.3977 36.3775 62.3912 36.3544 62.3846C36.1174 62.3188 35.8442 62.355 35.6302 62.4734C35.5183 62.5326 35.4261 62.6116 35.3602 62.7169C35.2714 62.809 35.2121 62.9209 35.1825 63.0492C35.1265 63.2893 35.1364 63.5558 35.2714 63.773C35.4063 63.9868 35.5973 64.1513 35.8475 64.2204C35.8705 64.227 35.8903 64.2336 35.9133 64.2402C36.1503 64.306 36.4236 64.2698 36.6375 64.1513C36.7495 64.0921 36.8416 64.0132 36.9075 63.9079C36.9964 63.8158 37.0556 63.7039 37.0852 63.5756C37.1412 63.3354 37.1313 63.0689 36.9964 62.8518C36.8614 62.6379 36.6672 62.4734 36.4203 62.4043Z" fill="white"/>
<path d="M32.7662 64.6416C32.7596 64.6646 32.753 64.6844 32.7464 64.7074C32.6806 64.9443 32.7168 65.2174 32.8353 65.4312C32.8946 65.5431 32.9736 65.6352 33.0789 65.701C33.1711 65.7898 33.283 65.849 33.4114 65.8787C33.6517 65.9346 33.9184 65.9247 34.1356 65.7898C34.3496 65.6549 34.5142 65.4641 34.5833 65.2141C34.5899 65.191 34.5965 65.1713 34.6031 65.1483C34.6689 64.9114 34.6327 64.6383 34.5142 64.4245C34.455 64.3126 34.376 64.2205 34.2706 64.1547C34.1784 64.0658 34.0665 64.0066 33.9381 63.977C33.6978 63.9211 33.4312 63.931 33.2139 64.0658C32.9999 64.2007 32.8353 64.3916 32.7662 64.6416Z" fill="white"/>
<path d="M30.8634 65.6747C30.837 65.6911 30.8074 65.7076 30.7811 65.7207C30.5671 65.8425 30.3992 66.0596 30.3334 66.2965C30.2708 66.5202 30.2972 66.8196 30.4223 67.0203C30.5539 67.2276 30.7482 67.4118 30.9984 67.4678C31.2453 67.5237 31.4987 67.504 31.7226 67.3789C31.7489 67.3625 31.7785 67.346 31.8049 67.3329C32.0189 67.2111 32.1868 66.994 32.2526 66.7571C32.3151 66.5334 32.2888 66.234 32.1637 66.0333C32.032 65.826 31.8378 65.6418 31.5876 65.5859C31.3407 65.5299 31.0872 65.5464 30.8634 65.6747Z" fill="white"/>
<path d="M28.6378 67.5993C28.6115 67.6158 28.5818 67.6322 28.5555 67.6454C28.3415 67.7671 28.1736 67.9843 28.1078 68.2211C28.0452 68.4449 28.0716 68.7443 28.1967 68.9449C28.3284 69.1522 28.5226 69.3365 28.7728 69.3924C29.0197 69.4483 29.2731 69.4286 29.497 69.3036C29.5233 69.2871 29.553 69.2707 29.5793 69.2575C29.7933 69.1358 29.9612 68.9186 30.027 68.6817C30.0896 68.458 30.0632 68.1586 29.9381 67.9579C29.8065 67.7507 29.6122 67.5664 29.362 67.5105C29.1151 67.4546 28.8617 67.4743 28.6378 67.5993Z" fill="white"/>
<path d="M26.2612 70.0405C25.9353 71.2216 27.7722 71.7316 28.0982 70.5472C28.4241 69.366 26.5904 68.8594 26.2612 70.0405Z" fill="white"/>
<path d="M24.3149 71.9718C23.989 73.1529 25.826 73.6629 26.1519 72.4785C26.4778 71.3006 24.6441 70.7907 24.3149 71.9718Z" fill="white"/>
<path d="M23.8148 73.528C23.7917 73.5214 23.772 73.5148 23.749 73.5082C23.5119 73.4424 23.2387 73.4786 23.0247 73.5971C22.9128 73.6563 22.8206 73.7353 22.7548 73.8405C22.6659 73.9327 22.6066 74.0445 22.577 74.1728C22.521 74.413 22.5309 74.6795 22.6659 74.8966C22.8009 75.1105 22.9918 75.275 23.242 75.3441C23.265 75.3507 23.2848 75.3572 23.3078 75.3638C23.5448 75.4296 23.8181 75.3934 24.0321 75.275C24.144 75.2158 24.2362 75.1368 24.302 75.0315C24.3909 74.9394 24.4501 74.8275 24.4798 74.6992C24.5357 74.4591 24.5259 74.1926 24.3909 73.9754C24.2559 73.7616 24.065 73.5971 23.8148 73.528Z" fill="white"/>
<path d="M20.6089 76.4529C20.6024 76.4759 20.5958 76.4956 20.5892 76.5187C20.5234 76.7556 20.5596 77.0286 20.6781 77.2425C20.7373 77.3544 20.8163 77.4465 20.9217 77.5123C21.0139 77.6011 21.1258 77.6603 21.2542 77.6899C21.4945 77.7459 21.7611 77.736 21.9784 77.6011C22.1924 77.4662 22.357 77.2754 22.4261 77.0253C22.4327 77.0023 22.4393 76.9826 22.4459 76.9595C22.5117 76.7227 22.4755 76.4496 22.357 76.2357C22.2977 76.1239 22.2187 76.0318 22.1134 75.966C22.0212 75.8771 21.9093 75.8179 21.7809 75.7883C21.5406 75.7324 21.2739 75.7422 21.0567 75.8771C20.8427 76.012 20.6781 76.2028 20.6089 76.4529Z" fill="white"/>
<path d="M18.9956 78.9697C18.6697 80.1508 20.5066 80.6608 20.8325 79.4764C21.1584 78.2952 19.3215 77.7886 18.9956 78.9697Z" fill="white"/>
<path d="M83.4653 17.8243C83.1394 19.0054 84.9764 19.5154 85.3023 18.3309C85.6282 17.1498 83.7912 16.6399 83.4653 17.8243Z" fill="white"/>
<path d="M82.603 20.6899C82.2771 21.871 84.114 22.381 84.44 21.1965C84.7659 20.0154 82.9289 19.5055 82.603 20.6899Z" fill="white"/>
<path d="M81.6255 23.4535C81.2996 24.6347 83.1365 25.1446 83.4624 23.9602C83.7883 22.7791 81.9547 22.2691 81.6255 23.4535Z" fill="white"/>
<path d="M80.605 26.1316C80.2791 27.3127 82.116 27.8227 82.4419 26.6383C82.7678 25.4604 80.9309 24.9505 80.605 26.1316Z" fill="white"/>
<path d="M79.5222 29.5665C79.5386 29.5928 79.5551 29.6224 79.5683 29.6487C79.6901 29.8626 79.9073 30.0304 80.1443 30.0962C80.3682 30.1587 80.6678 30.1324 80.8686 30.0073C81.076 29.8757 81.2603 29.6816 81.3163 29.4316C81.3723 29.1848 81.3525 28.9315 81.2274 28.7078C81.2109 28.6815 81.1945 28.6518 81.1813 28.6255C81.0595 28.4117 80.8422 28.2439 80.6052 28.1781C80.3814 28.1156 80.0818 28.1419 79.881 28.2669C79.6736 28.3985 79.4892 28.5926 79.4333 28.8427C79.374 29.0894 79.3938 29.3428 79.5222 29.5665Z" fill="white"/>
<path d="M80.1441 31.093C80.1276 31.0667 80.1112 31.0371 80.098 31.0108C79.9762 30.7969 79.7589 30.6291 79.5219 30.5633C79.2981 30.5008 78.9985 30.5271 78.7977 30.6522C78.5903 30.7838 78.4059 30.9779 78.35 31.2279C78.294 31.4747 78.3138 31.728 78.4389 31.9517C78.4553 31.9781 78.4718 32.0077 78.485 32.034C78.6068 32.2478 78.824 32.4156 79.061 32.4814C79.2849 32.5439 79.5845 32.5176 79.7853 32.3926C79.9927 32.261 80.177 32.0669 80.233 31.8168C80.289 31.5701 80.2725 31.3168 80.1441 31.093Z" fill="white"/>
<path d="M77.2603 33.8896C76.9344 35.0707 78.7713 35.5807 79.0972 34.3962C79.4231 33.2151 77.5895 32.7052 77.2603 33.8896Z" fill="white"/>
<path d="M75.769 36.2255C75.4431 37.4066 77.2801 37.9166 77.606 36.7321C77.9319 35.5543 76.095 35.0444 75.769 36.2255Z" fill="white"/>
<path d="M75.5419 39.8248C75.5683 39.8084 75.5979 39.7919 75.6242 39.7787C75.8382 39.657 76.0061 39.4399 76.0719 39.203C76.1345 38.9793 76.1081 38.6799 75.9831 38.4792C75.8514 38.2719 75.6571 38.0877 75.407 38.0317C75.1601 37.9758 74.9066 37.9955 74.6827 38.1206C74.6564 38.137 74.6268 38.1535 74.6004 38.1666C74.3864 38.2884 74.2186 38.5055 74.1527 38.7424C74.0902 38.9661 74.1165 39.2655 74.2416 39.4662C74.3733 39.6735 74.5675 39.8577 74.8177 39.9136C75.0646 39.9729 75.3181 39.9531 75.5419 39.8248Z" fill="white"/>
<path d="M72.7632 40.9697C72.4373 42.1508 74.2742 42.6608 74.6001 41.4764C74.926 40.2952 73.0891 39.7886 72.7632 40.9697Z" fill="white"/>
<path d="M71.2456 42.8813C70.9197 44.0624 72.7566 44.5724 73.0825 43.388C73.4084 42.2068 71.5748 41.6969 71.2456 42.8813Z" fill="white"/>
<path d="M71.4898 44.7894C71.4733 44.7631 71.4569 44.7335 71.4437 44.7072C71.3219 44.4933 71.1046 44.3255 70.8676 44.2597C70.6438 44.1972 70.3442 44.2236 70.1434 44.3486C69.936 44.4802 69.7516 44.6743 69.6957 44.9243C69.6397 45.1711 69.6595 45.4244 69.7846 45.6481C69.801 45.6745 69.8175 45.7041 69.8307 45.7304C69.9525 45.9443 70.1697 46.112 70.4068 46.1778C70.6306 46.2404 70.9302 46.214 71.131 46.089C71.3384 45.9574 71.5227 45.7633 71.5787 45.5133C71.6347 45.2665 71.6182 45.0132 71.4898 44.7894Z" fill="white"/>
<path d="M67.5824 46.9478C67.5693 46.9905 67.5594 47.0366 67.5462 47.0794C67.4804 47.3162 67.5166 47.5893 67.6351 47.8032C67.6944 47.915 67.7734 48.0071 67.8787 48.0729C67.9709 48.1618 68.0828 48.221 68.2112 48.2506C68.4515 48.3065 68.7182 48.2967 68.9354 48.1618C69.1494 48.0269 69.314 47.8361 69.3832 47.586C69.3963 47.5433 69.4062 47.4972 69.4194 47.4544C69.4852 47.2175 69.449 46.9445 69.3305 46.7306C69.2712 46.6187 69.1922 46.5266 69.0869 46.4608C68.9947 46.372 68.8828 46.3128 68.7544 46.2832C68.5141 46.2272 68.2474 46.2371 68.0301 46.372C67.8162 46.5069 67.6516 46.701 67.5824 46.9478Z" fill="white"/>
<path d="M65.5249 48.777C65.199 49.9581 67.0359 50.4681 67.3618 49.2837C67.6877 48.1058 65.8508 47.5959 65.5249 48.777Z" fill="white"/>
<path d="M63.3062 50.422C62.9802 51.6031 64.8172 52.1131 65.1431 50.9287C65.469 49.7508 63.6321 49.2409 63.3062 50.422Z" fill="white"/>
<path d="M60.7349 51.5472C60.7283 51.5703 60.7218 51.59 60.7152 51.613C60.6493 51.8499 60.6855 52.123 60.8041 52.3368C60.8633 52.4487 60.9423 52.5408 61.0477 52.6066C61.1398 52.6955 61.2518 52.7547 61.3802 52.7843C61.6205 52.8402 61.8871 52.8304 62.1044 52.6955C62.3184 52.5606 62.483 52.3697 62.5521 52.1197C62.5587 52.0967 62.5653 52.0769 62.5719 52.0539C62.6377 51.817 62.6015 51.5439 62.483 51.3301C62.4237 51.2182 62.3447 51.1261 62.2394 51.0603C62.1472 50.9715 62.0353 50.9123 61.9069 50.8827C61.6666 50.8267 61.3999 50.8366 61.1826 50.9715C60.9687 51.1064 60.8041 51.3005 60.7349 51.5472Z" fill="white"/>
<path d="M59.2826 52.2052C59.2595 52.1986 59.2398 52.1921 59.2167 52.1855C58.9797 52.1197 58.7065 52.1559 58.4925 52.2743C58.3806 52.3335 58.2884 52.4125 58.2225 52.5178C58.1337 52.6099 58.0744 52.7218 58.0448 52.8501C57.9888 53.0903 57.9987 53.3567 58.1337 53.5739C58.2686 53.7877 58.4596 53.9522 58.7098 54.0213C58.7328 54.0279 58.7526 54.0345 58.7756 54.0411C59.0126 54.1069 59.2859 54.0707 59.4998 53.9522C59.6118 53.893 59.7039 53.8141 59.7698 53.7088C59.8587 53.6167 59.9179 53.5048 59.9475 53.3765C60.0035 53.1363 59.9936 52.8698 59.8587 52.6527C59.7237 52.4388 59.5328 52.2743 59.2826 52.2052Z" fill="white"/>
<path d="M55.0894 53.587C54.7635 54.7681 56.6004 55.2781 56.9263 54.0937C57.2522 52.9126 55.4153 52.4059 55.0894 53.587Z" fill="white"/>
<path d="M52.646 54.2549C52.3201 55.4361 54.157 55.946 54.4829 54.7616C54.8088 53.5805 52.9719 53.0705 52.646 54.2549Z" fill="white"/>
<path d="M50.0425 54.7353C49.7166 55.9164 51.5535 56.4264 51.8794 55.242C52.2053 54.0608 50.3717 53.5509 50.0425 54.7353Z" fill="white"/>
<path d="M47.1128 55.1268C46.7869 56.3079 48.6238 56.8178 48.9497 55.6334C49.2756 54.4523 47.4387 53.9423 47.1128 55.1268Z" fill="white"/>
<path d="M43.9888 55.5315C43.6629 56.7126 45.4998 57.2226 45.8257 56.0382C46.1516 54.8603 44.3147 54.3504 43.9888 55.5315Z" fill="white"/>
<path d="M40.8677 56.0118C40.5418 57.1929 42.3787 57.7029 42.7046 56.5185C43.0305 55.3374 41.1936 54.8307 40.8677 56.0118Z" fill="white"/>
<path d="M38.02 56.354C37.6941 57.5351 39.531 58.0451 39.8569 56.8606C40.1829 55.6795 38.3459 55.1729 38.02 56.354Z" fill="white"/>
<path d="M35.4263 57.0514C35.1004 58.2326 36.9373 58.7425 37.2632 57.5581C37.5891 56.377 35.7555 55.867 35.4263 57.0514Z" fill="white"/>
<path d="M32.6735 58.3378C32.6702 58.351 32.6669 58.3641 32.6636 58.3773C32.3377 59.5584 34.1746 60.0684 34.5005 58.884C34.5038 58.8708 34.5071 58.8577 34.5104 58.8445C34.8363 57.6634 32.9994 57.1534 32.6735 58.3378C32.6702 58.351 32.6669 58.3641 32.6636 58.3773C32.3377 59.5584 34.1746 60.0684 34.5005 58.884C34.5038 58.8708 34.5071 58.8577 34.5104 58.8445C34.8363 57.6634 32.9994 57.1534 32.6735 58.3378Z" fill="white"/>
<path d="M30.0669 59.5914C29.741 60.7725 31.5779 61.2825 31.9038 60.0981C32.2297 58.9169 30.3928 58.4103 30.0669 59.5914Z" fill="white"/>
<path d="M29.4381 60.9436C29.4216 60.9173 29.4051 60.8877 29.392 60.8614C29.2702 60.6475 29.0529 60.4797 28.8159 60.4139C28.592 60.3514 28.2924 60.3777 28.0916 60.5028C27.8842 60.6344 27.6999 60.8285 27.6439 61.0785C27.588 61.3253 27.6077 61.5786 27.7328 61.8023C27.7493 61.8286 27.7657 61.8583 27.7789 61.8846C27.9007 62.0984 28.118 62.2662 28.355 62.332C28.5788 62.3945 28.8784 62.3682 29.0792 62.2432C29.2866 62.1116 29.471 61.9175 29.5269 61.6674C29.5862 61.4207 29.5664 61.1673 29.4381 60.9436Z" fill="white"/>
<path d="M24.9572 63.0131C24.9506 63.0361 24.944 63.0558 24.9408 63.0789C24.8749 63.3157 24.9111 63.5888 25.0296 63.8027C25.0889 63.9145 25.1679 64.0067 25.2732 64.0725C25.3654 64.1613 25.4774 64.2205 25.6057 64.2501C25.8461 64.306 26.1127 64.2962 26.33 64.1613C26.544 64.0264 26.7086 63.8356 26.7777 63.5855C26.7843 63.5625 26.7909 63.5428 26.7974 63.5197C26.8633 63.2828 26.8271 63.0098 26.7086 62.7959C26.6493 62.6841 26.5703 62.5919 26.4649 62.5261C26.3728 62.4373 26.2608 62.3781 26.1325 62.3485C25.8921 62.2925 25.6255 62.3024 25.4082 62.4373C25.1909 62.5722 25.0263 62.7663 24.9572 63.0131Z" fill="white"/>
<path d="M22.9429 64.6811C22.617 65.8622 24.4539 66.3722 24.7798 65.1878C25.1057 64.0066 23.2688 63.4967 22.9429 64.6811Z" fill="white"/>
<path d="M21.2905 66.836C20.9646 68.0171 22.8015 68.5271 23.1275 67.3427C23.4534 66.1615 21.6164 65.6516 21.2905 66.836Z" fill="white"/>
<path d="M20.6019 68.5502C20.5789 68.5436 20.5591 68.537 20.5361 68.5305C20.299 68.4647 20.0258 68.5008 19.8118 68.6193C19.6999 68.6785 19.6077 68.7575 19.5419 68.8628C19.453 68.9549 19.3937 69.0667 19.3641 69.195C19.3082 69.4352 19.318 69.7017 19.453 69.9189C19.588 70.1327 19.7789 70.2972 20.0291 70.3663C20.0521 70.3729 20.0719 70.3795 20.0949 70.386C20.332 70.4518 20.6052 70.4157 20.8192 70.2972C20.9311 70.238 21.0233 70.159 21.0891 70.0537C21.178 69.9616 21.2373 69.8498 21.2669 69.7215C21.3228 69.4813 21.313 69.2148 21.178 68.9976C21.043 68.7838 20.8521 68.6193 20.6019 68.5502Z" fill="white"/>
<path d="M17.8892 71.4684C17.5633 72.6495 19.4002 73.1595 19.7261 71.9751C20.052 70.7972 18.2184 70.2873 17.8892 71.4684Z" fill="white"/>
<path d="M16.5962 73.8636C16.2703 75.0447 18.1072 75.5547 18.4331 74.3703C18.759 73.1891 16.9221 72.6792 16.5962 73.8636Z" fill="white"/>
<path d="M15.8942 76.1403C15.881 76.1371 15.8679 76.1338 15.8547 76.1305C14.6729 75.8048 14.1626 77.6406 15.3477 77.9663C15.3609 77.9696 15.3741 77.9729 15.3872 77.9762C16.5691 78.3019 17.0793 76.4661 15.8942 76.1403C15.881 76.1371 15.8679 76.1338 15.8547 76.1305C14.6729 75.8048 14.1626 77.6406 15.3477 77.9663C15.3609 77.9696 15.3741 77.9729 15.3872 77.9762C16.5691 78.3019 17.0793 76.4661 15.8942 76.1403Z" fill="white"/>
<path d="M13.1851 79.5554C12.8592 80.7365 14.6961 81.2464 15.022 80.062C15.3479 78.8809 13.5143 78.3709 13.1851 79.5554Z" fill="white"/>
</g>
</g>
<defs>
<clipPath id="clip0">
<rect width="104" height="80" fill="white" transform="translate(0 0.5)"/>
</clipPath>
</defs>
</svg>
