<?xml version="1.0" standalone="no"?>
<!DOCTYPE svg PUBLIC "-//W3C//DTD SVG 1.1//EN" "http://www.w3.org/Graphics/SVG/1.1/DTD/svg11.dtd" >
<svg xmlns="http://www.w3.org/2000/svg">
<metadata></metadata>
<defs>
<font id="transtext_rmroman" horiz-adv-x="1024" >
<font-face units-per-em="2048" ascent="1556" descent="-492" />
<missing-glyph horiz-adv-x="587" />
<glyph horiz-adv-x="0" />
<glyph horiz-adv-x="0" />
<glyph unicode="&#xd;" horiz-adv-x="2048" />
<glyph unicode=" "  horiz-adv-x="587" />
<glyph unicode="&#x09;" horiz-adv-x="587" />
<glyph unicode="&#xa0;" horiz-adv-x="587" />
<glyph unicode="!" horiz-adv-x="821" d="M303 0v217h217v-217h-217zM303 1421h217l-35 -1034h-147z" />
<glyph unicode="&#x22;" horiz-adv-x="614" d="M90 881v555h139v-555h-139zM385 881v555h139v-555h-139z" />
<glyph unicode="#" horiz-adv-x="1574" d="M88 449l53 147h310l92 262h-330l51 146h332l162 454h166l-162 -454h256l164 454h164l-160 -454h301l-51 -146h-303l-93 -262h322l-51 -147h-322l-162 -453h-165l161 453h-258l-162 -453h-165l159 453h-309zM616 594h261l92 264h-260z" />
<glyph unicode="$" horiz-adv-x="1175" d="M176 1065q0 146 96.5 238.5t274.5 117.5v187h100v-181q167 0 324 -49l-23 -166q-144 67 -301 70v-455q209 -85 303 -184.5t94 -236.5q0 -159 -106.5 -267.5t-290.5 -134.5v-176h-100v172h-21q-178 0 -340 61l21 183q160 -86 340 -86v516q-192 72 -281.5 166.5 t-89.5 224.5zM367 1079q0 -133 180 -213v410q-86 -20 -133 -71.5t-47 -125.5zM647 164q92 19 148.5 79t56.5 140q0 81 -49.5 141.5t-155.5 110.5v-471z" />
<glyph unicode="%" horiz-adv-x="1777" d="M76 1063q0 177 90 281t242 104t241.5 -104t89.5 -281q0 -173 -91 -279t-240 -106q-152 0 -242 104t-90 281zM240 1065q0 -122 46 -192t124 -70t123 69.5t45 192.5q0 124 -44 193t-124 69q-78 0 -124 -70.5t-46 -191.5zM449 -27l755 1475h137l-753 -1475h-139zM1051 358 q0 177 89.5 281t241.5 104t241 -103.5t89 -281.5q0 -177 -89 -281t-241 -104t-241.5 104t-89.5 281zM1214 360q0 -122 45 -192t123 -70t124 70t46 192t-46 192.5t-124 70.5t-123 -70.5t-45 -192.5z" />
<glyph unicode="&#x26;" horiz-adv-x="1421" d="M113 383q0 273 311 405q-88 93 -130 174t-42 162q0 143 108 232.5t281 89.5q171 0 274 -84t103 -225q0 -238 -328 -385l334 -361q113 159 125 385h170q-12 -292 -182 -506l249 -270h-235l-133 147q-175 -172 -430 -172q-213 0 -344 113t-131 295zM305 387q0 -113 86 -190 q85 -76 215 -76q179 0 305 141l-383 418q-106 -50 -164.5 -126.5t-58.5 -166.5zM432 1118q0 -58 35.5 -117t126.5 -145q250 110 250 262q0 80 -57.5 131t-149.5 51q-90 0 -147.5 -51t-57.5 -131z" />
<glyph unicode="'" horiz-adv-x="317" d="M90 881v555h139v-555h-139z" />
<glyph unicode="(" horiz-adv-x="661" d="M135 637q0 440 328 909h149q-293 -486 -293 -909q0 -217 71 -437.5t222 -469.5h-149q-328 475 -328 907z" />
<glyph unicode=")" horiz-adv-x="661" d="M49 -270q151 249 222 469.5t71 437.5q0 218 -71 439t-222 470h150q329 -472 329 -909q0 -435 -329 -907h-150z" />
<glyph unicode="*" d="M111 1161l55 168l303 -147l-39 336h164l-39 -336l303 147l53 -168l-329 -61l233 -244l-143 -106l-160 299l-160 -299l-145 106l235 244z" />
<glyph unicode="+" horiz-adv-x="1705" d="M254 541v139h528v541h142v-541h528v-139h-528v-541h-142v541h-528z" />
<glyph unicode="," horiz-adv-x="587" d="M98 -254l127 471h207l-168 -471h-166z" />
<glyph unicode="-" horiz-adv-x="692" d="M90 483v156h512v-156h-512z" />
<glyph unicode="." horiz-adv-x="587" d="M188 0v219h211v-219h-211z" />
<glyph unicode="/" horiz-adv-x="569" d="M-109 -190l582 1638h145l-583 -1638h-144z" />
<glyph unicode="0" horiz-adv-x="1175" d="M104 711q0 358 124.5 547.5t359.5 189.5t359 -188.5t124 -548.5q0 -358 -124 -548t-359 -190t-359.5 189t-124.5 549zM305 713q0 -285 73 -434.5t212 -149.5q135 0 207.5 149t72.5 431q0 289 -71.5 439t-210.5 150t-211 -148.5t-72 -436.5z" />
<glyph unicode="1" horiz-adv-x="1175" d="M211 1135l360 286h164v-1421h-186v1208l-236 -202z" />
<glyph unicode="2" horiz-adv-x="1175" d="M121 0v166q388 388 516 567q133 189 133 316q0 100 -73.5 162.5t-190.5 62.5q-167 0 -318 -103l-22 183q203 90 397 90q176 0 291 -109q113 -107 113 -276q0 -162 -133 -363q-126 -190 -476 -534h650v-162h-887z" />
<glyph unicode="3" horiz-adv-x="1175" d="M96 43l23 184q138 -75 301 -75q167 0 272 76.5t105 199.5q0 111 -87 172.5t-245 61.5h-152v155h156q146 0 234 63t88 167q0 100 -86 163.5t-222 63.5t-309 -70l-10 168q192 60 358 60q213 0 338 -101q129 -102 129 -266q0 -118 -78 -203.5t-215 -116.5 q146 -25 227 -112.5t81 -218.5q0 -191 -152 -310q-149 -116 -401 -116q-198 0 -355 55z" />
<glyph unicode="4" horiz-adv-x="1175" d="M55 319v183l621 919h239v-946h207v-156h-207v-319h-186v319h-674zM219 475h510l4 772z" />
<glyph unicode="5" horiz-adv-x="1175" d="M174 223q130 -76 307 -76q164 0 262.5 85.5t98.5 226.5q0 131 -93 208.5t-251 77.5q-132 0 -308 -45l13 721h782v-151h-598l-8 -393q97 20 192 20q220 0 346.5 -116.5t126.5 -317.5q0 -221 -153 -350q-150 -129 -412 -129q-146 0 -303 55z" />
<glyph unicode="6" horiz-adv-x="1175" d="M129 643q0 381 160.5 589t453.5 208q148 0 287 -45l-14 -166q-108 57 -250 57q-213 0 -328.5 -146.5t-120.5 -422.5q55 90 142.5 137t197.5 47q188 0 308 -123t120 -315q0 -213 -131 -350q-129 -138 -331 -138q-238 0 -366 172.5t-128 495.5zM344 432q0 -134 76.5 -218.5 t197.5 -84.5q119 0 196 85.5t77 219.5q0 143 -76 228.5t-203 85.5q-117 0 -192.5 -88.5t-75.5 -227.5z" />
<glyph unicode="7" horiz-adv-x="1175" d="M115 1264v157h901v-174l-545 -1247h-219l561 1264h-698z" />
<glyph unicode="8" horiz-adv-x="1175" d="M98 371q0 274 328 368q-134 57 -205 149.5t-71 209.5q0 159 124 252q128 96 330 96q192 0 311 -92.5t119 -241.5q0 -115 -73.5 -210t-210.5 -157q166 -60 246.5 -152t80.5 -222q0 -177 -137 -287q-139 -109 -358 -109q-216 0 -351 111q-133 115 -133 285zM293 383 q0 -109 82 -182q84 -72 209 -72t207 70q83 71 83 176q0 95 -75 168.5t-232 130.5q-274 -102 -274 -291zM336 1085q0 -88 62 -153.5t204 -128.5q118 63 180 139t62 156q0 90 -67.5 147.5t-172.5 57.5q-118 0 -193 -62t-75 -156z" />
<glyph unicode="9" horiz-adv-x="1175" d="M117 958q0 214 131 351q133 139 332 139q238 0 365.5 -173.5t127.5 -498.5q0 -379 -160.5 -585.5t-455.5 -206.5q-146 0 -285 45l14 166q110 -58 250 -58q214 0 329.5 145.5t119.5 422.5q-55 -90 -143 -137.5t-197 -47.5q-189 0 -309 123q-119 122 -119 315zM311 973 q0 -130 76 -213.5t195 -83.5q125 0 200.5 86.5t75.5 232.5q0 133 -74.5 216t-193.5 83q-121 0 -201 -92q-78 -90 -78 -229z" />
<glyph unicode=":" horiz-adv-x="587" d="M188 0v219h211v-219h-211zM188 815v221h211v-221h-211z" />
<glyph unicode=";" horiz-adv-x="587" d="M90 -254l125 471h209l-168 -471h-166zM209 809v219h211v-219h-211z" />
<glyph unicode="&#x3c;" horiz-adv-x="1705" d="M264 547v129l1178 483v-153l-969 -396l969 -393v-154z" />
<glyph unicode="=" horiz-adv-x="1705" d="M254 342v139h1198v-139h-1198zM254 739v140h1198v-140h-1198z" />
<glyph unicode="&#x3e;" horiz-adv-x="1705" d="M264 63v154l971 393l-971 396v153l1178 -483v-129z" />
<glyph unicode="?" horiz-adv-x="1052" d="M137 1389q161 51 297 51q200 0 318 -96.5t118 -256.5q0 -157 -215 -413q-32 -40 -39 -47q-79 -102 -79 -221v-25h-166q0 3 -1 19t-1 32q0 73 22.5 133t77.5 133l68 84q145 174 145 281q0 99 -76 161t-198 62q-118 0 -269 -65zM346 0v217h211v-217h-211z" />
<glyph unicode="@" horiz-adv-x="2048" d="M106 522q0 331 203 582q146 178 351 270t456 92q164 0 310.5 -45t252.5 -127q129 -100 197 -231t68 -283q0 -354 -248 -551q-136 -112 -316 -112q-200 0 -200 157v19q-110 -174 -301 -174q-153 0 -233.5 85t-80.5 247q0 238 137 393q139 160 340 160q168 0 242 -150 l57 115h132l-146 -576q-8 -31 -8 -59q0 -45 25.5 -69.5t74.5 -24.5q48 0 103.5 26.5t105.5 75.5q80 75 125 186t45 234q0 261 -190 420q-188 161 -500 161q-260 0 -457 -114q-191 -116 -296 -301.5t-105 -407.5q0 -178 61.5 -308t192.5 -230q101 -76 237 -118t287 -42 q167 0 327.5 49t293.5 141l55 -82q-299 -223 -664 -223q-379 0 -628 187q-306 236 -306 628zM725 446q0 -105 48 -162t138 -57q97 0 175 69t104 179l59 236q-17 88 -68.5 136t-129.5 48q-138 0 -232 -131q-94 -128 -94 -318z" />
<glyph unicode="A" horiz-adv-x="1351" d="M8 0l567 1421h242l557 -1421h-215l-137 365h-676l-137 -365h-201zM410 524h555l-273 723z" />
<glyph unicode="B" horiz-adv-x="1177" d="M176 0v1421h381q231 0 357 -93.5t126 -264.5q0 -118 -67 -199t-195 -116q148 -35 225.5 -125.5t77.5 -225.5q0 -189 -136 -293t-386 -104h-383zM373 162h151q172 0 261 64.5t89 187.5q0 245 -325 245h-176v-497zM373 813h145q153 0 235.5 60t82.5 171q0 109 -76.5 165.5 t-222.5 56.5h-164v-453z" />
<glyph unicode="C" horiz-adv-x="1249" d="M102 702q0 331 205 527t553 196q198 0 336 -55l-8 -172q-158 68 -320 68q-257 0 -407 -150t-150 -403q0 -257 150 -404t409 -147q165 0 314 61l6 -178q-146 -49 -336 -49q-348 0 -551 188q-201 192 -201 518z" />
<glyph unicode="D" horiz-adv-x="1404" d="M176 0v1421h332q801 0 801 -714q0 -340 -209 -523.5t-596 -183.5h-328zM375 166h162q266 0 414.5 144.5t148.5 406.5q0 266 -142.5 405.5t-418.5 139.5h-164v-1096z" />
<glyph unicode="E" horiz-adv-x="1095" d="M176 0v1421h770v-153h-571v-451h540v-160h-540v-493h590v-164h-789z" />
<glyph unicode="F" horiz-adv-x="976" d="M176 0v1421h735v-155h-536v-455h514v-160h-514v-651h-199z" />
<glyph unicode="G" horiz-adv-x="1456" d="M109 709q0 328 206 522q205 196 557 196q203 0 392 -69l-29 -168q-163 82 -352 82q-256 0 -412 -156q-154 -157 -154 -411q0 -253 154 -404q155 -149 414 -149q116 0 225 41v432h-297v155h490v-712q-198 -74 -435 -74q-351 0 -555 192t-204 523z" />
<glyph unicode="H" horiz-adv-x="1394" d="M176 0v1421h199v-602h645v602h199v-1421h-199v657h-645v-657h-199z" />
<glyph unicode="I" horiz-adv-x="550" d="M176 0v1421h199v-1421h-199z" />
<glyph unicode="J" horiz-adv-x="733" d="M10 8v176q65 -24 125 -24q117 0 169 84t52 276v901h201v-944q0 -252 -90.5 -370.5t-282.5 -118.5q-95 0 -174 20z" />
<glyph unicode="K" horiz-adv-x="1208" d="M176 0v1421h199v-624l588 624h239l-639 -663l692 -758h-256l-624 694v-694h-199z" />
<glyph unicode="L" horiz-adv-x="952" d="M176 0v1421h199v-1255h567v-166h-766z" />
<glyph unicode="M" horiz-adv-x="1873" d="M176 0v1421h301l447 -1194l477 1194h297v-1421h-193v1260l-493 -1260h-176l-476 1260v-1260h-184z" />
<glyph unicode="N" horiz-adv-x="1443" d="M176 0v1421h260l651 -1194v1194h183v-1421h-254l-658 1260v-1260h-182z" />
<glyph unicode="O" horiz-adv-x="1501" d="M104 711q0 342 175 538q175 199 471 199q299 0 471 -199q174 -195 174 -538t-174 -541q-173 -197 -471 -197q-295 0 -471 197q-175 199 -175 541zM311 713q0 -265 119 -420q120 -156 320 -156q199 0 319 156q121 157 121 420t-121 420t-319 157q-199 0 -320 -157 q-119 -155 -119 -420z" />
<glyph unicode="P" horiz-adv-x="1085" d="M176 0v1421h354q508 0 508 -420q0 -201 -135.5 -311t-382.5 -110h-145v-580h-199zM375 735h129q158 0 242.5 70t84.5 201q0 123 -78.5 191.5t-220.5 68.5h-157v-531z" />
<glyph unicode="Q" horiz-adv-x="1501" d="M104 711q0 342 175 538q175 199 471 199q299 0 471 -199q174 -195 174 -538q0 -498 -371 -682l315 -301h-243l-258 252q-18 -1 -44 -3t-36 -2q-305 0 -482 195q-172 196 -172 541zM311 713q0 -265 119 -420q120 -156 320 -156q199 0 319 156q121 157 121 420t-121 420 t-319 157q-199 0 -320 -157q-119 -155 -119 -420z" />
<glyph unicode="R" horiz-adv-x="1169" d="M176 0v1421h383q488 0 488 -364q0 -135 -80.5 -224.5t-229.5 -121.5q65 -18 105 -59.5t82 -141.5l215 -510h-213l-187 465q-37 91 -93 127.5t-159 36.5h-114v-629h-197zM373 784h153q149 0 233.5 65.5t84.5 180.5q0 123 -79 180.5t-245 57.5h-147v-484z" />
<glyph unicode="S" horiz-adv-x="1075" d="M127 53l20 191q178 -90 330 -90q125 0 201 56t76 148q0 144 -299 314l-76 43q-115 66 -179.5 161t-64.5 195q0 166 126 263.5t345 97.5q169 0 303 -48l-20 -174q-137 64 -281 64q-129 0 -201.5 -47.5t-72.5 -132.5q0 -66 49 -121q54 -57 211 -142q209 -116 291 -213 q80 -95 80 -215q0 -180 -134 -299q-132 -114 -339 -114q-202 0 -365 63z" />
<glyph unicode="T" horiz-adv-x="1032" d="M18 1255v166h996v-166h-398v-1255h-200v1255h-398z" />
<glyph unicode="U" horiz-adv-x="1413" d="M164 578v843h198v-837q0 -227 83 -337t253 -110q171 0 258.5 118t87.5 347v819h185v-823q0 -625 -537 -625q-260 0 -394 153t-134 452z" />
<glyph unicode="V" horiz-adv-x="1294" d="M25 1421h211l417 -1231l432 1231h201l-524 -1421h-232z" />
<glyph unicode="W" horiz-adv-x="1937" d="M25 1421h204l306 -1194l313 1194h258l315 -1192l314 1192h188l-383 -1421h-250l-319 1262l-318 -1262h-254z" />
<glyph unicode="X" horiz-adv-x="1292" d="M14 0l514 743l-462 678h237l356 -559l353 559h219l-463 -676l508 -745h-238l-399 623l-403 -623h-222z" />
<glyph unicode="Y" horiz-adv-x="1179" d="M-33 1421h234l393 -673l401 673h217l-524 -833v-588h-201v584z" />
<glyph unicode="Z" horiz-adv-x="1099" d="M66 0v186l733 1076h-711v159h922v-176l-738 -1081h750v-164h-956z" />
<glyph unicode="[" horiz-adv-x="667" d="M188 -270v1814h361v-129h-199v-1558h199v-127h-361z" />
<glyph unicode="\" horiz-adv-x="569" d="M-49 1448h145l582 -1638h-146z" />
<glyph unicode="]" horiz-adv-x="667" d="M117 -143h200v1558h-200v129h362v-1814h-362v127z" />
<glyph unicode="^" horiz-adv-x="2048" d="M420 901l510 557h186l510 -557h-180l-422 420l-424 -420h-180z" />
<glyph unicode="_" d="M0 -340h1024v-143h-1024v143z" />
<glyph unicode="`" d="M258 1520h188l205 -355h-108z" />
<glyph unicode="a" horiz-adv-x="1081" d="M82 289q0 167 137 256.5t395 89.5h134v20q0 119 -68 186.5t-186 67.5q-136 0 -287 -86l-2 156q157 74 344 74q383 0 383 -428v-625h-170v172q-119 -186 -352 -186q-147 0 -237.5 84t-90.5 219zM272 299q0 -78 52.5 -127t134.5 -49q131 0 210 84t79 225v76h-121 q-171 0 -263 -54.5t-92 -154.5z" />
<glyph unicode="b" horiz-adv-x="1220" d="M168 0v1530h190v-666q114 187 342 187q192 0 306 -144q116 -140 116 -377q0 -248 -118 -395q-118 -151 -304 -151q-236 0 -358 225v-209h-174zM358 520q0 -173 79 -278t210 -105q125 0 200 102t75 275q0 180 -73 285.5t-196 105.5q-137 0 -216 -103.5t-79 -281.5z" />
<glyph unicode="c" horiz-adv-x="952" d="M92 512q0 234 148 379t389 145q151 0 256 -43l-15 -164q-103 54 -221 54q-158 0 -258 -103q-98 -101 -98 -264q0 -168 95.5 -269.5t254.5 -101.5q114 0 236 58l10 -168q-120 -47 -275 -47q-235 0 -378 143q-144 144 -144 381z" />
<glyph unicode="d" horiz-adv-x="1220" d="M96 530q0 238 117 379q117 144 307 144q225 0 340 -189v666h191v-1530h-174v209q-120 -225 -361 -225q-181 0 -301 153q-119 152 -119 393zM297 518q0 -176 74.5 -278.5t199.5 -102.5q130 0 209.5 104.5t79.5 276.5q0 180 -79 283.5t-214 103.5q-123 0 -196.5 -104.5 t-73.5 -282.5z" />
<glyph unicode="e" horiz-adv-x="1052" d="M92 524q0 240 131 383q134 146 348 146q201 0 317 -135.5t116 -370.5v-78h-728q10 -166 105 -257t256 -91q139 0 285 76v-164q-134 -58 -326 -58q-233 0 -369 148q-135 147 -135 401zM281 596h544q-11 154 -79 236.5t-185 82.5q-115 0 -189 -85t-91 -234z" />
<glyph unicode="f" horiz-adv-x="722" d="M47 883v145h215v162q0 177 83.5 267.5t244.5 90.5q56 0 125 -16l-6 -154q-61 21 -99 21q-82 0 -120.5 -53t-38.5 -166v-152h239v-145h-239v-883h-189v883h-215z" />
<glyph unicode="g" horiz-adv-x="1212" d="M100 518q0 245 117 389q122 146 313 146q237 0 351 -209v184h174v-911q0 -566 -512 -566q-182 0 -344 64l14 172q161 -84 301 -84q171 0 264.5 99t93.5 282v123q-124 -207 -344 -207q-189 0 -309 141q-119 143 -119 377zM301 528q0 -171 74.5 -272.5t199.5 -101.5 q128 0 207.5 101.5t79.5 266.5q0 178 -77 279.5t-212 101.5q-125 0 -198.5 -101.5t-73.5 -273.5z" />
<glyph unicode="h" horiz-adv-x="1202" d="M170 0v1530h190v-668q110 191 342 191q174 0 263.5 -109.5t89.5 -322.5v-621h-191v578q0 158 -56 234.5t-173 76.5q-128 0 -201.5 -97t-73.5 -268v-524h-190z" />
<glyph unicode="i" horiz-adv-x="512" d="M160 0v1028h192v-1028h-192zM160 1309v192h192v-192h-192z" />
<glyph unicode="j" horiz-adv-x="512" d="M-63 -430l10 143q34 -10 73 -10q76 0 108 57t32 201v1067h192v-1077q0 -209 -68.5 -302t-222.5 -93q-52 0 -124 14zM160 1309v192h192v-192h-192z" />
<glyph unicode="k" horiz-adv-x="1028" d="M170 0v1530h190v-909l406 407h223l-457 -438l515 -590h-240l-447 539v-539h-190z" />
<glyph unicode="l" horiz-adv-x="512" d="M160 0v1530h192v-1530h-192z" />
<glyph unicode="m" horiz-adv-x="1810" d="M170 0v1028h174v-190q55 104 142.5 158.5t197.5 54.5q218 0 303 -224q116 224 348 224q160 0 245 -110t85 -320v-621h-190v578q0 305 -199 305q-123 0 -193.5 -96t-70.5 -263v-524h-191v578q0 161 -49 233t-158 72q-116 0 -186 -97.5t-70 -261.5v-524h-188z" />
<glyph unicode="n" horiz-adv-x="1202" d="M170 0v1028h174v-190q116 215 358 215q174 0 263.5 -109.5t89.5 -322.5v-621h-191v578q0 158 -56 234.5t-173 76.5q-128 0 -201.5 -97t-73.5 -268v-524h-190z" />
<glyph unicode="o" horiz-adv-x="1202" d="M92 514q0 249 135 393q140 146 373 146q238 0 374 -144t136 -395q0 -250 -137 -393q-140 -146 -373 -146q-235 0 -373 144q-135 144 -135 395zM295 516q0 -173 85 -281t222 -108q140 0 223.5 106t83.5 283q0 178 -83.5 284.5t-223.5 106.5q-138 0 -223 -108 q-84 -110 -84 -283z" />
<glyph unicode="p" horiz-adv-x="1220" d="M170 -428v1456h172v-199q60 109 153 166.5t210 57.5q190 0 307 -144q116 -140 116 -374q0 -255 -118 -402q-116 -149 -314 -149q-222 0 -336 182v-594h-190zM360 520q0 -178 77 -282.5t208 -104.5q129 0 206 105t77 284q0 176 -73.5 276.5t-201.5 100.5 q-133 0 -213 -103.5t-80 -275.5z" />
<glyph unicode="q" horiz-adv-x="1220" d="M92 539q0 231 117 372q121 142 309 142q115 0 207 -57.5t152 -166.5v199h174v-1456h-191v594q-57 -88 -144.5 -135t-195.5 -47q-195 0 -311 149q-117 150 -117 406zM293 524q0 -183 75.5 -287t206.5 -104q129 0 206 104t77 281q0 178 -80.5 279.5t-220.5 101.5 q-119 0 -191.5 -102.5t-72.5 -272.5z" />
<glyph unicode="r" horiz-adv-x="739" d="M170 0v1028h172v-211q42 112 119.5 171t177.5 59q13 0 40 -3t40 -4l-6 -182q-47 12 -80 12q-131 0 -202 -92t-71 -262v-516h-190z" />
<glyph unicode="s" horiz-adv-x="860" d="M96 39l6 160q137 -70 273 -70q93 0 149 41t56 109q0 52 -33 88q-35 38 -154 96q-160 78 -223 147q-59 68 -59 160q0 122 102 196t272 74q129 0 256 -39l-8 -155q-124 59 -260 59q-78 0 -125 -31.5t-47 -85.5q0 -48 40 -85t159 -93q160 -75 223 -147q61 -70 61 -170 q0 -140 -112.5 -222.5t-304.5 -82.5q-141 0 -271 51z" />
<glyph unicode="t" horiz-adv-x="749" d="M45 883v145h213v254l184 64v-318h246v-145h-246v-533q0 -120 35 -170.5t115 -50.5q42 0 104 23l2 -150q-73 -20 -155 -20q-156 0 -223.5 81t-67.5 269v551h-207z" />
<glyph unicode="u" horiz-adv-x="1202" d="M147 416v612h191v-569q0 -160 55 -234.5t172 -74.5q134 0 204.5 103.5t70.5 299.5v475h190v-1028h-174v199q-112 -213 -356 -213q-173 0 -263 109.5t-90 320.5z" />
<glyph unicode="v" horiz-adv-x="976" d="M29 1028h204l269 -858l280 858h187l-365 -1028h-221z" />
<glyph unicode="w" horiz-adv-x="1660" d="M33 1028h205l237 -860l252 860h236l251 -860l250 860h187l-336 -1028h-217l-260 862l-263 -862h-217z" />
<glyph unicode="x" horiz-adv-x="946" d="M14 0l361 543l-326 485h230l219 -366l225 366h211l-328 -479l355 -549h-226l-252 420l-256 -420h-213z" />
<glyph unicode="y" horiz-adv-x="974" d="M25 1028h204l279 -844l276 844h193l-408 -1132q-65 -187 -148.5 -264.5t-215.5 -77.5q-50 0 -125 14l16 158q54 -13 90 -13q69 0 122 57.5t104 190.5z" />
<glyph unicode="z" horiz-adv-x="960" d="M76 0v164l579 715h-555v149h772v-160l-587 -718h587v-150h-796z" />
<glyph unicode="{" d="M168 457v149q5 0 23 -1t22 -1q130 0 184 60.5t54 207.5v246q0 145 22 209q20 62 78 98q88 52 278 52h37v-150h-41q-122 0 -161 -45q-41 -47 -41 -184v-242q0 -161 -45 -229q-46 -71 -156 -97q111 -26 156 -96q45 -65 45 -229v-242q0 -140 41 -184q42 -45 163 -45h39v-148 h-43q-107 0 -168 11t-104 38q-58 36 -78 97q-22 68 -22 211v245q0 149 -54.5 210t-185.5 61q-4 0 -21.5 -1t-21.5 -1z" />
<glyph unicode="|" d="M438 -483v2048h150v-2048h-150z" />
<glyph unicode="}" d="M160 -266h39q122 0 161 45q43 46 43 186v240q0 160 43 227q47 72 158 98q-109 26 -158 97q-43 70 -43 229v242q0 138 -43 184q-39 45 -161 45h-39v150h37q193 0 278 -52q58 -36 78 -98q22 -64 22 -209v-246q0 -148 53.5 -208t184.5 -60q4 0 22 1t23 1v-149q-4 0 -21.5 1 t-21.5 1q-133 0 -186.5 -60.5t-53.5 -210.5v-245q0 -143 -22 -211q-20 -61 -78 -97q-43 -27 -104 -38t-168 -11h-43v148z" />
<glyph unicode="~" horiz-adv-x="1705" d="M178 451v155q212 144 387 144q118 0 291 -62l47 -16q158 -58 240 -58q87 0 178 37t209 119v-156q-204 -141 -389 -141q-97 0 -256 57l-33 13l-16 6q-177 59 -273 59q-86 0 -177 -36.5t-208 -120.5z" />
<glyph unicode="&#xa1;" horiz-adv-x="821" d="M301 0l35 1036h147l35 -1036h-217zM301 1206v215h217v-215h-217z" />
<glyph unicode="&#xa2;" horiz-adv-x="1175" d="M184 530q0 244 152 390q149 143 412 143q5 0 24.5 -1t24.5 -1l80 252h96l-86 -269q71 -18 92 -26l-16 -168q-53 26 -123 45l-226 -713q65 -22 111 -22q135 0 246 57l8 -170q-115 -47 -256 -47q-87 0 -162 16l-88 -280h-96l100 311q-141 66 -217 191t-76 292zM385 530 q0 -204 145 -307l218 680h-5q-161 0 -259.5 -103t-98.5 -270z" />
<glyph unicode="&#xa3;" horiz-adv-x="1175" d="M170 0v160h205v542h-178v125h178q0 5 -1 27.5t-1 46.5q0 547 477 547q101 0 229 -41l-18 -164q-99 51 -193 51q-158 0 -231.5 -105.5t-73.5 -332.5v-29h330v-125h-330v-542h486v-160h-879z" />
<glyph unicode="&#xa4;" horiz-adv-x="1175" d="M96 510l23 100h135q0 8 -1 35.5t-1 56.5q0 57 4 107h-145l22 100h135q44 253 188 396t357 143q139 0 252 -55l-6 -172q-125 67 -240 67q-141 0 -229 -96.5t-119 -282.5h535l-23 -100h-522q0 -7 -1 -36t-1 -60q0 -33 1 -64.5t1 -38.5h491l-22 -100h-457q62 -371 348 -371 q121 0 236 62l4 -178q-112 -50 -252 -50q-215 0 -358.5 141.5t-184.5 395.5h-170z" />
<glyph unicode="&#xa5;" horiz-adv-x="1177" d="M-31 1421h221l400 -688l407 688h203l-323 -512h227v-100h-289l-125 -199h414v-100h-426v-510h-186v510h-429v100h414l-127 199h-287v100h226z" />
<glyph unicode="&#xa6;" d="M438 -350v758h150v-758h-150zM438 674v758h150v-758h-150z" />
<glyph unicode="&#xa7;" d="M111 643q0 96 46.5 166.5t143.5 124.5q-119 88 -119 225q0 129 101 209t266 80q140 0 305 -57l-29 -146q-133 62 -254 62q-93 0 -147.5 -42t-54.5 -112q0 -94 229 -219l14 -8q211 -117 277 -195q65 -77 65 -180q0 -174 -184 -283q111 -102 111 -223q0 -143 -109 -225 t-301 -82q-134 0 -319 65l28 148q142 -68 303 -68q93 0 152 45t59 117q0 92 -186 199l-33 18q-237 138 -301 211q-63 75 -63 170zM274 682q0 -73 76 -143q75 -69 318 -201q114 84 114 182q0 132 -352 330l-27 14q-129 -66 -129 -182z" />
<glyph unicode="&#xa8;" d="M260 1235v190h170v-190h-170zM592 1235v190h172v-190h-172z" />
<glyph unicode="&#xa9;" horiz-adv-x="1705" d="M117 727q0 299 219 524q213 213 516 213q312 0 524 -215q104 -102 159.5 -238t55.5 -284q0 -306 -213 -516q-111 -107 -246 -164t-280 -57q-146 0 -279 56.5t-239 162.5q-105 104 -161 237.5t-56 280.5zM213 727q0 -261 190 -451q188 -188 451 -188q124 0 241 49t214 142 q184 178 184 448q0 269 -184 453q-188 188 -455 188q-264 0 -448 -184q-92 -92 -142.5 -211t-50.5 -246zM463 733q0 202 108 322q111 123 287 123q141 0 236.5 -75t105.5 -196h-147q-12 75 -65.5 117.5t-139.5 42.5q-105 0 -165 -90.5t-60 -249.5q0 -158 62 -245t173 -87 q82 0 136.5 47t68.5 129h145q-11 -131 -109 -211.5t-247 -80.5q-183 0 -286 119.5t-103 334.5z" />
<glyph unicode="&#xaa;" horiz-adv-x="811" d="M61 905q0 117 102.5 179.5t297.5 62.5h100v14q0 85 -49.5 131.5t-140.5 46.5q-102 0 -215 -61l-2 111q124 51 258 51q286 0 286 -299v-439h-127v121q-88 -131 -264 -131q-109 0 -177.5 59.5t-68.5 153.5zM205 911q0 -54 39 -88.5t100 -34.5q98 0 157.5 60t59.5 158v53 h-90q-129 0 -197.5 -38t-68.5 -110z" />
<glyph unicode="&#xab;" horiz-adv-x="1011" d="M76 532l268 418h168l-258 -418l258 -417h-168zM506 532l268 418h168l-258 -418l258 -417h-170z" />
<glyph unicode="&#xac;" horiz-adv-x="1705" d="M254 721v139h1198v-502h-137v363h-1061z" />
<glyph unicode="&#xad;" horiz-adv-x="692" d="M90 483v156h512v-156h-512z" />
<glyph unicode="&#xae;" horiz-adv-x="1705" d="M117 727q0 147 57.5 283.5t165.5 244.5q99 102 230.5 155.5t281.5 53.5q152 0 286.5 -56.5t239.5 -162.5q103 -104 158 -238t55 -280q0 -306 -215 -518q-108 -105 -244.5 -162t-279.5 -57q-148 0 -281.5 56.5t-238.5 164.5q-105 106 -160 238t-55 278zM213 727 q0 -125 48 -240.5t140 -207.5q90 -92 206.5 -141.5t240.5 -49.5q262 0 459 188q90 87 138 202t48 243q0 281 -182 457q-187 190 -457 190q-129 0 -244.5 -47t-201.5 -135q-94 -94 -144.5 -213t-50.5 -246zM557 324v835h315q349 0 349 -229q0 -88 -50 -147t-141 -78l187 -381 h-177l-170 356h-155v-356h-158zM715 780h133q112 0 161.5 32t49.5 101q0 75 -51.5 109.5t-163.5 34.5h-129v-277z" />
<glyph unicode="&#xaf;" d="M242 1266v129h538v-129h-538z" />
<glyph unicode="&#xb0;" horiz-adv-x="673" d="M49 1167q0 119 84 203q83 86 205 86q120 0 203 -86q84 -84 84 -203q0 -118 -84 -202t-205 -84q-123 0 -205 82t-82 204zM143 1169q0 -82 56.5 -139t138.5 -57q81 0 136.5 57t55.5 139q0 80 -55.5 136.5t-136.5 56.5t-138 -56.5t-57 -136.5z" />
<glyph unicode="&#xb1;" horiz-adv-x="1705" d="M254 29v141h1198v-141h-1198zM254 713v139h528v340h142v-340h528v-139h-528v-340h-142v340h-528z" />
<glyph unicode="&#xb2;" horiz-adv-x="776" d="M80 569v101q253 229 340 338q88 113 88 190q0 60 -48 97.5t-126 37.5q-111 0 -209 -61l-16 110q136 54 264 54q117 0 191.5 -64.5t74.5 -167.5q0 -98 -88 -217q-83 -117 -313 -321h428v-97h-586z" />
<glyph unicode="&#xb3;" horiz-adv-x="776" d="M63 596l15 111q86 -48 198 -48q110 0 180 47t70 119q0 68 -57.5 105t-161.5 37h-100v92h102q96 0 154.5 38.5t58.5 100.5q0 60 -56 97.5t-147 37.5q-95 0 -204 -41l-6 101q130 34 235 34q139 0 224 -60.5t85 -158.5q0 -72 -51 -122.5t-143 -69.5q96 -13 149.5 -66 t53.5 -133q0 -116 -100 -186t-265 -70q-131 0 -234 35z" />
<glyph unicode="&#xb4;" d="M373 1165l205 355h188l-285 -355h-108z" />
<glyph unicode="&#xb5;" horiz-adv-x="1150" d="M-113 -428l318 1499h180l-129 -600q-14 -75 -14 -133q0 -99 52 -153t148 -54q131 0 208 92.5t124 311.5l115 536h178l-156 -731q-1 -2 -1.5 -5t-1 -7.5t-1.5 -8.5q-18 -88 -18 -112q0 -37 17 -52.5t55 -15.5q22 0 32 2l-30 -143q-55 -10 -109 -10q-63 0 -96.5 28.5 t-52.5 100.5q-88 -131 -271 -131q-160 0 -256 116l-110 -530h-181z" />
<glyph unicode="&#xb6;" d="M66 1130q0 156 107.5 252.5t285.5 96.5h499v-86h-120v-1393h-111v1393h-176v-1393h-113v782q-170 8 -271 102t-101 246z" />
<glyph unicode="&#xb7;" horiz-adv-x="587" d="M180 711q0 49 32.5 81.5t80.5 32.5q50 0 82.5 -32.5t32.5 -81.5q0 -48 -33 -80.5t-82 -32.5q-44 0 -78.5 34.5t-34.5 78.5z" />
<glyph unicode="&#xb8;" d="M248 -330q178 -39 237 -39q66 0 95.5 20.5t29.5 65.5q0 49 -32.5 71t-106.5 22q-30 0 -45 -3l-2 193h80v-102h18q106 0 163.5 -46.5t57.5 -132.5q0 -184 -239 -184q-98 0 -256 41v94z" />
<glyph unicode="&#xb9;" horiz-adv-x="776" d="M139 1249l238 172h108v-852h-123v725l-155 -120z" />
<glyph unicode="&#xba;" horiz-adv-x="901" d="M70 1063q0 174 102 275.5t279 101.5q178 0 280.5 -101.5t102.5 -275.5q0 -173 -103 -275t-280 -102t-279 101.5t-102 275.5zM221 1063q0 -121 64.5 -196.5t167.5 -75.5t166 74.5t63 197.5q0 124 -63 199t-166 75q-105 0 -168.5 -75t-63.5 -199z" />
<glyph unicode="&#xbb;" horiz-adv-x="1011" d="M70 115l258 417l-258 418h170l266 -418l-268 -417h-168zM500 115l258 417l-258 418h170l266 -418l-268 -417h-168z" />
<glyph unicode="&#xbc;" horiz-adv-x="1822" d="M133 1262l227 161h103v-796h-117v676l-149 -113zM465 -27l756 1475h137l-754 -1475h-139zM1118 178v103l391 516h152v-531h129v-88h-129v-178h-119v178h-424zM1221 266h321l4 432z" />
<glyph unicode="&#xbd;" horiz-adv-x="1822" d="M133 1262l227 161h103v-796h-117v676l-149 -113zM465 -27l756 1475h137l-754 -1475h-139zM1159 0v92q241 210 326 318q84 107 84 178q0 55 -46 90t-120 35q-113 0 -201 -58l-14 103q122 51 250 51q112 0 183 -60.5t71 -154.5q0 -90 -86 -205q-72 -100 -297 -299h409v-90 h-559z" />
<glyph unicode="&#xbe;" horiz-adv-x="1822" d="M61 651l15 103q82 -43 188 -43q105 0 171.5 43.5t66.5 111.5q0 62 -55.5 96.5t-153.5 34.5h-96v86h98q92 0 147.5 36t55.5 93q0 56 -53.5 91.5t-139.5 35.5q-96 0 -194 -39l-9 95q111 32 228 32q133 0 213 -56t80 -148q0 -66 -49.5 -114t-135.5 -65q93 -17 144 -65 t51 -121q0 -106 -95 -171.5t-253 -65.5q-119 0 -224 30zM465 -27l756 1475h137l-754 -1475h-139zM1118 178v103l391 516h152v-531h129v-88h-129v-178h-119v178h-424zM1221 266h321l4 432z" />
<glyph unicode="&#xbf;" horiz-adv-x="1052" d="M166 336q0 156 215 412q32 40 39 47q80 96 80 221v24h166q2 -14 2 -51q0 -74 -23 -134t-78 -132q-41 -52 -67 -82q-146 -178 -146 -283q0 -97 77 -159t196 -62q115 0 268 64l4 -166q-165 -53 -297 -53q-198 0 -317 96.5t-119 257.5zM479 1206v215h211v-215h-211z" />
<glyph unicode="&#xc0;" horiz-adv-x="1351" d="M8 0l567 1421h242l557 -1421h-215l-137 365h-676l-137 -365h-201zM410 524h555l-273 723zM451 1915h188l205 -354h-109z" />
<glyph unicode="&#xc1;" horiz-adv-x="1351" d="M8 0l567 1421h242l557 -1421h-215l-137 365h-676l-137 -365h-201zM410 524h555l-273 723zM565 1561l205 354h188l-284 -354h-109z" />
<glyph unicode="&#xc2;" horiz-adv-x="1351" d="M8 0l567 1421h242l557 -1421h-215l-137 365h-676l-137 -365h-201zM410 524h555l-273 723zM416 1561l198 354h181l198 -354h-108l-180 243l-181 -243h-108z" />
<glyph unicode="&#xc3;" horiz-adv-x="1351" d="M8 0l567 1421h242l557 -1421h-215l-137 365h-676l-137 -365h-201zM403 1614q50 198 199 198q42 0 66 -8l98 -30q25 -11 53 -11q67 0 94 74h91q-49 -199 -197 -199q-31 0 -68 11l-96 28q-37 11 -55 11q-65 0 -92 -74h-93zM410 524h555l-273 723z" />
<glyph unicode="&#xc4;" horiz-adv-x="1351" d="M8 0l567 1421h242l557 -1421h-215l-137 365h-676l-137 -365h-201zM410 524h555l-273 723zM453 1630v191h170v-191h-170zM784 1630v191h172v-191h-172z" />
<glyph unicode="&#xc5;" horiz-adv-x="1351" d="M8 0l567 1421h242l557 -1421h-215l-137 365h-676l-137 -365h-201zM410 524h555l-273 723zM442 1739q0 104 72 176t176 72t177 -72t73 -176q0 -103 -72 -178q-72 -72 -178 -72q-104 0 -176 73t-72 177zM551 1737q0 -60 40.5 -100t100.5 -40t99.5 40t39.5 100t-39.5 100.5 t-99.5 40.5t-100.5 -40.5t-40.5 -100.5z" />
<glyph unicode="&#xc6;" horiz-adv-x="1845" d="M-45 0l848 1421h893v-157h-566v-447h535v-160h-535v-493h584v-164h-778v367h-557l-211 -367h-213zM467 526h469v746h-33z" />
<glyph unicode="&#xc7;" horiz-adv-x="1249" d="M102 702q0 331 205 527t553 196q198 0 336 -55l-8 -172q-158 68 -320 68q-257 0 -407 -150t-150 -403q0 -257 150 -404t409 -147q165 0 314 61l6 -178q-146 -49 -336 -49q-348 0 -551 188q-201 192 -201 518zM520 -330q178 -39 238 -39q125 0 125 86q0 49 -33.5 71 t-106.5 22q-30 0 -45 -3l-2 193h80v-102h19q105 0 163 -46.5t58 -132.5q0 -184 -240 -184q-98 0 -256 41v94z" />
<glyph unicode="&#xc8;" horiz-adv-x="1095" d="M176 0v1421h770v-153h-571v-451h540v-160h-540v-493h590v-164h-789zM295 1915h188l205 -354h-108z" />
<glyph unicode="&#xc9;" horiz-adv-x="1095" d="M176 0v1421h770v-153h-571v-451h540v-160h-540v-493h590v-164h-789zM410 1561l204 354h189l-285 -354h-108z" />
<glyph unicode="&#xca;" horiz-adv-x="1095" d="M176 0v1421h770v-153h-571v-451h540v-160h-540v-493h590v-164h-789zM260 1561l199 354h180l199 -354h-109l-180 243l-180 -243h-109z" />
<glyph unicode="&#xcb;" horiz-adv-x="1095" d="M176 0v1421h770v-153h-571v-451h540v-160h-540v-493h590v-164h-789zM297 1630v191h170v-191h-170zM629 1630v191h172v-191h-172z" />
<glyph unicode="&#xcc;" horiz-adv-x="550" d="M23 1915h188l205 -354h-109zM176 0v1421h199v-1421h-199z" />
<glyph unicode="&#xcd;" horiz-adv-x="550" d="M137 1561l205 354h188l-284 -354h-109zM176 0v1421h199v-1421h-199z" />
<glyph unicode="&#xce;" horiz-adv-x="550" d="M-12 1561l198 354h181l198 -354h-108l-181 243l-180 -243h-108zM176 0v1421h199v-1421h-199z" />
<glyph unicode="&#xcf;" horiz-adv-x="550" d="M25 1630v191h170v-191h-170zM176 0v1421h199v-1421h-199zM356 1630v191h172v-191h-172z" />
<glyph unicode="&#xd0;" horiz-adv-x="1437" d="M33 672v131h176v618h334q800 0 800 -714q0 -339 -209 -523t-595 -184h-330v672h-176zM410 166h161q266 0 415 144.5t149 406.5q0 266 -144 405.5t-420 139.5h-161v-459h321v-131h-321v-506z" />
<glyph unicode="&#xd1;" horiz-adv-x="1443" d="M176 0v1421h250l618 -1106q34 -70 70 -190q-27 176 -27 248v1048h183v-1421h-244l-629 1116q-28 48 -67 191q28 -233 28 -265v-1042h-182zM422 1614q50 198 199 198q41 0 65 -8l96 -30q32 -11 56 -11q67 0 94 74h90q-52 -199 -197 -199q-33 0 -67 11l-96 28 q-37 11 -56 11q-65 0 -92 -74h-92z" />
<glyph unicode="&#xd2;" horiz-adv-x="1501" d="M104 711q0 342 175 538q175 199 471 199q299 0 471 -199q174 -195 174 -538t-174 -541q-173 -197 -471 -197q-295 0 -471 197q-175 199 -175 541zM311 713q0 -265 119 -420q120 -156 320 -156q199 0 319 156q121 157 121 420t-121 420t-319 157q-199 0 -320 -157 q-119 -155 -119 -420zM498 1915h188l205 -354h-109z" />
<glyph unicode="&#xd3;" horiz-adv-x="1501" d="M104 711q0 342 175 538q175 199 471 199q299 0 471 -199q174 -195 174 -538t-174 -541q-173 -197 -471 -197q-295 0 -471 197q-175 199 -175 541zM311 713q0 -265 119 -420q120 -156 320 -156q199 0 319 156q121 157 121 420t-121 420t-319 157q-199 0 -320 -157 q-119 -155 -119 -420zM612 1561l205 354h189l-285 -354h-109z" />
<glyph unicode="&#xd4;" horiz-adv-x="1501" d="M104 711q0 342 175 538q175 199 471 199q299 0 471 -199q174 -195 174 -538t-174 -541q-173 -197 -471 -197q-295 0 -471 197q-175 199 -175 541zM311 713q0 -265 119 -420q120 -156 320 -156q199 0 319 156q121 157 121 420t-121 420t-319 157q-199 0 -320 -157 q-119 -155 -119 -420zM463 1561l199 354h180l198 -354h-108l-180 243l-181 -243h-108z" />
<glyph unicode="&#xd5;" horiz-adv-x="1501" d="M104 711q0 342 175 538q175 199 471 199q299 0 471 -199q174 -195 174 -538t-174 -541q-173 -197 -471 -197q-295 0 -471 197q-175 199 -175 541zM311 713q0 -265 119 -420q120 -156 320 -156q199 0 319 156q121 157 121 420t-121 420t-319 157q-199 0 -320 -157 q-119 -155 -119 -420zM451 1614q50 198 198 198q42 0 66 -8l96 -30q32 -11 55 -11q68 0 95 74h90q-52 -199 -197 -199q-31 0 -68 11l-96 28q-37 11 -55 11q-65 0 -92 -74h-92z" />
<glyph unicode="&#xd6;" horiz-adv-x="1501" d="M104 711q0 342 175 538q175 199 471 199q299 0 471 -199q174 -195 174 -538t-174 -541q-173 -197 -471 -197q-295 0 -471 197q-175 199 -175 541zM311 713q0 -265 119 -420q120 -156 320 -156q199 0 319 156q121 157 121 420t-121 420t-319 157q-199 0 -320 -157 q-119 -155 -119 -420zM500 1630v191h170v-191h-170zM831 1630v191h173v-191h-173z" />
<glyph unicode="&#xd7;" horiz-adv-x="1705" d="M293 141l469 469l-469 469l98 99l469 -469l469 469l98 -99l-469 -469l469 -469l-98 -96l-469 467l-469 -467z" />
<glyph unicode="&#xd8;" horiz-adv-x="1501" d="M51 18l182 213q-129 201 -129 494q0 328 175 524q175 199 464 199q256 0 435 -156l174 199l96 -88l-182 -209q129 -198 129 -498q0 -328 -174 -526q-176 -197 -463 -197q-128 0 -242.5 41.5t-189.5 114.5l-179 -199zM305 733q0 -198 68 -350l684 774q-114 135 -309 135 q-198 0 -320 -155q-123 -153 -123 -404zM449 268q51 -63 131 -98t174 -35q195 0 319 154q123 156 123 405q0 207 -68 346z" />
<glyph unicode="&#xd9;" horiz-adv-x="1413" d="M164 578v843h198v-837q0 -227 83 -337t253 -110q171 0 258.5 118t87.5 347v819h185v-823q0 -625 -537 -625q-260 0 -394 153t-134 452zM453 1915h188l205 -354h-109z" />
<glyph unicode="&#xda;" horiz-adv-x="1413" d="M164 578v843h198v-837q0 -227 83 -337t253 -110q171 0 258.5 118t87.5 347v819h185v-823q0 -625 -537 -625q-260 0 -394 153t-134 452zM567 1561l205 354h189l-285 -354h-109z" />
<glyph unicode="&#xdb;" horiz-adv-x="1413" d="M164 578v843h198v-837q0 -227 83 -337t253 -110q171 0 258.5 118t87.5 347v819h185v-823q0 -625 -537 -625q-260 0 -394 153t-134 452zM418 1561l198 354h181l198 -354h-108l-180 243l-181 -243h-108z" />
<glyph unicode="&#xdc;" horiz-adv-x="1413" d="M164 578v843h198v-837q0 -227 83 -337t253 -110q171 0 258.5 118t87.5 347v819h185v-823q0 -625 -537 -625q-260 0 -394 153t-134 452zM455 1630v191h170v-191h-170zM786 1630v191h172v-191h-172z" />
<glyph unicode="&#xdd;" horiz-adv-x="1179" d="M-33 1421h234l393 -673l401 673h217l-524 -833v-588h-201v584zM451 1561l204 354h189l-285 -354h-108z" />
<glyph unicode="&#xde;" horiz-adv-x="1085" d="M176 0v1421h199v-204h155q508 0 508 -420q0 -201 -135.5 -312.5t-382.5 -111.5h-145v-373h-199zM375 528h129q158 0 242.5 70t84.5 201q0 124 -79 193t-220 69h-157v-533z" />
<glyph unicode="&#xdf;" horiz-adv-x="1204" d="M160 0v1024q0 260 112.5 392t333.5 132q195 0 310.5 -106t115.5 -285q0 -131 -70 -218t-200 -118q167 -25 255.5 -123.5t88.5 -259.5q0 -203 -123 -329q-122 -125 -319 -125q-77 0 -193 22l4 164q70 -33 148 -33q128 0 205 83t77 222q0 137 -87 209t-253 72h-33v158h7 q141 0 223 75t82 203q0 112 -65.5 178t-176.5 66q-134 0 -193 -100.5t-59 -331.5v-971h-190z" />
<glyph unicode="&#xe0;" horiz-adv-x="1081" d="M82 289q0 167 137 256.5t395 89.5h134v20q0 119 -68 186.5t-186 67.5q-136 0 -287 -86l-2 156q157 74 344 74q383 0 383 -428v-625h-170v172q-119 -186 -352 -186q-147 0 -237.5 84t-90.5 219zM272 299q0 -78 52.5 -127t134.5 -49q131 0 210 84t79 225v76h-121 q-171 0 -263 -54.5t-92 -154.5zM287 1520h188l205 -355h-109z" />
<glyph unicode="&#xe1;" horiz-adv-x="1081" d="M82 289q0 167 137 256.5t395 89.5h134v20q0 119 -68 186.5t-186 67.5q-136 0 -287 -86l-2 156q157 74 344 74q383 0 383 -428v-625h-170v172q-119 -186 -352 -186q-147 0 -237.5 84t-90.5 219zM272 299q0 -78 52.5 -127t134.5 -49q131 0 210 84t79 225v76h-121 q-171 0 -263 -54.5t-92 -154.5zM401 1165l205 355h189l-285 -355h-109z" />
<glyph unicode="&#xe2;" horiz-adv-x="1081" d="M82 289q0 167 137 256.5t395 89.5h134v20q0 119 -68 186.5t-186 67.5q-136 0 -287 -86l-2 156q157 74 344 74q383 0 383 -428v-625h-170v172q-119 -186 -352 -186q-147 0 -237.5 84t-90.5 219zM252 1165l199 355h180l198 -355h-108l-180 244l-181 -244h-108zM272 299 q0 -78 52.5 -127t134.5 -49q131 0 210 84t79 225v76h-121q-171 0 -263 -54.5t-92 -154.5z" />
<glyph unicode="&#xe3;" horiz-adv-x="1081" d="M82 289q0 167 137 256.5t395 89.5h134v20q0 119 -68 186.5t-186 67.5q-136 0 -287 -86l-2 156q157 74 344 74q383 0 383 -428v-625h-170v172q-119 -186 -352 -186q-147 0 -237.5 84t-90.5 219zM240 1219q49 198 198 198q42 0 66 -8l96 -31q29 -10 55 -10q68 0 95 74h90 q-52 -199 -197 -199q-34 0 -68 10l-96 29q-34 10 -55 10q-65 0 -92 -73h-92zM272 299q0 -78 52.5 -127t134.5 -49q131 0 210 84t79 225v76h-121q-171 0 -263 -54.5t-92 -154.5z" />
<glyph unicode="&#xe4;" horiz-adv-x="1081" d="M82 289q0 167 137 256.5t395 89.5h134v20q0 119 -68 186.5t-186 67.5q-136 0 -287 -86l-2 156q157 74 344 74q383 0 383 -428v-625h-170v172q-119 -186 -352 -186q-147 0 -237.5 84t-90.5 219zM272 299q0 -78 52.5 -127t134.5 -49q131 0 210 84t79 225v76h-121 q-171 0 -263 -54.5t-92 -154.5zM289 1235v190h170v-190h-170zM621 1235v190h172v-190h-172z" />
<glyph unicode="&#xe5;" horiz-adv-x="1081" d="M82 289q0 167 137 256.5t395 89.5h134v20q0 119 -68 186.5t-186 67.5q-136 0 -287 -86l-2 156q157 74 344 74q383 0 383 -428v-625h-170v172q-119 -186 -352 -186q-147 0 -237.5 84t-90.5 219zM272 299q0 -78 52.5 -127t134.5 -49q131 0 210 84t79 225v76h-130 q-166 0 -256 -54.5t-90 -154.5zM291 1368q0 105 71 176q74 74 179 74q104 0 175.5 -72.5t71.5 -177.5q0 -104 -71.5 -176t-175.5 -72q-106 0 -178 72t-72 176zM399 1368q0 -60 41 -99.5t101 -39.5q57 0 98 40t41 97q0 62 -39.5 102.5t-99.5 40.5t-101 -40.5t-41 -100.5z" />
<glyph unicode="&#xe6;" horiz-adv-x="1705" d="M82 289q0 170 136 258t396 88h134v20q0 119 -68 186.5t-186 67.5q-136 0 -287 -86l-2 156q160 74 323 74q237 0 338 -166q134 166 359 166q201 0 316.5 -135.5t115.5 -370.5v-55h-727q7 -177 101.5 -274t258.5 -97q140 0 283 76v-164q-137 -58 -316 -58q-309 0 -432 240 q-144 -231 -401 -231q-155 0 -248.5 84t-93.5 221zM272 299q0 -78 52.5 -127t134.5 -49q131 0 210 84t79 225v76h-130q-166 0 -256 -54.5t-90 -154.5zM932 627h547q-10 141 -80 218t-187 77q-113 0 -190.5 -80.5t-89.5 -214.5z" />
<glyph unicode="&#xe7;" horiz-adv-x="952" d="M92 512q0 234 148 379t389 145q151 0 256 -43l-15 -164q-103 54 -221 54q-158 0 -258 -103q-98 -101 -98 -264q0 -168 95.5 -269.5t254.5 -101.5q114 0 236 58l10 -168q-120 -47 -275 -47q-235 0 -378 143q-144 144 -144 381zM299 -330q178 -39 238 -39q125 0 125 86 q0 49 -33 71t-107 22q-30 0 -45 -3l-2 193h80v-102h18q106 0 164 -46.5t58 -132.5q0 -184 -240 -184q-98 0 -256 41v94z" />
<glyph unicode="&#xe8;" horiz-adv-x="1052" d="M92 524q0 240 131 383q134 146 348 146q201 0 317 -135.5t116 -370.5v-78h-728q10 -166 105 -257t256 -91q139 0 285 76v-164q-134 -58 -326 -58q-233 0 -369 148q-135 147 -135 401zM281 596h544q-11 154 -79 236.5t-185 82.5q-115 0 -189 -85t-91 -234zM305 1520h189 l204 -355h-108z" />
<glyph unicode="&#xe9;" horiz-adv-x="1052" d="M92 524q0 240 131 383q134 146 348 146q201 0 317 -135.5t116 -370.5v-78h-728q10 -166 105 -257t256 -91q139 0 285 76v-164q-134 -58 -326 -58q-233 0 -369 148q-135 147 -135 401zM281 596h544q-11 154 -79 236.5t-185 82.5q-115 0 -189 -85t-91 -234zM420 1165 l205 355h188l-285 -355h-108z" />
<glyph unicode="&#xea;" horiz-adv-x="1052" d="M92 524q0 240 131 383q134 146 348 146q201 0 317 -135.5t116 -370.5v-78h-728q10 -166 105 -257t256 -91q139 0 285 76v-164q-134 -58 -326 -58q-233 0 -369 148q-135 147 -135 401zM270 1165l199 355h180l199 -355h-109l-180 244l-180 -244h-109zM281 596h544 q-11 154 -79 236.5t-185 82.5q-115 0 -189 -85t-91 -234z" />
<glyph unicode="&#xeb;" horiz-adv-x="1052" d="M92 524q0 240 131 383q134 146 348 146q201 0 317 -135.5t116 -370.5v-78h-728q10 -166 105 -257t256 -91q139 0 285 76v-164q-134 -58 -326 -58q-233 0 -369 148q-135 147 -135 401zM281 596h544q-11 154 -79 236.5t-185 82.5q-115 0 -189 -85t-91 -234zM307 1235v190 h170v-190h-170zM639 1235v190h172v-190h-172z" />
<glyph unicode="&#xec;" horiz-adv-x="512" d="M2 1520h188l205 -355h-108zM160 0v1028h192v-1028h-192z" />
<glyph unicode="&#xed;" horiz-adv-x="512" d="M117 1165l205 355h188l-285 -355h-108zM160 0v1028h192v-1028h-192z" />
<glyph unicode="&#xee;" horiz-adv-x="512" d="M-33 1165l199 355h180l199 -355h-109l-180 244l-180 -244h-109zM160 0v1028h192v-1028h-192z" />
<glyph unicode="&#xef;" horiz-adv-x="512" d="M4 1235v190h170v-190h-170zM160 0v1028h192v-1028h-192zM336 1235v190h172v-190h-172z" />
<glyph unicode="&#xf0;" horiz-adv-x="1202" d="M100 506q0 244 136 389q135 147 358 147q96 0 178 -36q-93 148 -164 229l-231 -121l-49 94l211 109q-114 138 -209 215h202l109 -119l27 -31l233 119l53 -90l-213 -113q361 -438 361 -792q0 -246 -137 -389q-135 -144 -365 -144q-226 0 -364 144q-136 145 -136 389z M297 508q0 -171 85 -277t220 -106q137 0 221 105t84 278q0 177 -83 282t-222 105q-137 0 -221 -107t-84 -280z" />
<glyph unicode="&#xf1;" horiz-adv-x="1202" d="M170 0v1028h174v-190q116 215 358 215q174 0 263.5 -109.5t89.5 -322.5v-621h-191v578q0 158 -56 234.5t-173 76.5q-128 0 -201.5 -97t-73.5 -268v-524h-190zM322 1219q49 198 198 198q42 0 66 -8l96 -31q29 -10 55 -10q67 0 94 74h91q-49 -199 -197 -199q-34 0 -68 10 l-96 29q-34 10 -55 10q-65 0 -92 -73h-92z" />
<glyph unicode="&#xf2;" horiz-adv-x="1202" d="M92 514q0 249 135 393q140 146 373 146q238 0 374 -144t136 -395q0 -250 -137 -393q-140 -146 -373 -146q-235 0 -373 144q-135 144 -135 395zM295 516q0 -173 85 -281t222 -108q140 0 223.5 106t83.5 283q0 178 -83.5 284.5t-223.5 106.5q-138 0 -223 -108 q-84 -110 -84 -283zM348 1520h189l204 -355h-108z" />
<glyph unicode="&#xf3;" horiz-adv-x="1202" d="M92 514q0 249 135 393q140 146 373 146q238 0 374 -144t136 -395q0 -250 -137 -393q-140 -146 -373 -146q-235 0 -373 144q-135 144 -135 395zM295 516q0 -173 85 -281t222 -108q140 0 223.5 106t83.5 283q0 178 -83.5 284.5t-223.5 106.5q-138 0 -223 -108 q-84 -110 -84 -283zM463 1165l205 355h188l-285 -355h-108z" />
<glyph unicode="&#xf4;" horiz-adv-x="1202" d="M92 514q0 249 135 393q140 146 373 146q238 0 374 -144t136 -395q0 -250 -137 -393q-140 -146 -373 -146q-235 0 -373 144q-135 144 -135 395zM295 516q0 -173 85 -281t222 -108q140 0 223.5 106t83.5 283q0 178 -83.5 284.5t-223.5 106.5q-138 0 -223 -108 q-84 -110 -84 -283zM313 1165l199 355h180l199 -355h-109l-180 244l-180 -244h-109z" />
<glyph unicode="&#xf5;" horiz-adv-x="1202" d="M92 514q0 249 135 393q140 146 373 146q238 0 374 -144t136 -395q0 -250 -137 -393q-140 -146 -373 -146q-235 0 -373 144q-135 144 -135 395zM295 516q0 -173 85 -281t222 -108q140 0 223.5 106t83.5 283q0 178 -83.5 284.5t-223.5 106.5q-138 0 -223 -108 q-84 -110 -84 -283zM301 1219q49 198 199 198q41 0 65 -8l97 -31q29 -10 55 -10q67 0 94 74h90q-52 -199 -196 -199q-37 0 -68 10l-96 29q-34 10 -56 10q-65 0 -92 -73h-92z" />
<glyph unicode="&#xf6;" horiz-adv-x="1202" d="M92 514q0 249 135 393q140 146 373 146q238 0 374 -144t136 -395q0 -250 -137 -393q-140 -146 -373 -146q-235 0 -373 144q-135 144 -135 395zM295 516q0 -173 85 -281t222 -108q140 0 223.5 106t83.5 283q0 178 -83.5 284.5t-223.5 106.5q-138 0 -223 -108 q-84 -110 -84 -283zM350 1235v190h170v-190h-170zM682 1235v190h172v-190h-172z" />
<glyph unicode="&#xf7;" horiz-adv-x="1705" d="M254 541v139h1198v-139h-1198zM729 242q0 51 37 88t88 37t88 -37t37 -88t-37 -88t-88 -37q-54 0 -89.5 35.5t-35.5 89.5zM729 979q0 51 37 89t88 38t88 -38t37 -89t-37 -88t-88 -37t-88 37t-37 88z" />
<glyph unicode="&#xf8;" horiz-adv-x="1202" d="M53 -10l146 168q-107 146 -107 356q0 248 137 391q139 148 367 148q190 0 317 -95l146 164l92 -82l-147 -168q50 -63 77 -159.5t27 -208.5q0 -238 -139 -383q-140 -146 -363 -146q-183 0 -315 95l-146 -164zM289 514q0 -125 45 -211l467 531q-84 75 -201 75 q-140 0 -225.5 -108.5t-85.5 -286.5zM406 201q73 -76 198 -76q141 0 226 108.5t85 288.5q0 117 -43 209z" />
<glyph unicode="&#xf9;" horiz-adv-x="1202" d="M147 416v612h191v-569q0 -160 55 -234.5t172 -74.5q134 0 204.5 103.5t70.5 299.5v475h190v-1028h-174v199q-112 -213 -356 -213q-173 0 -263 109.5t-90 320.5zM348 1520h189l204 -355h-108z" />
<glyph unicode="&#xfa;" horiz-adv-x="1202" d="M147 416v612h191v-569q0 -160 55 -234.5t172 -74.5q134 0 204.5 103.5t70.5 299.5v475h190v-1028h-174v199q-112 -213 -356 -213q-173 0 -263 109.5t-90 320.5zM463 1165l205 355h188l-285 -355h-108z" />
<glyph unicode="&#xfb;" horiz-adv-x="1202" d="M147 416v612h191v-569q0 -160 55 -234.5t172 -74.5q134 0 204.5 103.5t70.5 299.5v475h190v-1028h-174v199q-112 -213 -356 -213q-173 0 -263 109.5t-90 320.5zM313 1165l199 355h180l199 -355h-109l-180 244l-180 -244h-109z" />
<glyph unicode="&#xfc;" horiz-adv-x="1202" d="M147 416v612h191v-569q0 -160 55 -234.5t172 -74.5q134 0 204.5 103.5t70.5 299.5v475h190v-1028h-174v199q-112 -213 -356 -213q-173 0 -263 109.5t-90 320.5zM350 1235v190h170v-190h-170zM682 1235v190h172v-190h-172z" />
<glyph unicode="&#xfd;" horiz-adv-x="974" d="M25 1028h204l279 -844l276 844h193l-408 -1132q-65 -187 -148.5 -264.5t-215.5 -77.5q-50 0 -125 14l16 158q54 -13 90 -13q69 0 122 57.5t104 190.5zM348 1165l205 355h188l-284 -355h-109z" />
<glyph unicode="&#xfe;" horiz-adv-x="1220" d="M170 -428v1958h190v-676q122 199 355 199q183 0 299 -146q114 -144 114 -381q0 -248 -118 -395q-120 -147 -314 -147q-222 0 -336 182v-594h-190zM360 520q0 -178 77 -282.5t208 -104.5q129 0 206 105t77 284q0 176 -73.5 276.5t-201.5 100.5q-133 0 -213 -103.5 t-80 -275.5z" />
<glyph unicode="&#xff;" horiz-adv-x="974" d="M25 1028h204l279 -844l276 844h193l-408 -1132q-65 -187 -148.5 -264.5t-215.5 -77.5q-50 0 -125 14l16 158q54 -13 90 -13q69 0 122 57.5t104 190.5zM236 1235v190h170v-190h-170zM567 1235v190h172v-190h-172z" />
<glyph unicode="&#x152;" horiz-adv-x="1902" d="M104 707q0 350 176.5 538.5t503.5 188.5q32 0 142 -7q94 -6 141 -6h688v-153h-567v-451h534v-160h-534v-493h584v-164h-721q-26 0 -162 -4q-102 -6 -146 -6q-302 0 -470.5 188.5t-168.5 528.5zM311 719q0 -278 119 -426t342 -148q42 0 209 15h10v1106q-164 14 -209 14 q-229 0 -350 -143t-121 -418z" />
<glyph unicode="&#x153;" horiz-adv-x="1869" d="M92 514q0 247 135 391q136 148 357 148q289 0 422 -207q139 207 387 207q198 0 313 -135.5t115 -370.5v-78h-725q10 -165 105 -256.5t255 -91.5q140 0 283 76v-164q-143 -58 -307 -58q-303 0 -426 211q-150 -211 -414 -211q-228 0 -365 146q-135 144 -135 393zM295 516 q0 -173 85 -281t220 -108q141 0 225 105.5t84 283.5t-84 284.5t-221 106.5q-140 0 -224.5 -107t-84.5 -284zM1098 596h544q-11 154 -79 236.5t-185 82.5q-113 0 -190.5 -87t-89.5 -232z" />
<glyph unicode="&#x178;" horiz-adv-x="1179" d="M-33 1421h234l393 -673l401 673h217l-524 -833v-588h-201v584zM338 1630v191h170v-191h-170zM670 1630v191h172v-191h-172z" />
<glyph unicode="&#x2c6;" d="M223 1165l199 355h180l199 -355h-109l-180 244l-180 -244h-109z" />
<glyph unicode="&#x2dc;" d="M211 1219q49 198 199 198q41 0 65 -8l96 -31q29 -10 56 -10q67 0 94 74h90q-52 -199 -197 -199q-36 0 -67 10l-96 29q-34 10 -56 10q-65 0 -92 -73h-92z" />
<glyph unicode="&#x2000;" horiz-adv-x="993" />
<glyph unicode="&#x2001;" horiz-adv-x="1987" />
<glyph unicode="&#x2002;" horiz-adv-x="993" />
<glyph unicode="&#x2003;" horiz-adv-x="1987" />
<glyph unicode="&#x2004;" horiz-adv-x="662" />
<glyph unicode="&#x2005;" horiz-adv-x="496" />
<glyph unicode="&#x2006;" horiz-adv-x="331" />
<glyph unicode="&#x2007;" horiz-adv-x="331" />
<glyph unicode="&#x2008;" horiz-adv-x="248" />
<glyph unicode="&#x2009;" horiz-adv-x="397" />
<glyph unicode="&#x200a;" horiz-adv-x="110" />
<glyph unicode="&#x2010;" horiz-adv-x="692" d="M90 483v156h512v-156h-512z" />
<glyph unicode="&#x2011;" horiz-adv-x="692" d="M90 483v156h512v-156h-512z" />
<glyph unicode="&#x2012;" horiz-adv-x="692" d="M90 483v156h512v-156h-512z" />
<glyph unicode="&#x2013;" d="M0 504v114h1024v-114h-1024z" />
<glyph unicode="&#x2014;" horiz-adv-x="2048" d="M0 504v114h2048v-114h-2048z" />
<glyph unicode="&#x2018;" horiz-adv-x="587" d="M133 950l168 471h166l-127 -471h-207z" />
<glyph unicode="&#x2019;" horiz-adv-x="587" d="M137 950l127 471h207l-168 -471h-166z" />
<glyph unicode="&#x201a;" horiz-adv-x="587" d="M98 -254l127 471h207l-166 -471h-168z" />
<glyph unicode="&#x201c;" horiz-adv-x="1001" d="M133 950l168 471h166l-127 -471h-207zM547 950l166 471h168l-127 -471h-207z" />
<glyph unicode="&#x201d;" horiz-adv-x="1001" d="M137 950l127 471h207l-168 -471h-166zM551 950l125 471h209l-168 -471h-166z" />
<glyph unicode="&#x201e;" horiz-adv-x="1001" d="M98 -254l127 471h207l-166 -471h-168zM512 -254l127 471h207l-168 -471h-166z" />
<glyph unicode="&#x2022;" horiz-adv-x="1208" d="M307 762q0 123 86 209q89 86 211 86q121 0 207 -86q88 -85 88 -209q0 -121 -88 -209q-85 -88 -209 -88q-123 0 -209 86q-86 89 -86 211z" />
<glyph unicode="&#x2026;" horiz-adv-x="2048" d="M236 0v219h210v-219h-210zM918 0v219h210v-219h-210zM1602 0v219h210v-219h-210z" />
<glyph unicode="&#x202f;" horiz-adv-x="397" />
<glyph unicode="&#x2039;" horiz-adv-x="581" d="M76 532l268 418h168l-258 -418l258 -417h-168z" />
<glyph unicode="&#x203a;" horiz-adv-x="581" d="M70 115l258 417l-258 418h170l266 -418l-268 -417h-168z" />
<glyph unicode="&#x205f;" horiz-adv-x="496" />
<glyph unicode="&#x20ac;" horiz-adv-x="1175" d="M96 510l23 100h135q0 8 -1 35.5t-1 56.5q0 57 4 107h-145l22 100h135q44 253 188 396t357 143q139 0 252 -55l-6 -172q-125 67 -240 67q-141 0 -229 -96.5t-119 -282.5h535l-23 -100h-522q0 -7 -1 -36t-1 -60q0 -33 1 -64.5t1 -38.5h491l-22 -100h-457q62 -371 348 -371 q121 0 236 62l4 -178q-112 -50 -252 -50q-215 0 -358.5 141.5t-184.5 395.5h-170z" />
<glyph unicode="&#x2122;" horiz-adv-x="1705" d="M242 1378v80h452v-80h-172v-458h-108v458h-172zM813 920v538h150l151 -385l141 385h150v-538h-98v444l-166 -444h-56l-174 444v-444h-98z" />
<glyph unicode="&#x25fc;" d="M0 0v1024h1024v-1024h-1024z" />
<glyph unicode="&#xfb01;" horiz-adv-x="1234" d="M47 883v145h215v162q0 177 83.5 267.5t244.5 90.5q56 0 125 -16l-6 -154q-64 21 -101 21q-81 0 -119 -53t-38 -166v-152h239v-145h-239v-883h-189v883h-215zM883 0v1028h190v-1028h-190zM883 1309v192h190v-192h-190z" />
<glyph unicode="&#xfb02;" horiz-adv-x="1234" d="M47 883v145h215v162q0 177 83.5 267.5t244.5 90.5q56 0 125 -16l-6 -154q-61 21 -99 21q-82 0 -120.5 -53t-38.5 -166v-152h239v-145h-239v-883h-189v883h-215zM883 0v1530h190v-1530h-190z" />
</font>
</defs>
</svg>
