<?xml version="1.0" encoding="UTF-8"?>
<svg width="201px" height="80px" viewBox="0 0 201 80" version="1.1" xmlns="http://www.w3.org/2000/svg" xmlns:xlink="http://www.w3.org/1999/xlink">
    <title>Group 2</title>
    <defs>
        <linearGradient x1="-0.00197564594%" y1="50.0024146%" x2="100.003171%" y2="50.0024146%" id="linearGradient-1">
            <stop stop-color="#ED1A3B" offset="0%"></stop>
            <stop stop-color="#EE223A" offset="1.87%"></stop>
            <stop stop-color="#F0532E" offset="22.94%"></stop>
            <stop stop-color="#F26825" offset="39.71%"></stop>
            <stop stop-color="#F37021" offset="50%"></stop>
            <stop stop-color="#FDB913" offset="100%"></stop>
        </linearGradient>
        <linearGradient x1="0.00775155364%" y1="50.0053526%" x2="100.008301%" y2="50.0053526%" id="linearGradient-2">
            <stop stop-color="#8DC63F" offset="0%"></stop>
            <stop stop-color="#84C442" offset="16.65%"></stop>
            <stop stop-color="#68BD49" offset="43.81%"></stop>
            <stop stop-color="#1CB254" offset="77.89%"></stop>
            <stop stop-color="#00AC5B" offset="100%"></stop>
        </linearGradient>
        <linearGradient x1="-0.00165310045%" y1="49.9991317%" x2="99.9988142%" y2="49.9991317%" id="linearGradient-3">
            <stop stop-color="#00B3F0" offset="0%"></stop>
            <stop stop-color="#00A5E5" offset="10.23%"></stop>
            <stop stop-color="#0092D6" offset="28.52%"></stop>
            <stop stop-color="#0084CA" offset="46.84%"></stop>
            <stop stop-color="#007AC2" offset="64.96%"></stop>
            <stop stop-color="#0074BD" offset="82.79%"></stop>
            <stop stop-color="#0072BC" offset="100%"></stop>
        </linearGradient>
    </defs>
    <g id="Page-1" stroke="none" stroke-width="1" fill="none" fill-rule="evenodd">
        <g id="Group-2" transform="translate(0.468618, 0.230000)" fill-rule="nonzero">
            <g id="Group" transform="translate(112.465151, 0.180393)">
                <path d="M0.169808829,53.0594806 C0.0672827435,53.1620067 0,53.30298 0,53.4599731 L0,53.4599731 L0,53.466381 C0,53.7771632 0.249907333,54.0270705 0.560689529,54.0270705 C0.663215615,54.0270705 0.756129879,54.001439 0.839432324,53.9533799 L0.887491426,53.9117287 C8.65704633,46.9207312 21.4055243,37.1775492 38.0916446,38.0105736 C44.5668077,38.3341716 50.4396301,40.3782854 55.7934141,43.4380483 C61.3073951,46.5907254 71.6561218,57.05159 71.6561218,57.05159 C73.3285786,58.7624941 75.6834746,59.8454259 78.2466268,59.8582416 C78.2466268,59.8582416 79.7300511,59.8294062 81.0020153,59.4193018 C81.3736724,59.2975521 81.5370733,59.2302693 81.5370733,59.2302693 C82.2611638,58.925895 86.5159963,56.8561497 85.8880241,51.483142 C85.6317088,49.2980548 84.5487771,47.0905401 82.5046632,45.1169129 C82.0529077,44.684381 67.2122568,27.9085503 38.9342809,30.5357812 C20.3706516,33.0829136 7.45236483,44.5113682 0.169808829,53.0594806" id="Path" fill="url(#linearGradient-1)"></path>
                <path d="M1.11176724,53.5817228 C1.05730026,53.838038 0.833024443,54.0334784 0.563893469,54.0334784 C0.253111273,54.0334784 0.00320394017,53.7835711 0.00320394017,53.4727889 C0.00320394017,53.4727889 0.00320394017,53.4247298 0.0096118205,53.3990982 C0.320394017,49.128246 7.71829186,8.90918508 15.6961029,59.0476448 C15.6961029,59.0476448 15.7089186,59.143763 15.7089186,59.2110457 C15.7153265,59.3392033 15.6800832,59.460953 15.6800832,59.460953 C15.5935768,59.7781431 15.2859985,59.8678534 15.0232754,59.8069786 C14.8118154,59.7589195 14.6323947,59.6051303 14.5843356,59.3744467 C14.5843356,59.3744467 10.6851405,40.1572135 6.40467639,40.3718775 C4.56561474,40.5000351 3.23277563,43.8513565 1.12137906,53.4984204 C1.124583,53.5272558 1.11176724,53.5817228 1.11176724,53.5817228 Z" id="Path" fill="url(#linearGradient-2)"></path>
                <path d="M87.1696001,47.4557892 C86.6345421,45.1809917 75.1580284,-6.13651795 47.8284188,0.610980047 C41.5967552,2.14566739 36.7908449,7.53469475 32.8660182,12.7571172 C22.3090354,26.8256185 16.0837796,53.3157958 14.6035593,59.1213354 C14.5074411,59.4865846 14.7317169,59.7428998 15.0232754,59.8101825 C15.2795907,59.8710574 15.5967807,59.7813471 15.6800832,59.464157 C16.49068,56.3531311 18.7302342,48.7854244 19.8067581,45.7961482 C23.3118687,35.7133485 33.7791412,17.2266138 45.140313,17.3355477 C60.1283451,17.482929 67.3211908,45.2482745 69.3588967,52.9889939 C70.3393024,56.894597 74.001406,59.8422219 78.2498307,59.8647166 C83.3505035,59.8838731 87.5124217,55.770014 87.5348493,50.6629333 C87.5348493,50.2304014 87.4899941,48.8366874 87.1696001,47.4557892 Z" id="Path" fill="url(#linearGradient-3)"></path>
                <path d="M85.0743133,50.576427 C85.0549996,54.3795039 81.9599934,57.4392668 78.1569164,57.4296776 C74.3538395,57.4040235 71.2940766,54.3154251 71.3100337,50.5155521 C71.3293199,46.7124751 74.4243261,43.6463044 78.2241992,43.6622616 C82.033684,43.6815477 85.0934469,46.7797579 85.0743133,50.576427 Z" id="Path" fill="#00B3F0"></path>
                <path d="M21.4471755,63.372964 L21.4471755,64.3597776 C21.4471755,64.7602701 21.1171696,65.0902759 20.7166771,65.0902759 L17.4839015,65.0902759 L17.4839015,75.1314244 C17.4839015,75.5319169 17.1538957,75.8619228 16.7534031,75.8619228 L15.3052222,75.8619228 C14.9047297,75.8619228 14.5747238,75.5319169 14.5747238,75.1314244 L14.5747238,65.0902759 L11.3419482,65.0902759 C10.9414557,65.0902759 10.6114498,64.7602701 10.6114498,64.3597776 L10.6114498,63.372964 C10.6114498,62.9724715 10.9414557,62.6424656 11.3419482,62.6424656 L20.7134732,62.6424656 C21.1203736,62.6456696 21.4471755,62.9724715 21.4471755,63.372964 Z M78.8553754,71.5462153 C78.8553754,71.1136834 78.8970266,70.7131909 78.983533,70.3415338 C79.0700394,69.9698768 79.2142167,69.6462788 79.4160649,69.367536 C79.6179132,69.0952011 79.8838402,68.8677214 80.2202539,68.7107283 L80.2202539,68.7107283 C80.5502597,68.5537352 80.9571601,68.4672288 81.4377512,68.4672288 C81.4569748,68.4672288 81.4729945,68.4736367 81.4922182,68.4736367 L81.6492112,68.4736367 C82.0497037,68.4736367 82.3797096,68.1436309 82.3797096,67.7431384 L82.3797096,66.7563248 C82.3797096,66.6698184 82.3604859,66.586516 82.3316505,66.5064175 C82.2355323,66.2436944 81.9920328,66.051458 81.6972703,66.0322343 C81.6972703,66.0322343 81.6844546,66.0322343 81.6684349,66.0322343 C81.4729945,66.0386422 81.2775542,66.0610698 81.0917256,66.1059249 C80.9571601,66.1411683 80.8482262,66.1796156 80.8482262,66.1796156 C80.537444,66.2757338 80.2522933,66.4167071 79.9767545,66.5929239 C79.7044195,66.7755484 79.464124,66.9870085 79.252664,67.2369158 C79.0412039,67.493231 78.874599,67.765566 78.7528493,68.0571245 L78.7528493,68.0571245 L78.717606,68.0571245 L78.717606,67.0094361 C78.717606,66.6089436 78.394008,66.2789377 77.9935155,66.2789377 L76.9522349,66.2789377 C76.5581503,66.2789377 76.2217366,66.6089436 76.2217366,67.0094361 L76.2217366,75.1218126 C76.2217366,75.5223051 76.5517424,75.8523109 76.9522349,75.8523109 L78.1216731,75.8523109 C78.5221656,75.8523109 78.8521715,75.5223051 78.8521715,75.1218126 L78.8521715,71.5462153 L78.8553754,71.5462153 Z M22.4820482,71.5462153 C22.4820482,71.1136834 22.5236994,70.7131909 22.6102058,70.3415338 C22.6967121,69.9698768 22.8408895,69.6462788 23.0491456,69.367536 C23.2509938,69.0887932 23.5233287,68.8677214 23.8533345,68.7107283 L23.8533345,68.7107283 C24.1865443,68.5537352 24.5966487,68.4672288 25.0772397,68.4672288 C25.0964633,68.4672288 25.112483,68.4736367 25.1317067,68.4736367 L25.2886997,68.4736367 C25.6891923,68.4736367 26.0191981,68.1436309 26.0191981,67.7431384 L26.0191981,66.7563248 C26.0191981,66.6698184 25.9999745,66.586516 25.9775469,66.5064175 C25.8814287,66.2436944 25.6379292,66.051458 25.3431667,66.0322343 C25.3431667,66.0322343 25.330351,66.0322343 25.3143313,66.0322343 C25.1188909,66.0386422 24.9234506,66.0610698 24.737622,66.1059249 C24.6030565,66.1411683 24.4941226,66.1796156 24.4941226,66.1796156 C24.1833404,66.2757338 23.8981897,66.4167071 23.6226509,66.5929239 C23.3503159,66.7691406 23.1100204,66.9870085 22.8985604,67.2369158 C22.6903043,67.493231 22.5204954,67.765566 22.3987457,68.0571245 L22.3987457,68.0571245 L22.3635024,68.0571245 L22.3635024,67.0094361 C22.3635024,66.6089436 22.0334965,66.2789377 21.633004,66.2789377 L20.5917235,66.2789377 C20.1912309,66.2789377 19.8612251,66.6089436 19.8612251,67.0094361 L19.8612251,75.1218126 C19.8612251,75.5223051 20.1912309,75.8523109 20.5917235,75.8523109 L21.7611616,75.8523109 C22.1616541,75.8523109 22.49166,75.5223051 22.49166,75.1218126 L22.49166,71.5462153 L22.4820482,71.5462153 Z M44.8904057,68.351887 C44.7878796,67.8648881 44.605255,67.4515798 44.3425319,67.1119622 C44.0798088,66.7723445 43.7273754,66.5096214 43.2788238,66.3141811 C42.8270682,66.1251486 42.250359,66.0290304 41.5519,66.0290304 C40.9976184,66.0290304 40.4497446,66.157188 39.9210945,66.4070953 C39.3924444,66.6634105 38.9599124,67.0639031 38.6234987,67.6181847 L38.5690317,67.6181847 L38.5690317,66.9485612 C38.5690317,66.583312 38.2390259,66.2853456 37.8385334,66.2853456 L36.8036607,66.2853456 C36.4031682,66.2853456 36.0731623,66.6153514 36.0731623,67.015844 L36.0731623,75.1282205 C36.0731623,75.528713 36.4031682,75.8587188 36.8036607,75.8587188 L37.9698949,75.8587188 C38.3703874,75.8587188 38.7003933,75.528713 38.7003933,75.1282205 L38.7003933,70.8413485 C38.7003933,69.9410413 38.8413666,69.2714178 39.1137016,68.8388859 C39.1329252,68.8036426 39.1553528,68.7716032 39.1809843,68.7427677 C39.5045823,68.3166437 40.0204166,68.1051836 40.7380992,68.1051836 C41.3660715,68.1051836 41.8018074,68.300624 42.0517147,68.6883007 C42.301622,69.0791814 42.4233718,69.6687064 42.4233718,70.4536718 L42.4233718,75.1282205 C42.4233718,75.528713 42.7533776,75.8587188 43.1538701,75.8587188 L44.3297162,75.8587188 C44.7302087,75.8587188 45.0538066,75.528713 45.0538066,75.1282205 L45.0538066,70.7035791 C45.0473988,68.9670435 44.9128333,68.4672288 44.8904057,68.351887 Z M54.242707,71.7064124 C54.0664903,71.402038 53.8422145,71.1457228 53.5538599,70.9406707 C53.2687092,70.7388224 52.9451113,70.5690136 52.5734542,70.4472639 C52.208205,70.3255141 51.8301401,70.2165802 51.4488712,70.1300738 C51.0772141,70.0435674 50.711965,69.9666728 50.3467158,69.8865743 C49.9878745,69.8128837 49.6642765,69.7295813 49.3855337,69.636667 C49.1067909,69.5437527 48.8793112,69.425207 48.7030945,69.2714178 C48.5268778,69.1240366 48.4403714,68.9318002 48.4403714,68.6947086 C48.4403714,68.4928604 48.4884305,68.3358673 48.5909566,68.2205255 C48.6870748,68.1051836 48.8088245,68.0122693 48.9562058,67.9513945 C49.0971791,67.8905196 49.2541722,67.8488684 49.4303889,67.8296448 C49.6001977,67.8104211 49.7635987,67.8040132 49.9109799,67.8040132 C50.3851631,67.8040132 50.7920635,67.8937236 51.1412929,68.0731442 C51.3591609,68.1884861 51.5193579,68.3711106 51.6154761,68.621018 C51.621884,68.6274259 51.621884,68.6402416 51.621884,68.6466495 C51.7308179,68.9157805 51.993541,69.1080169 52.2979153,69.1080169 L52.2979153,69.1080169 L52.2979153,69.1080169 L53.496189,69.1080169 C53.8966815,69.1080169 54.1722203,68.7844189 54.0921218,68.3903343 C54.0921218,68.3903343 54.0248391,68.0186772 53.7685239,67.6310005 C53.5122087,67.2401198 53.1918147,66.9261336 52.8073418,66.6890421 C52.422869,66.4519505 51.9871332,66.2885495 51.4937264,66.1828195 C51.0003196,66.0867013 50.497301,66.0354383 49.9718548,66.0354383 C49.4496125,66.0354383 48.94339,66.0770895 48.4435753,66.1764116 C47.9437607,66.266122 47.5016169,66.4327268 47.1043283,66.6634105 C46.7102437,66.8940942 46.3866457,67.2048764 46.1431463,67.5989611 C45.8996468,67.9930457 45.7778971,68.5056761 45.7778971,69.1272405 C45.7778971,69.5469567 45.8644035,69.905798 46.0406202,70.1973565 C46.2168369,70.4889151 46.4475206,70.7324145 46.7294673,70.921447 C47.014618,71.1168874 47.338216,71.2674726 47.709873,71.3828144 C48.0751222,71.5045641 48.4531871,71.6006823 48.834456,71.6935966 C49.7764144,71.8954448 50.5133207,72.0876812 51.0419708,72.2895295 C51.5706209,72.4913777 51.833344,72.7893441 51.833344,73.1834288 C51.833344,73.4205203 51.778877,73.6159607 51.6635352,73.7729538 C51.5546012,73.9299468 51.4136279,74.0516966 51.243819,74.1446108 C51.0804181,74.2343212 50.8913856,74.3080118 50.6831295,74.3528669 C50.4748734,74.3977221 50.282637,74.4201497 50.0936045,74.4201497 C49.8308814,74.4201497 49.5809741,74.3913142 49.3374746,74.3240315 C49.0939752,74.2631566 48.8761073,74.1766502 48.6934827,74.0388808 C48.4211477,73.8274207 48.3634768,73.7345065 48.2385232,73.5326583 C48.0911419,73.3083824 48.0911419,72.8566269 47.4471499,72.795752 L47.4471499,72.795752 L46.2841197,72.795752 C45.8836271,72.795752 45.5952725,73.1257579 45.6561474,73.5198425 C45.6561474,73.5198425 45.7234301,73.974802 45.9893572,74.4073339 C46.2584881,74.833458 46.5981058,75.1794835 47.0114141,75.4422066 C47.4247224,75.7049297 47.9053134,75.8939622 48.4339635,76.0028961 C48.9690215,76.118238 49.5168953,76.172705 50.0711769,76.172705 C50.6190507,76.172705 51.1541087,76.118238 51.6827588,76.0157119 C52.211409,75.9131858 52.6791842,75.7305612 53.0892886,75.4678381 C53.496189,75.205115 53.8326027,74.8654974 54.085714,74.4329654 C54.3420292,74.0004335 54.4701868,73.4717834 54.4701868,72.8374032 C54.5022262,72.3856477 54.4189237,72.0139906 54.242707,71.7064124 Z M65.6038789,71.084848 C65.6038789,71.8505897 65.7192207,72.5394368 65.9563123,73.1545933 C66.1934039,73.7761577 66.5234097,74.2984 66.9527377,74.7373398 C67.3852696,75.1762796 67.901104,75.5094893 68.5034447,75.7465809 C69.1057855,75.9836725 69.7882247,76.0990143 70.5411507,76.0990143 C71.2940766,76.0990143 71.9765159,75.9836725 72.5852645,75.7465809 C73.1940131,75.5094893 73.7162554,75.1730756 74.1487873,74.7373398 C74.5813192,74.2984 74.914529,73.7761577 75.1452127,73.1545933 C75.3758964,72.5394368 75.4976461,71.8473857 75.4976461,71.084848 C75.4976461,70.3223102 75.3823043,69.6238512 75.1452127,69.0022869 C74.9081211,68.3807225 74.5781153,67.8456645 74.1487873,67.4067247 C73.7162554,66.9677849 73.1940131,66.6345751 72.5852645,66.3910756 C71.970108,66.153984 71.2940766,66.0322343 70.5411507,66.0322343 C69.7882247,66.0322343 69.1057855,66.153984 68.5034447,66.3910756 C67.901104,66.6345751 67.3852696,66.9741927 66.9527377,67.4067247 C66.5202058,67.8456645 66.186996,68.3743146 65.9563123,69.0022869 C65.7192207,69.6302591 65.6038789,70.3223102 65.6038789,71.084848 Z M68.2311098,71.084848 C68.2311098,70.7003751 68.2663531,70.3255141 68.3400438,69.960265 C68.4137344,69.5886079 68.541892,69.261806 68.7181087,68.9798593 C68.8943254,68.6947086 69.1378249,68.4640249 69.4293834,68.2846043 C69.7273499,68.1083876 70.0990069,68.0154733 70.5443546,68.0154733 C70.9897023,68.0154733 71.3581554,68.1051836 71.6625297,68.2846043 C71.9604962,68.460821 72.2039956,68.6915047 72.3802123,68.9798593 C72.556429,69.2586021 72.6845866,69.5886079 72.7582773,69.960265 C72.8319679,70.331922 72.8672112,70.709987 72.8672112,71.084848 C72.8672112,71.4693208 72.8319679,71.8409778 72.7582773,72.2030231 C72.6845866,72.5682723 72.556429,72.8982781 72.3802123,73.1834288 C72.2039956,73.4685795 71.9604962,73.705671 71.6625297,73.8786838 C71.3581554,74.0484926 70.9864983,74.134999 70.5443546,74.134999 C70.0990069,74.134999 69.7273499,74.0484926 69.4293834,73.8786838 C69.1378249,73.708875 68.8943254,73.4717834 68.7181087,73.1834288 C68.541892,72.8918702 68.4137344,72.5618644 68.3400438,72.2030231 C68.2695571,71.8377739 68.2311098,71.4661168 68.2311098,71.084848 Z M64.9150317,71.1809662 C64.9150317,71.8185503 64.8285253,72.4401147 64.6523086,73.0296396 C64.4824998,73.6191646 64.2197767,74.1446108 63.8673433,74.5995703 C63.5149099,75.0545298 63.0759701,75.419779 62.5537278,75.68891 C62.0314856,75.9612449 61.4163291,76.0958104 60.7114622,76.0958104 C60.1219372,76.0958104 59.5740635,75.9740607 59.0742488,75.7369691 C58.9524991,75.6760942 58.8371572,75.6152194 58.7282233,75.5415287 C58.7154075,75.528713 58.7089996,75.5223051 58.6993878,75.5158972 C58.6128814,75.4614302 58.5359869,75.4005554 58.4622962,75.3396805 C58.3757898,75.2659899 58.3341386,75.2179308 58.3341386,75.2179308 C58.1579219,75.0224904 58.0041328,74.8526816 57.9144225,74.7565634 C57.8951988,74.7277279 57.8727712,74.7020964 57.8535476,74.6764649 L57.834324,74.6764649 L57.8151003,74.6764649 L57.8151003,75.4069633 L57.8151003,78.4859498 C57.8151003,78.8864423 57.4850945,79.2164481 57.084602,79.2164481 L55.9087559,79.2164481 C55.5082634,79.2164481 55.1782576,78.8864423 55.1782576,78.4859498 L55.1782576,67.0286597 C55.1782576,66.6281672 55.5082634,66.2981614 55.9087559,66.2981614 L56.9500365,66.2981614 C57.350529,66.2981614 57.6805348,66.5704963 57.6805348,66.90691 L57.6805348,67.5156586 L57.7157782,67.5156586 C58.0393761,66.9998243 58.4462765,66.6217593 58.9396833,66.3846677 C59.4330901,66.153984 59.974556,66.0322343 60.564081,66.0322343 C61.3202109,66.0322343 61.9642028,66.1732077 62.5056687,66.4583584 C63.0471346,66.743509 63.4988902,67.121574 63.8577315,67.5893492 C64.2165728,68.0571245 64.4792959,68.6049983 64.6491047,69.2265627 C64.8285253,69.8481271 64.9150317,70.5017309 64.9150317,71.1809662 Z M62.2878008,71.1040716 C62.2878008,70.7195988 62.2525574,70.3447378 62.1660511,69.9794886 C62.0859526,69.6078315 61.954591,69.2810297 61.7719664,68.9862672 C61.5893418,68.7011165 61.3522503,68.4640249 61.0606917,68.2878082 C60.7691332,68.1115915 60.4166997,68.0186772 59.9969836,68.0186772 C59.5644516,68.0186772 59.2056104,68.1083876 58.9140518,68.2878082 C58.6224932,68.4640249 58.3918095,68.6947086 58.209185,68.9830632 C58.0329682,69.261806 57.9048106,69.5918118 57.83112,69.9634689 C57.7574294,70.335126 57.7157782,70.7195988 57.7157782,71.1072755 C57.7157782,71.4917484 57.7574294,71.8666094 57.8375279,72.2382664 C57.9176264,72.6099235 58.045784,72.9335214 58.2284086,73.2122642 C58.4110332,73.491007 58.6481248,73.7184868 58.9396833,73.8882956 C59.2376498,74.0581044 59.5900832,74.1510187 60.0097993,74.1510187 C60.4423313,74.1510187 60.8011726,74.0645123 61.0927311,73.8882956 C61.3842897,73.7184868 61.6149734,73.494211 61.7911901,73.2122642 C61.9674068,72.9335214 62.0955644,72.6099235 62.169255,72.2382664 C62.2493535,71.8634054 62.2878008,71.4853405 62.2878008,71.1040716 Z M82.9820503,73.5967371 C82.9820503,74.0773281 83.0621488,74.4682088 83.2191419,74.7661752 C83.3825429,75.0641417 83.5972068,75.2884175 83.8759496,75.4550224 C84.1546924,75.6120154 84.4782904,75.7241533 84.8371317,75.7786203 C85.0197563,75.8074558 85.2087887,75.8266794 85.4042291,75.8394952 L85.3914133,75.8394952 L85.4939394,75.8394952 C85.6573404,75.8523109 85.8239453,75.8587188 85.9937541,75.8587188 C86.2436614,75.8587188 86.8395943,75.8330873 86.8588179,75.8330873 C87.2368829,75.8042518 87.5348493,75.4934696 87.5348493,75.1089968 L87.5348493,74.5258797 C87.5348493,74.1317951 87.2112514,73.8081971 86.8171667,73.7953813 C86.8107588,73.7953813 86.804351,73.7953813 86.804351,73.7953813 L86.5928909,73.7953813 C86.2212338,73.7825656 85.9649186,73.708875 85.8335571,73.5775134 C85.6861758,73.4301322 85.6092813,73.1321657 85.6092813,72.690022 L85.6092813,67.9545984 L87.0446465,67.9545984 C87.3137774,67.9545984 87.5316454,67.7367305 87.5316454,67.4675995 L87.5316454,66.6826342 C87.5316454,66.4135032 87.3137774,66.1956353 87.0446465,66.1956353 L85.6092813,66.1956353 L85.6092813,64.0586072 C85.6092813,63.6581147 85.2792754,63.3281088 84.8787829,63.3281088 L83.7093447,63.3281088 C83.3088522,63.3281088 82.9788464,63.6581147 82.9788464,64.0586072 L82.9788464,73.599941 L82.9820503,73.599941 L82.9820503,73.5967371 Z M26.4741576,68.3935382 C26.2626976,69.0311223 26.7529004,69.2393784 27.1437811,69.2393784 C27.5987406,69.2393784 28.2267129,69.2393784 28.2267129,69.2393784 C29.235954,69.2393784 28.8546851,68.5825707 29.4730456,68.1308151 C29.771012,67.9129472 30.1779124,67.7976054 30.6969507,67.7976054 C30.9276344,67.7976054 31.1487063,67.8104211 31.3537585,67.8456645 C31.5556067,67.8744999 31.7382313,67.9353748 31.8888165,68.028289 C32.0394017,68.1179994 32.1675593,68.2525649 32.2604735,68.4191697 C32.3501839,68.5825707 32.4014469,68.8100504 32.4014469,69.0952011 C32.4142627,69.367536 32.3341642,69.5693843 32.1579475,69.7167655 C31.9881386,69.8577389 31.7510471,69.9666728 31.4530806,70.0403635 C31.1615221,70.1140541 30.8187005,70.1685211 30.4374316,70.2037644 C30.0529588,70.2390078 29.665282,70.2902708 29.2679934,70.3511457 C28.8739088,70.4120205 28.4830281,70.4985269 28.0921474,70.601053 C27.7012667,70.7035791 27.361649,70.8637761 27.0572747,71.0752361 C26.7529004,71.2834923 26.5094009,71.5622351 26.3139606,71.9146685 C26.1249281,72.2671019 26.0288099,72.7124496 26.0288099,73.2603233 C26.0288099,73.7537301 26.1153163,74.1798542 26.2787173,74.5386955 C26.4421182,74.8975368 26.6728019,75.1955032 26.9739723,75.4261869 C27.2719387,75.6632785 27.6115564,75.8330873 28.0088449,75.9420213 C28.4029296,76.0573631 28.8290536,76.1054222 29.2872171,76.1054222 C29.8767421,76.1054222 30.4630631,76.0189158 31.0269566,75.8426991 C31.59085,75.6664824 32.0842568,75.368516 32.5071769,74.935984 C32.5199927,75.099385 32.5328085,75.259582 32.5744597,75.4101672 C32.6962094,75.8619228 33.2504911,75.8619228 33.2504911,75.8619228 L34.6313893,75.8619228 C35.2946049,75.8619228 35.1472405,75.368516 35.0991645,74.9744313 C35.0511054,74.5803467 35.0254739,74.1638345 35.0254739,73.7345065 L35.0254739,69.4860818 C35.0254739,69.0855893 34.9838227,68.4319855 34.9357636,68.031493 C34.9357636,68.031493 34.8941124,67.707895 34.6377971,67.3618695 C34.3750741,67.0094361 34.0482722,66.7338972 33.6413718,66.5416608 C33.2344714,66.3462205 32.7827158,66.211655 32.289309,66.1411683 C31.7959022,66.0738855 31.3089033,66.0450501 30.8283123,66.0450501 C30.2996622,66.0450501 29.771012,66.0995171 29.2455658,66.2020432 C28.7233236,66.3045692 28.2491405,66.4807859 27.8262204,66.7306933 C27.4065042,66.9806006 27.0604787,67.3041986 26.7913477,67.711099 C26.6567822,67.9065393 26.560664,68.140427 26.4741576,68.3935382 Z M32.4014469,71.1809662 L32.4014469,71.4308735 C32.4014469,71.831366 32.395039,72.311957 32.3822233,72.5009895 C32.3822233,72.5009895 32.3822233,72.5009895 32.3533878,72.7508969 C32.3245523,73.0008042 32.238046,73.2443036 32.1034805,73.4813952 C31.968915,73.7248947 31.7574549,73.9331508 31.4755082,74.1029596 C31.1967654,74.2727684 30.7866611,74.3656827 30.2708267,74.3656827 C30.0625706,74.3656827 29.8575184,74.3464591 29.6620781,74.3112157 C29.4602298,74.2759724 29.290421,74.2086896 29.1462437,74.1157754 C28.9988625,74.026065 28.8835206,73.8979074 28.7938103,73.7377104 C28.7073039,73.5807174 28.6656527,73.3788691 28.6656527,73.1481854 C28.6656527,72.904686 28.7073039,72.6964299 28.7938103,72.5394368 C28.8803167,72.3824437 28.9956585,72.2478782 29.1334279,72.1453522 C29.2744013,72.0428261 29.4442101,71.9563197 29.6332426,71.8954448 C29.8222751,71.83457 30.0177154,71.7865109 30.2163597,71.7480636 C30.4278198,71.7128202 30.6360759,71.6807808 30.844332,71.6583533 C31.055792,71.6327217 31.2576403,71.6038863 31.4466727,71.5686429 C31.6357052,71.5333996 31.8183298,71.4821365 31.9817307,71.4276696 C32.1515396,71.350775 32.2925129,71.2802883 32.4014469,71.1809662 Z" id="Shape" fill="#939598"></path>
            </g>
            <path d="M5.26131269,68.4201423 C5.6682131,68.4201423 6.04627804,68.487425 6.37948781,68.6155826 C6.71910547,68.7469442 7.01386797,68.9263648 7.26057136,69.1506406 C7.51047869,69.3749164 7.70912298,69.6344356 7.85009635,69.9195863 C7.99106972,70.201533 8.07116822,70.5027034 8.08398398,70.8134856 L8.08398398,70.8134856 L8.09039186,70.9320314 L6.4659942,70.9320314 L6.4499745,70.8391171 C6.41473115,70.6468807 6.34104053,70.46746 6.23210657,70.3040591 C6.1231726,70.1438621 5.98540317,70.0157045 5.81879828,69.9195863 C5.6521934,69.8234681 5.45675304,69.775409 5.23247723,69.775409 C4.96334626,69.775409 4.71343893,69.8458956 4.49557099,69.9836651 C4.27770306,70.1214345 4.10148635,70.3489143 3.97332875,70.6564925 C3.84517114,70.9736826 3.7778884,71.3966027 3.7778884,71.9188449 C3.7778884,72.344969 3.82274356,72.7006063 3.90924994,72.9761452 C3.99255239,73.2484801 4.10789423,73.466348 4.2488676,73.6233411 C4.38984097,73.7771302 4.55003798,73.8892681 4.72625469,73.950143 C4.9024714,74.0174257 5.09150387,74.0494651 5.28694422,74.0494651 C5.46636487,74.0494651 5.62976581,74.0174257 5.76753524,73.9597548 C5.90530467,73.89888 6.03025833,73.8187815 6.12958048,73.7258672 C6.23210657,73.629749 6.31220507,73.524019 6.36667205,73.415085 C6.42754692,73.3029471 6.46279026,73.1940131 6.47560602,73.0882831 L6.47560602,73.0882831 L6.5140533,72.8127442 L5.15558267,72.8127442 L5.15558267,71.6657337 L8.15447067,71.6817534 L8.15447067,75.3662846 L7.01707191,75.3662846 L7.01707191,74.6934571 C6.94658522,74.7671477 6.86969066,74.8440423 6.78638821,74.9177329 C6.60696756,75.0779299 6.38589569,75.2060875 6.13278442,75.3054097 C5.87326527,75.4047318 5.55607519,75.4559949 5.18762207,75.4559949 C4.5596498,75.4559949 4.00857209,75.3086136 3.54400077,75.023463 C3.07942944,74.7351083 2.7173842,74.325004 2.46747687,73.7995578 C2.21756954,73.2805195 2.09261587,72.6589551 2.09261587,71.9540883 C2.09261587,71.2396096 2.22397742,70.6084334 2.48670051,70.0829872 C2.7494236,69.557541 3.1242846,69.1410288 3.59846775,68.8526742 C4.07585483,68.5643196 4.63334042,68.4201423 5.26131269,68.4201423 Z M12.1241525,68.4137344 C12.7585327,68.4137344 13.3192222,68.5579117 13.7869975,68.8430624 C14.2611806,69.128213 14.6296337,69.5415213 14.885949,70.0669675 C15.1422642,70.5892098 15.2704218,71.220386 15.2704218,71.9444765 C15.2704218,72.6557512 15.1422642,73.2805195 14.8891529,73.8027618 C14.6328377,74.3282079 14.2675885,74.7383123 13.7934054,75.020259 C13.3224262,75.3022058 12.7585327,75.4463831 12.1209486,75.4463831 C11.4769566,75.4463831 10.9098592,75.3022058 10.43888,75.020259 C9.9679008,74.7383123 9.59624374,74.3314119 9.33672459,73.8059657 C9.08040937,73.2869274 8.95225177,72.6621591 8.95225177,71.9444765 C8.95225177,71.2235899 9.08361331,70.5924137 9.34313247,70.0701715 C9.60585556,69.5415213 9.97751262,69.131417 10.4516958,68.8430624 C10.9258789,68.5579117 11.4897724,68.4137344 12.1241525,68.4137344 Z M67.5170741,68.5322802 L67.5170741,69.9388099 L65.5754863,69.9388099 L65.5754863,75.3342452 L64.0183714,75.3342452 L64.0183714,69.9388099 L62.0287246,69.9388099 L62.0287246,68.5322802 L67.5170741,68.5322802 Z M35.8461255,68.5322802 L38.6784086,72.6365275 L38.6784086,68.5322802 L40.2323196,68.5322802 L40.2323196,75.3342452 L38.8642372,75.3342452 L35.9102043,71.0633929 L35.9102043,75.3342452 L34.3627012,75.3342452 L34.3627012,68.5322802 L35.8461255,68.5322802 Z M56.9953346,68.5322802 L59.8244137,72.6365275 L59.8244137,68.5322802 L61.3783247,68.5322802 L61.3783247,75.3342452 L60.0102423,75.3342452 L57.0562094,71.0633929 L57.0562094,75.3342452 L55.5087063,75.3342452 L55.5087063,68.5322802 L56.9953346,68.5322802 Z M54.4706297,68.5322802 L54.4642218,69.8747311 L51.2859132,69.8747311 L51.2859132,71.2460175 L54.0445057,71.2460175 L54.0445057,72.5724487 L51.2763014,72.5724487 L51.2763014,73.9757745 L54.5154849,73.9821824 L54.5154849,75.3342452 L49.7287983,75.3342452 L49.7287983,68.5322802 L54.4706297,68.5322802 Z M16.8595761,68.5322802 L18.5160132,73.3349865 L20.1884699,68.5322802 L21.6943218,68.5322802 L19.3458337,75.3342452 L17.6829887,75.3342452 L15.3537242,68.5322802 L16.8595761,68.5322802 Z M27.092961,68.5322802 L27.0865531,69.8747311 L23.9082445,69.8747311 L23.9082445,71.2460175 L26.6700409,71.2460175 L26.6700409,72.5724487 L23.8986326,72.5724487 L23.8986326,73.9757745 L27.1378162,73.9821824 L27.1378162,75.3342452 L22.3511295,75.3342452 L22.3511295,68.5322802 L27.092961,68.5322802 Z M43.5516016,68.5322802 L44.9741511,72.9665334 L46.4127202,68.5322802 L48.5305247,68.5322802 L48.5305247,75.3342452 L46.9637979,75.3342452 L46.9637979,70.9288274 L45.5764918,75.3342452 L44.3686064,75.3342452 L42.9909121,70.951255 L42.9909121,75.3342452 L41.4305932,75.3342452 L41.4305932,68.5322802 L43.5516016,68.5322802 Z M30.9633207,68.5290762 C31.5015827,68.5290762 31.9533382,68.6187866 32.3025677,68.7917993 C32.6582051,68.97122 32.9209282,69.2211273 33.087533,69.5351134 C33.2541379,69.8426917 33.3374404,70.2047369 33.3374404,70.6084334 C33.3374404,70.9704786 33.2797695,71.2812608 33.1676316,71.5311682 C33.0522897,71.7842794 32.8985006,71.9957395 32.715876,72.1623444 C32.5620869,72.3001138 32.395482,72.4186596 32.2160613,72.5147778 L32.2160613,72.5147778 L33.465598,75.3310412 L31.8379964,75.3310412 L30.7646764,72.7967245 L29.6240737,72.7967245 L29.6240737,75.3310412 L28.0765706,75.3310412 L28.0765706,68.5290762 Z M12.1241525,69.7401656 C11.82939,69.7401656 11.5666669,69.8138562 11.348799,69.9612375 C11.1309311,70.1086187 10.9579183,70.3457103 10.8361686,70.6661043 C10.7112149,70.9929062 10.6471361,71.431846 10.6471361,71.9637001 C10.6471361,72.4859423 10.7112149,72.9152703 10.8361686,73.2324604 C10.9611223,73.5432426 11.1309311,73.7707224 11.348799,73.9116957 C11.5666669,74.0526691 11.82939,74.1231558 12.1273565,74.1231558 C12.4285268,74.1231558 12.688046,74.0526691 12.9059139,73.9116957 C13.1205779,73.7707224 13.2903868,73.5432426 13.4025247,73.2324604 C13.5274783,72.9152703 13.5883532,72.4859423 13.5883532,71.9637001 C13.5883532,71.4286421 13.5274783,70.9897023 13.4025247,70.6629004 C13.2839789,70.3457103 13.11417,70.1086187 12.8963021,69.9612375 C12.6784342,69.8138562 12.418915,69.7401656 12.1241525,69.7401656 Z M30.8223473,69.772205 L29.6240737,69.772205 L29.6240737,71.5535958 L30.7262291,71.5535958 C31.053031,71.5535958 31.3093463,71.4670894 31.4951748,71.2972805 C31.6810033,71.1274717 31.7707136,70.9128077 31.7707136,70.6436767 C31.7707136,70.3713418 31.6842073,70.1630857 31.5079905,70.0092966 C31.325366,69.8490996 31.1010901,69.772205 30.8223473,69.772205 L30.8223473,69.772205 Z M31.5432339,44.1887428 C33.3983152,44.1887428 34.9842656,44.4835053 36.2562299,45.0666224 C37.5281941,45.6497395 38.5150077,46.4507245 39.1814272,47.4503539 C39.8478468,48.4467793 40.1970763,49.5777701 40.2162999,50.8112871 L40.2162999,50.8112871 L40.2195039,50.926629 L35.660297,50.926629 L35.6506852,50.8273068 C35.5737906,50.1000124 35.3527187,49.5136913 34.9938774,49.0843634 C34.6350361,48.6518314 34.1640569,48.3378453 33.5969595,48.1456089 C33.0234542,47.9501685 32.3602386,47.8540503 31.6233324,47.8540503 C31.0626429,47.8540503 30.5468085,47.9181291 30.0854411,48.0430828 C29.6304816,48.1680365 29.2396009,48.3442532 28.9256148,48.568529 C28.6116286,48.7928048 28.3681292,49.0587318 28.2015243,49.3566983 C28.0349194,49.6546647 27.948413,49.9942824 27.948413,50.3691434 C27.948413,50.9586684 28.1438534,51.4392594 28.5347341,51.8013046 C28.9352266,52.1729617 29.7009683,52.4837439 30.8127355,52.7240394 L30.8127355,52.7240394 L34.4908588,53.4801693 C35.8108822,53.7396884 36.8809982,54.1305691 37.6659635,54.6399956 C38.4509289,55.1494221 39.0500657,55.7357431 39.4505582,56.3829391 C39.8478468,57.0237271 40.1105699,57.6869427 40.2419314,58.3533623 C40.3636812,59.0165779 40.42776,59.6349383 40.42776,60.1924239 C40.42776,61.36827 40.052899,62.4415899 39.3127888,63.3835483 C38.5790865,64.3190989 37.5410099,65.0688209 36.2338023,65.6134907 C34.9297986,66.1549566 33.3887034,66.4304954 31.6489639,66.4304954 C30.5884597,66.4304954 29.5311595,66.2959299 28.5058986,66.026799 C27.4806378,65.7544641 26.5290675,65.3475637 25.6832273,64.8093017 C24.8341832,64.2710398 24.1197045,63.5853966 23.5654229,62.7747997 C23.0079373,61.9609989 22.6683196,60.993409 22.5593857,59.9040693 L22.5593857,59.9040693 L22.5465699,59.7791156 L27.198691,59.7791156 L27.2179147,59.865622 C27.358888,60.4967982 27.6344269,61.0318562 28.0349194,61.4611842 C28.4386159,61.8937162 28.9544502,62.2269259 29.5664028,62.4576096 C30.1815593,62.6882933 30.8800183,62.8068391 31.6329442,62.8068391 C32.4050938,62.8068391 33.1227764,62.7107209 33.7667684,62.5152805 C34.3979446,62.3262481 34.9073711,62.0314856 35.285436,61.6470128 C35.6538891,61.2689478 35.8397177,60.7883568 35.8397177,60.2180554 C35.8397177,59.705425 35.6891325,59.2825049 35.39437,58.958907 C35.0931996,58.6289011 34.6734834,58.3533623 34.1448333,58.1419022 C33.6097753,57.9272382 32.9914148,57.7478176 32.3121795,57.6132521 L32.3121795,57.6132521 L28.6020168,56.8571222 C26.9615994,56.549544 25.64478,55.8863283 24.683598,54.8899029 C23.719212,53.8902736 23.2129895,52.5382109 23.184154,50.8753659 C23.1713382,49.5136913 23.5397913,48.3154177 24.2799015,47.3125844 C25.0168078,46.3161591 26.0292529,45.5376016 27.2948092,44.9993396 C28.5539577,44.4610777 29.982915,44.1887428 31.5432339,44.1887428 Z M6.89211824,44.5571959 L6.92736158,44.605255 L16.4238402,58.3757898 L16.4238402,44.5571959 L20.9413959,44.5571959 L20.9413959,66.0396147 L16.9044313,66.0396147 L6.97542068,51.676351 L6.97542068,66.0396147 L2.47388475,66.0396147 L2.47388475,44.5571959 L6.89211824,44.5571959 Z M44.9324998,44.5571959 L48.8028596,58.2956913 L52.6700153,44.5571959 L55.9444422,44.5571959 L59.8564531,58.2956913 L63.7268129,44.5571959 L68.1514542,44.5571959 L61.8076527,66.0396147 L58.2128318,66.0396147 L54.3008209,52.4420927 L50.3567705,66.0396147 L46.8228245,66.0396147 L40.4918388,44.5571959 L44.9324998,44.5571959 Z" id="Combined-Shape" fill="#202E61"></path>
            <path d="M56.1334747,37.8096979 C57.0626173,37.5565866 57.402235,38.5369923 56.8992164,39.3539971 C54.4610179,43.3429026 42.141868,40.2190609 36.5606042,39.6423517 C36.3171047,39.6167202 36.3427363,39.2578789 36.5862357,39.2290434 C41.8951646,38.5754396 47.0567122,40.2799358 56.1334747,37.8096979 Z M12.5695002,39.3539971 C12.0696856,38.5369923 12.4125071,37.5565866 13.3384459,37.8096979 C22.4152084,40.2799358 27.573552,38.5754396 32.8856848,39.2290434 C33.1323882,39.2578789 33.1548158,39.6167202 32.9081124,39.6423517 C27.3268486,40.215857 15.0076987,43.3429026 12.5695002,39.3539971 Z M21.1144086,11.5566122 C25.5358461,14.5907435 29.0922197,18.0317753 31.7290624,21.847668 C32.661409,23.1965268 33.2637498,24.3980044 33.8084196,25.6699686 C32.2737322,29.8607224 32.0558643,34.8011981 33.8180314,37.2041532 C32.075088,37.6366851 30.5916637,37.4220212 28.967266,36.5153061 C27.3556841,35.611795 24.4112631,33.2761226 22.6875433,27.5346618 C21.3135782,22.9580171 21.0111128,18.317719 20.9958029,15.2153453 L20.9957134,14.7259914 C21.0037061,12.9829778 21.0982314,11.814293 21.1144086,11.5566122 Z M48.3575119,11.5598161 C48.6843138,16.3785421 48.4472222,23.1837111 46.1724247,29.2968289 C44.9965786,32.45271 43.1447012,34.7243035 41.2928238,36.0251032 C39.4697819,37.3066793 37.6275163,37.6879482 36.4292426,37.1849296 C35.6378694,36.8517198 35.0643641,36.1564648 34.7247465,35.236934 C33.9141496,33.039031 34.4043525,29.1013885 35.4552448,26.2082306 C37.6915951,20.0598694 44.2340409,14.3120007 48.3575119,11.5598161 Z M11.134135,6.83400438 C11.5666669,6.53924188 12.1113368,6.49438672 12.5855199,6.71866253 C15.042942,7.87528493 17.3273514,9.12161766 19.4323401,10.4512528 C18.9165057,16.8046662 19.4387479,22.6935082 20.9990668,28.0312725 C22.2101562,32.1771711 24.3151449,35.4291704 26.9904349,37.3483305 C25.8978913,37.2906596 24.7701044,37.0183247 23.667949,36.5313258 C21.3835396,35.5252886 19.2657352,33.6541875 17.5452193,31.1230748 C13.437768,25.0900554 11.0636483,17.3589478 10.493347,8.13800802 C10.4581036,7.61576578 10.6983992,7.12876687 11.134135,6.83400438 Z M56.8896045,6.71866253 C57.3637877,6.49438672 57.9052536,6.53924188 58.3409894,6.83400438 C58.7735214,7.12876687 59.0138169,7.61576578 58.9817775,8.13800802 C58.4114761,17.3589478 56.0373565,25.0932594 51.9299052,31.1230748 C50.2061854,33.6509836 48.0883809,35.5220846 45.8039716,36.5313258 C44.7018162,37.0183247 43.5740292,37.2906596 42.4814856,37.3483305 C45.1567757,35.4291704 47.2617643,32.1771711 48.4728537,28.0312725 C50.0363765,22.6935082 50.5554148,16.8046662 50.0427844,10.4512528 C52.1477731,9.11841372 54.4321824,7.87528493 56.8896045,6.71866253 Z M11.5826866,23.026718 C12.7521248,26.3620197 14.2611806,29.3929471 16.1066502,32.1034805 C17.6189099,34.327015 19.4291361,36.0955899 21.4027633,37.3034754 C14.7706071,36.7395819 7.82126089,34.3045874 0.714921597,30.0465509 C0.253554213,29.771012 -0.0123728206,29.2840131 0.000442940054,28.7489551 C0.0164626409,28.2106932 0.308021196,27.7429179 0.782204341,27.4898066 C4.45391977,25.545015 8.05835246,24.0583867 11.5826866,23.026718 Z M57.8892339,23.026718 C61.4135681,24.0551828 65.0180008,25.541811 68.6897162,27.4898066 C69.1638993,27.739714 69.4554579,28.2106932 69.4682736,28.7489551 C69.4810894,29.2840131 69.2151624,29.771012 68.753795,30.0465509 C61.6474557,34.3045874 54.6981095,36.7395819 48.0659533,37.3034754 C50.0395805,36.0955899 51.8498067,34.327015 53.3652704,32.1034805 C55.2139438,29.3929471 56.7197957,26.3620197 57.8892339,23.026718 Z M34.7311544,-4.55307282e-15 C35.2822321,-4.55307282e-15 35.766027,0.291558555 36.0255462,0.778557461 C38.5246195,5.50757315 40.3348457,10.0283327 41.5106917,14.8182233 C39.3672558,16.8174819 36.515749,19.9797709 34.7311544,23.507309 C33.145204,20.2681255 30.1943751,16.8911726 27.9580248,14.8150193 C29.0697921,10.2429967 30.9120577,5.52359285 33.4367625,0.778557461 C33.6962817,0.291558555 34.1800766,-4.55307282e-15 34.7311544,-4.55307282e-15 Z M3.92847359,15.0873542 C5.89248891,15.1514331 7.79242543,15.3020182 9.62828314,15.529498 C9.99673626,17.5607961 10.4677155,19.5087917 11.0380168,21.367077 C9.43925067,21.8348522 7.82766877,22.3955418 6.2032711,23.0459416 C4.93771474,21.2549391 3.73303323,19.3261671 2.59563448,17.2660336 C2.33611532,16.7982583 2.34893108,16.2439766 2.62767388,15.7890171 C2.89680485,15.3468734 3.36137618,15.0873542 3.87721054,15.0873542 L3.87721054,15.0873542 Z M65.6011179,15.0873542 C66.1169522,15.0873542 66.5815236,15.3468734 66.8506545,15.7890171 C67.1293973,16.2439766 67.1422131,16.7982583 66.8826939,17.2660336 C65.7420912,19.329371 64.5374097,21.2549391 63.2718534,23.0459416 C61.6442518,22.3955418 60.0326699,21.8348522 58.4403116,21.367077 C59.0106129,19.5087917 59.4815921,17.5607961 59.8500453,15.529498 C61.682699,15.3020182 63.5858395,15.1514331 65.5498548,15.0873542 L65.5498548,15.0873542 Z M45.7046494,1.37128639 C45.8424189,1.37128639 45.9801883,1.39051003 46.1147538,1.43216125 C46.6305881,1.58595038 47.0054491,1.99925866 47.117587,2.54072455 C47.4059417,3.93123459 47.9538154,6.76992557 48.1973149,9.57337322 C46.3101941,10.816502 44.5704546,12.1301175 42.9748924,13.5142196 C42.356532,11.1561197 41.552343,8.7659803 40.5687333,6.35661729 C41.8278818,4.82513389 43.1959643,3.31287413 44.6697768,1.81663407 C44.9549274,1.52507552 45.3233805,1.37128639 45.7046494,1.37128639 Z M23.770475,1.36808245 C24.1517439,1.36808245 24.520197,1.52507552 24.8053477,1.81343013 C26.2791602,3.30967019 27.6472426,4.82513389 28.9063911,6.35341335 C27.9227815,8.76277636 27.1217965,11.1561197 26.5002321,13.5110157 C24.9046699,12.1269135 23.1649303,10.8132981 21.2778096,9.57016928 C21.521309,6.76672163 22.0691828,3.92803065 22.3575374,2.53752061 C22.4696753,1.99605472 22.8445363,1.58274644 23.3603707,1.42895731 C23.4981401,1.38730609 23.6359096,1.36808245 23.770475,1.36808245 Z" id="Combined-Shape" fill="#D51E3B"></path>
        </g>
    </g>
</svg>